<?xml version="1.0" encoding="UTF-8" standalone="no"?>
<!DOCTYPE svg PUBLIC "-//W3C//DTD SVG 1.1//EN"
 "http://www.w3.org/Graphics/SVG/1.1/DTD/svg11.dtd">
<!-- Generated by graphviz version 12.2.1 (0)
 -->
<!-- Title: init_dmx Pages: 1 -->
<svg width="307pt" height="29pt"
 viewBox="0.00 0.00 307.25 28.75" xmlns="http://www.w3.org/2000/svg" xmlns:xlink="http://www.w3.org/1999/xlink">
<g id="graph0" class="graph" transform="scale(1 1) rotate(0) translate(4 24.75)">
<title>init_dmx</title>
<!-- Node1 -->
<g id="Node000001" class="node">
<title>Node1</title>
<g id="a_Node000001"><a xlink:title="Initialize the DMX interface.">
<polygon fill="#999999" stroke="#666666" points="58.75,-20.75 0,-20.75 0,0 58.75,0 58.75,-20.75"/>
<text text-anchor="middle" x="29.38" y="-7.25" font-family="Helvetica,sans-Serif" font-size="10.00">init_dmx</text>
</a>
</g>
</g>
<!-- Node2 -->
<g id="Node000002" class="node">
<title>Node2</title>
<g id="a_Node000002"><a xlink:href="dmx_8c.html#a37ff8430c1cb1a31097b574fa0289924" target="_top" xlink:title=" ">
<polygon fill="white" stroke="#666666" points="197,-20.75 94.75,-20.75 94.75,0 197,0 197,-20.75"/>
<text text-anchor="middle" x="145.88" y="-7.25" font-family="Helvetica,sans-Serif" font-size="10.00">dmx_sender_task</text>
</a>
</g>
</g>
<!-- Node1&#45;&gt;Node2 -->
<g id="edge1_Node000001_Node000002" class="edge">
<title>Node1&#45;&gt;Node2</title>
<g id="a_edge1_Node000001_Node000002"><a xlink:title=" ">
<path fill="none" stroke="#63b8ff" d="M58.97,-10.38C66.35,-10.38 74.58,-10.38 82.95,-10.38"/>
<polygon fill="#63b8ff" stroke="#63b8ff" points="82.86,-13.88 92.86,-10.38 82.86,-6.88 82.86,-13.88"/>
</a>
</g>
</g>
<!-- Node3 -->
<g id="Node000003" class="node">
<title>Node3</title>
<g id="a_Node000003"><a xlink:href="dmx_8c.html#aec13b2d194459fd20ec0b95e8138a96d" target="_top" xlink:title="Send some test DMX data on the specified port.">
<polygon fill="white" stroke="#666666" points="299.25,-20.75 233,-20.75 233,0 299.25,0 299.25,-20.75"/>
<text text-anchor="middle" x="266.12" y="-7.25" font-family="Helvetica,sans-Serif" font-size="10.00">send_dmx</text>
</a>
</g>
</g>
<!-- Node2&#45;&gt;Node3 -->
<g id="edge2_Node000002_Node000003" class="edge">
<title>Node2&#45;&gt;Node3</title>
<g id="a_edge2_Node000002_Node000003"><a xlink:title=" ">
<path fill="none" stroke="#63b8ff" d="M197.37,-10.38C205.29,-10.38 213.42,-10.38 221.18,-10.38"/>
<polygon fill="#63b8ff" stroke="#63b8ff" points="221.07,-13.88 231.07,-10.38 221.07,-6.88 221.07,-13.88"/>
</a>
</g>
</g>
</g>
</svg>
