<svg xmlns="http://www.w3.org/2000/svg" width="891" height="638" fill="none" viewBox="0 0 891 638"><rect width="887.522" height="635" x="1.5" y="1.5" fill="#0d1117" rx="48.5"/><rect width="887.522" height="635" x="1.5" y="1.5" stroke="#fff" stroke-width="3" rx="48.5"/><path stroke="#fff" d="M200.5 210.5h299v299h-299z"/><path fill="#707070" d="M309.344 348v-34.909h21.069v3.75h-16.841v11.795h15.75v3.75h-15.75v11.864h17.113V348zm47.779-26.182q-.307-2.59-2.489-4.023-2.181-1.431-5.352-1.431-2.318 0-4.057.75-1.722.75-2.693 2.062-.954 1.312-.955 2.983 0 1.398.665 2.403a5.9 5.9 0 0 0 1.739 1.654q1.056.648 2.216 1.074 1.159.408 2.13.665l3.546.954q1.363.358 3.034.989 1.688.63 3.222 1.721a8.8 8.8 0 0 1 2.556 2.762q1.006 1.687 1.006 4.142 0 2.83-1.483 5.113-1.466 2.284-4.295 3.631-2.813 1.347-6.836 1.347-3.75 0-6.494-1.211-2.727-1.209-4.295-3.375-1.552-2.164-1.756-5.028h4.364q.17 1.977 1.329 3.273 1.176 1.278 2.966 1.909 1.807.613 3.886.613 2.421 0 4.347-.784 1.926-.8 3.051-2.216 1.125-1.431 1.125-3.34 0-1.74-.971-2.83-.972-1.09-2.557-1.773a27 27 0 0 0-3.426-1.193l-4.296-1.227q-4.09-1.177-6.477-3.358-2.386-2.182-2.386-5.71 0-2.932 1.585-5.114 1.602-2.199 4.295-3.409 2.71-1.227 6.051-1.227 3.375 0 6 1.21 2.625 1.193 4.159 3.273 1.552 2.08 1.637 4.721zM368.641 348v-34.909h11.796q4.107 0 6.716 1.483 2.625 1.466 3.886 3.971 1.261 2.507 1.261 5.591t-1.261 5.608q-1.244 2.523-3.852 4.023-2.608 1.483-6.682 1.483h-8.455v-3.75h8.319q2.812 0 4.517-.972 1.704-.97 2.471-2.625.784-1.67.784-3.767 0-2.095-.784-3.75-.767-1.653-2.488-2.591-1.722-.954-4.569-.954h-7.431V348zm-73.919 58.477q-3.375 0-6.017-1.159-2.625-1.159-4.177-3.221-1.533-2.08-1.67-4.824h4.295q.137 1.687 1.159 2.915 1.023 1.21 2.677 1.874t3.664.665q2.25 0 3.989-.784t2.727-2.182.989-3.238q0-1.926-.955-3.392-.954-1.483-2.795-2.319t-4.5-.835h-2.796v-3.75h2.796q2.079 0 3.648-.75 1.585-.75 2.471-2.113.904-1.364.904-3.205 0-1.773-.784-3.085-.785-1.313-2.216-2.046-1.415-.733-3.341-.733a8.8 8.8 0 0 0-3.409.665q-1.586.648-2.591 1.892-1.006 1.227-1.091 2.966h-4.091q.102-2.744 1.653-4.807 1.551-2.08 4.057-3.238 2.523-1.16 5.54-1.159 3.238 0 5.557 1.312 2.318 1.296 3.562 3.426a8.97 8.97 0 0 1 1.245 4.603q0 2.948-1.552 5.028-1.533 2.08-4.176 2.881v.272q3.307.546 5.165 2.813 1.858 2.25 1.858 5.574 0 2.846-1.551 5.113-1.535 2.25-4.193 3.546-2.66 1.295-6.051 1.295m18.767-.477v-3.068l11.522-12.614q2.029-2.216 3.341-3.852 1.313-1.653 1.943-3.102.648-1.466.648-3.069 0-1.84-.886-3.187-.87-1.347-2.387-2.08t-3.409-.733q-2.011 0-3.511.836a5.74 5.74 0 0 0-2.301 2.301q-.801 1.483-.801 3.477h-4.023q0-3.068 1.415-5.386a9.83 9.83 0 0 1 3.852-3.614q2.454-1.296 5.506-1.295 3.068 0 5.437 1.295 2.37 1.296 3.716 3.494 1.347 2.2 1.347 4.892 0 1.927-.699 3.767-.682 1.824-2.387 4.074-1.687 2.233-4.687 5.455l-7.841 8.386v.273h16.227V406zm44.13-19.33v3.75h-15.272v-3.75zm26.715-6.852q-.307-2.59-2.489-4.023-2.181-1.431-5.352-1.431-2.319 0-4.057.75-1.722.75-2.693 2.062-.954 1.312-.955 2.983 0 1.398.665 2.403a5.9 5.9 0 0 0 1.739 1.654q1.056.648 2.216 1.074 1.159.408 2.13.665l3.546.954q1.363.358 3.034.989a14 14 0 0 1 3.221 1.721 8.8 8.8 0 0 1 2.557 2.762q1.006 1.687 1.006 4.142 0 2.83-1.483 5.113-1.466 2.284-4.295 3.631-2.813 1.347-6.836 1.347-3.75 0-6.494-1.211-2.727-1.209-4.295-3.375-1.552-2.165-1.756-5.028h4.364q.17 1.977 1.329 3.273 1.176 1.278 2.966 1.909 1.807.613 3.886.613 2.421 0 4.347-.784 1.926-.8 3.051-2.216 1.125-1.431 1.125-3.34 0-1.74-.972-2.83-.971-1.09-2.556-1.773a27 27 0 0 0-3.426-1.193l-4.296-1.227q-4.09-1.177-6.477-3.358t-2.387-5.71q0-2.932 1.586-5.114 1.602-2.199 4.295-3.409 2.71-1.227 6.051-1.227 3.375 0 6 1.21 2.625 1.192 4.159 3.273 1.551 2.08 1.637 4.721zM395.239 406v-3.068l11.522-12.614q2.029-2.216 3.341-3.852 1.313-1.653 1.943-3.102.648-1.466.648-3.069 0-1.84-.886-3.187-.87-1.347-2.387-2.08t-3.409-.733q-2.011 0-3.511.836a5.74 5.74 0 0 0-2.301 2.301q-.801 1.483-.801 3.477h-4.023q0-3.068 1.415-5.386a9.83 9.83 0 0 1 3.852-3.614q2.454-1.296 5.506-1.295 3.068 0 5.437 1.295 2.37 1.296 3.716 3.494 1.347 2.2 1.347 4.892 0 1.927-.699 3.767-.682 1.824-2.387 4.074-1.687 2.233-4.687 5.455l-7.841 8.386v.273h16.227V406z"/><path fill="#00ffd5" d="m524 209-5-8.5-5 8.5z"/><path stroke="#00ffd5" d="M519 217.5h10l-5-8.5m-5 8.5h-10l5-8.5m5 8.5v10h50M524 209l-5-8.5-5 8.5m10 0h-10"/><path fill="#00ffd5" d="M525.568 205.58q-.562 0-1.003-.194a1.7 1.7 0 0 1-.696-.537 1.45 1.45 0 0 1-.278-.804h.716a.84.84 0 0 0 .193.486q.17.202.446.313.275.111.611.111.375 0 .665-.131.29-.13.454-.364a.9.9 0 0 0 .165-.54q0-.32-.159-.565a1.06 1.06 0 0 0-.466-.386 1.8 1.8 0 0 0-.75-.139H525v-.625h.466q.347 0 .608-.125a.945.945 0 0 0 .562-.887 1 1 0 0 0-.13-.514.9.9 0 0 0-.37-.341 1.2 1.2 0 0 0-.556-.122q-.302 0-.569.111-.264.108-.431.315a.8.8 0 0 0-.182.494h-.682q.017-.458.275-.801a1.74 1.74 0 0 1 .677-.54q.42-.192.923-.193.54 0 .926.219.387.216.594.571t.207.767q0 .492-.258.838a1.3 1.3 0 0 1-.696.48v.046q.55.09.86.468.31.375.31.929 0 .475-.258.853-.257.375-.699.591a2.3 2.3 0 0 1-1.009.216m3.96-.875-.046.306a6 6 0 0 1-.147.694 14 14 0 0 1-.202.696q-.105.326-.173.519h-.512l.097-.48a19 19 0 0 0 .221-1.417l.034-.318zm2.978.875q-.563 0-1.003-.194a1.7 1.7 0 0 1-.696-.537 1.45 1.45 0 0 1-.279-.804h.716q.023.282.194.486.17.202.446.313.275.111.61.111.375 0 .665-.131a1.1 1.1 0 0 0 .455-.364.9.9 0 0 0 .164-.54q0-.32-.159-.565a1.05 1.05 0 0 0-.466-.386 1.8 1.8 0 0 0-.75-.139h-.465v-.625h.465q.347 0 .608-.125a.97.97 0 0 0 .412-.353.94.94 0 0 0 .151-.534 1 1 0 0 0-.131-.514.9.9 0 0 0-.369-.341 1.2 1.2 0 0 0-.557-.122q-.301 0-.568.111-.264.108-.432.315a.82.82 0 0 0-.182.494h-.682q.018-.458.276-.801.259-.347.676-.54.42-.192.923-.193.54 0 .927.219.386.216.593.571.208.355.208.767 0 .492-.259.838-.255.346-.696.48v.046q.551.09.861.468.31.375.31.929 0 .475-.259.853a1.75 1.75 0 0 1-.699.591 2.3 2.3 0 0 1-1.008.216m3.468-5.898 1.728 4.898h.068l1.727-4.898h.739l-2.137 5.818h-.727l-2.136-5.818z"/><path fill="#fc0" d="M503.205 249.5v-1.023l3.84-4.204q.676-.74 1.114-1.284a4.8 4.8 0 0 0 .648-1.034q.216-.489.216-1.023 0-.613-.296-1.063a1.9 1.9 0 0 0-.795-.693 2.6 2.6 0 0 0-1.137-.244q-.67 0-1.17.278a1.9 1.9 0 0 0-.767.767q-.267.495-.267 1.159h-1.341q0-1.022.472-1.795a3.3 3.3 0 0 1 1.284-1.205q.818-.431 1.835-.431 1.023 0 1.812.431.79.432 1.239 1.165t.449 1.631q0 .641-.233 1.256-.228.607-.796 1.357-.561.745-1.562 1.819l-2.614 2.795v.091h5.409v1.25zm13.778-11.636V249.5h-1.409v-10.159h-.068l-2.841 1.886v-1.432l2.909-1.931zm16.79 1.25v-1.25h8.727v1.25h-3.659V249.5h-1.409v-10.386zm11.584-1.25 3 4.841h.09l3-4.841h1.66l-3.66 5.818 3.66 5.818h-1.66l-3-4.75h-.09l-3 4.75h-1.66l3.75-5.818-3.75-5.818zm13.174 11.636h-3.591v-11.636h3.75q1.694 0 2.898.698 1.205.694 1.847 1.995.642 1.295.642 3.102 0 1.818-.648 3.131a4.6 4.6 0 0 1-1.886 2.011q-1.239.699-3.012.699m-2.182-1.25h2.091q1.443 0 2.392-.557a3.42 3.42 0 0 0 1.415-1.585q.466-1.029.466-2.449 0-1.409-.46-2.426-.46-1.023-1.375-1.568-.915-.552-2.279-.551h-2.25z"/><path stroke="#fc0" d="M499 254h70" opacity=".9"/><path fill="#00c8ff" d="M507.136 276.659q-1.125 0-2.005-.386-.876-.387-1.392-1.074a2.9 2.9 0 0 1-.557-1.608h1.432q.045.563.386.971.341.404.892.626.551.22 1.222.221.75 0 1.329-.261.58-.262.909-.728t.33-1.079q0-.642-.318-1.131-.318-.494-.932-.772-.614-.279-1.5-.279H506v-1.25h.932q.693 0 1.216-.25.528-.25.824-.704.3-.455.301-1.069a1.96 1.96 0 0 0-.262-1.028 1.8 1.8 0 0 0-.738-.682q-.472-.244-1.114-.244-.602 0-1.136.221-.529.216-.864.631a1.65 1.65 0 0 0-.364.989h-1.363q.034-.915.551-1.603a3.46 3.46 0 0 1 1.352-1.079 4.4 4.4 0 0 1 1.847-.386q1.08 0 1.852.437a3.1 3.1 0 0 1 1.188 1.142q.414.71.414 1.534 0 .983-.517 1.676a2.62 2.62 0 0 1-1.392.961v.09q1.103.183 1.722.938.62.75.619 1.858 0 .949-.517 1.704-.512.75-1.398 1.182t-2.017.432m10.188 0q-1.125 0-2.006-.386-.875-.387-1.392-1.074a2.9 2.9 0 0 1-.557-1.608h1.432q.045.563.387.971.34.404.892.626.55.22 1.221.221.75 0 1.33-.261.579-.262.909-.728.329-.465.329-1.079 0-.642-.318-1.131-.318-.494-.932-.772-.614-.279-1.5-.279h-.931v-1.25h.931q.693 0 1.216-.25a1.95 1.95 0 0 0 .824-.704 1.9 1.9 0 0 0 .301-1.069q0-.59-.261-1.028a1.8 1.8 0 0 0-.739-.682q-.471-.244-1.113-.244a3 3 0 0 0-1.137.221q-.528.216-.863.631a1.64 1.64 0 0 0-.364.989h-1.364q.035-.915.551-1.603a3.5 3.5 0 0 1 1.353-1.079 4.4 4.4 0 0 1 1.846-.386q1.08 0 1.853.437a3.1 3.1 0 0 1 1.187 1.142q.415.71.415 1.534 0 .983-.517 1.676a2.62 2.62 0 0 1-1.392.961v.09q1.102.183 1.721.938.62.75.62 1.858 0 .949-.517 1.704-.512.75-1.398 1.182t-2.017.432m18.085-.159v-11.636h3.932q1.363 0 2.239.466.875.46 1.295 1.267t.42 1.835-.42 1.824-1.29 1.25q-.869.449-2.221.449h-3.182v-1.273h3.136q.932 0 1.5-.273.574-.273.83-.773.261-.505.261-1.204t-.261-1.222a1.8 1.8 0 0 0-.836-.807q-.573-.29-1.517-.289h-2.477V276.5zm5.477-5.227 2.864 5.227h-1.636l-2.819-5.227zm5.439-6.409 3 4.841h.091l3-4.841h1.659l-3.659 5.818 3.659 5.818h-1.659l-3-4.75h-.091l-3 4.75h-1.659l3.75-5.818-3.75-5.818zM559.5 276.5h-3.591v-11.636h3.75q1.693 0 2.898.698 1.204.694 1.846 1.995.642 1.295.642 3.102 0 1.818-.647 3.131a4.6 4.6 0 0 1-1.887 2.011q-1.238.699-3.011.699m-2.182-1.25h2.091q1.443 0 2.392-.557a3.43 3.43 0 0 0 1.415-1.585q.466-1.029.466-2.449 0-1.409-.46-2.426a3.4 3.4 0 0 0-1.375-1.568q-.915-.551-2.279-.551h-2.25z"/><path stroke="#00c8ff" d="M499 281h70" opacity=".9"/><path stroke="#00ffd5" d="M519 298.5v-10h50m-50 10h-10m10 0h10m-17 3h14m-4 3h-6"/><path fill="#00ffd5" d="M531.682 303a2 2 0 0 0-.247-.514 1.6 1.6 0 0 0-.361-.392 1.5 1.5 0 0 0-.472-.247 1.9 1.9 0 0 0-.579-.086 1.73 1.73 0 0 0-.941.267 1.85 1.85 0 0 0-.673.787q-.25.52-.25 1.276t.253 1.275q.253.52.685.787.43.267.971.267.5 0 .881-.213.383-.216.596-.608.216-.394.216-.929l.216.046h-1.75v-.625h2.216v.625q0 .719-.307 1.25a2.1 2.1 0 0 1-.841.824q-.534.29-1.227.29-.773 0-1.358-.364a2.46 2.46 0 0 1-.909-1.034q-.324-.67-.324-1.591 0-.69.185-1.242.188-.553.528-.943.342-.389.807-.596a2.5 2.5 0 0 1 1.026-.208q.46 0 .858.139a2.3 2.3 0 0 1 1.238.989q.21.347.29.77zm6.581-1.818V307h-.681l-3.171-4.568h-.057V307h-.704v-5.818h.682l3.181 4.579h.057v-4.579zm3.206 5.818h-1.796v-5.818h1.875q.848 0 1.449.349.603.347.923.997.321.648.321 1.552 0 .909-.323 1.565a2.3 2.3 0 0 1-.944 1.006q-.618.35-1.505.349m-1.091-.625h1.045q.722 0 1.196-.278.475-.279.708-.793t.233-1.224q0-.705-.23-1.214a1.7 1.7 0 0 0-.688-.784q-.458-.275-1.139-.275h-1.125z"/><path fill="#fc0" d="M722.364 226a4 4 0 0 0-.495-1.028 3.1 3.1 0 0 0-.721-.784 3 3 0 0 0-.943-.495 3.8 3.8 0 0 0-1.16-.17q-1.034 0-1.88.534-.847.534-1.347 1.574t-.5 2.551.506 2.551 1.369 1.574a3.6 3.6 0 0 0 1.943.534q1 0 1.762-.426a3 3 0 0 0 1.193-1.216q.432-.79.432-1.858l.432.091h-3.5v-1.25h4.431v1.25q0 1.437-.613 2.5a4.25 4.25 0 0 1-1.682 1.648q-1.068.579-2.455.579-1.545 0-2.716-.727-1.164-.727-1.818-2.068-.648-1.341-.647-3.182 0-1.381.369-2.483.375-1.108 1.057-1.887a4.6 4.6 0 0 1 1.613-1.193 5 5 0 0 1 2.051-.414q.921 0 1.716.278a4.6 4.6 0 0 1 1.427.778q.63.5 1.051 1.199.42.693.579 1.54zm13.163-3.636V234h-1.364l-6.341-9.136h-.113V234H726.3v-11.636h1.363l6.364 9.159h.114v-9.159zM741.938 234h-3.591v-11.636h3.75q1.692 0 2.897.698 1.205.694 1.847 1.995.642 1.295.642 3.102 0 1.818-.648 3.131a4.6 4.6 0 0 1-1.886 2.011q-1.24.699-3.011.699m-2.182-1.25h2.091q1.443 0 2.392-.557a3.43 3.43 0 0 0 1.414-1.585q.466-1.029.466-2.449 0-1.409-.46-2.426-.46-1.023-1.375-1.568-.915-.552-2.278-.551h-2.25zm34.539-10.386V234h-1.409v-10.159h-.068l-2.841 1.886v-1.432l2.909-1.931z"/><path stroke="#fc0" d="M710 238.5h70" opacity=".9"/><path fill="#00c8ff" d="M718 261h-3.591v-11.636h3.75q1.693 0 2.898.698 1.204.694 1.846 1.995.642 1.295.642 3.102 0 1.818-.647 3.131a4.6 4.6 0 0 1-1.887 2.011Q719.773 261 718 261m-2.182-1.25h2.091q1.443 0 2.392-.557a3.43 3.43 0 0 0 1.415-1.585q.466-1.029.466-2.449 0-1.409-.46-2.426a3.4 3.4 0 0 0-1.375-1.568q-.915-.552-2.279-.551h-2.25zm14.909-5.193v1.25h-5.091v-1.25zM768.205 261v-1.023l3.84-4.204q.676-.74 1.114-1.284a4.8 4.8 0 0 0 .648-1.034q.216-.489.216-1.023 0-.613-.296-1.063a1.9 1.9 0 0 0-.795-.693 2.6 2.6 0 0 0-1.137-.244q-.67 0-1.17.278a1.9 1.9 0 0 0-.767.767q-.267.495-.267 1.159h-1.341q0-1.022.472-1.795a3.3 3.3 0 0 1 1.284-1.205q.818-.431 1.835-.431 1.023 0 1.812.431.79.432 1.239 1.165t.449 1.631q0 .641-.233 1.256-.228.607-.796 1.357-.561.745-1.562 1.819l-2.614 2.795v.091h5.409V261z"/><path stroke="#00c8ff" d="M710 265.5h70" opacity=".9"/><path fill="red" d="M718 288h-3.591v-11.636h3.75q1.693 0 2.898.698 1.204.694 1.846 1.995.642 1.295.642 3.102 0 1.818-.647 3.131a4.6 4.6 0 0 1-1.887 2.011Q719.773 288 718 288m-2.182-1.25h2.091q1.443 0 2.392-.557a3.43 3.43 0 0 0 1.415-1.585q.466-1.029.466-2.449 0-1.409-.46-2.426a3.4 3.4 0 0 0-1.375-1.568q-.915-.551-2.279-.551h-2.25zm13.318-.795v-7.5h1.273v7.5zm-3.113-3.114v-1.273h7.5v1.273zm45.113 5.318q-1.125 0-2.005-.386-.876-.387-1.392-1.074a2.9 2.9 0 0 1-.557-1.608h1.432q.045.563.386.971.341.404.892.626.551.22 1.222.221.75 0 1.329-.261.58-.262.909-.728t.33-1.079q0-.642-.318-1.131-.318-.494-.932-.772-.614-.279-1.5-.279H770v-1.25h.932q.693 0 1.216-.25.528-.25.824-.704.3-.455.301-1.069a1.96 1.96 0 0 0-.262-1.028 1.8 1.8 0 0 0-.738-.682q-.472-.244-1.114-.244-.602 0-1.136.221-.529.216-.864.631a1.65 1.65 0 0 0-.364.989h-1.363q.034-.915.551-1.603a3.46 3.46 0 0 1 1.352-1.079 4.4 4.4 0 0 1 1.847-.386q1.08 0 1.852.437a3.1 3.1 0 0 1 1.188 1.142q.414.71.414 1.534 0 .983-.517 1.676a2.62 2.62 0 0 1-1.392.961v.09q1.102.183 1.722.938.62.75.619 1.858 0 .949-.517 1.704-.511.75-1.398 1.182t-2.017.432"/><path stroke="red" d="M710 292.5h70" opacity=".9"/><path stroke="#fff" d="M569.5 223.5h141v76h-141z"/><path fill="#707070" d="M589.114 262.5v-17.455h5.897q2.046 0 3.358.699 1.313.691 1.943 1.901t.631 2.753-.631 2.736q-.63 1.192-1.934 1.875-1.304.672-3.333.673h-4.772v-1.909h4.704q1.398 0 2.25-.409.861-.41 1.245-1.159.392-.759.392-1.807t-.392-1.833-1.253-1.21q-.861-.435-2.276-.435h-3.716v15.58zm8.216-7.841 4.295 7.841h-2.455l-4.227-7.841zm16.681-5.25q-.154-1.296-1.245-2.011-1.09-.717-2.676-.716-1.16 0-2.028.375-.861.375-1.347 1.031a2.48 2.48 0 0 0-.477 1.492q0 .698.332 1.201.341.495.87.827.528.324 1.108.537.579.204 1.065.332l1.773.478q.681.179 1.517.494a7 7 0 0 1 1.61.861q.777.537 1.279 1.38.503.844.503 2.071 0 1.416-.742 2.557-.732 1.143-2.147 1.816-1.407.673-3.418.673-1.875 0-3.247-.605-1.363-.606-2.148-1.688-.776-1.082-.878-2.514h2.182q.085.989.665 1.636.588.64 1.483.955.903.307 1.943.307 1.21 0 2.173-.392.963-.401 1.526-1.108a2.63 2.63 0 0 0 .562-1.671q0-.869-.486-1.415-.485-.545-1.278-.886a13 13 0 0 0-1.713-.596l-2.148-.614q-2.045-.588-3.238-1.679-1.194-1.09-1.194-2.855 0-1.466.793-2.557.801-1.1 2.148-1.705 1.355-.613 3.025-.613 1.688 0 3 .605 1.313.597 2.08 1.636.776 1.04.818 2.361zm5.043 9.511v-1.738l7.67-12.137h1.262v2.694h-.852l-5.796 9.17v.136h10.33v1.875zm8.216 3.58v-17.455h2.011V262.5zm13.182.239q-1.755 0-3.102-.623-1.338-.63-2.088-1.73-.75-1.107-.741-2.522a4.64 4.64 0 0 1 .434-2.046 4.5 4.5 0 0 1 1.21-1.577 3.7 3.7 0 0 1 1.731-.809v-.102a3.37 3.37 0 0 1-1.995-1.407q-.74-1.09-.733-2.48-.008-1.33.674-2.378.681-1.049 1.875-1.653 1.202-.605 2.735-.605 1.517 0 2.711.605 1.192.605 1.875 1.653.69 1.049.699 2.378-.009 1.39-.759 2.48-.741 1.083-1.969 1.407v.102a3.6 3.6 0 0 1 1.705.809 4.6 4.6 0 0 1 1.21 1.577 4.7 4.7 0 0 1 .46 2.046q-.008 1.415-.767 2.522-.75 1.1-2.088 1.73-1.33.623-3.077.623m0-1.875q1.185 0 2.046-.384.861-.383 1.329-1.082.47-.7.478-1.637-.009-.988-.512-1.747a3.47 3.47 0 0 0-1.372-1.193q-.86-.435-1.969-.435-1.116 0-1.994.435a3.5 3.5 0 0 0-1.372 1.193q-.495.759-.486 1.747-.009.938.452 1.637.468.699 1.338 1.082.869.384 2.062.384m0-8.284q.938 0 1.662-.375.734-.375 1.151-1.049t.426-1.576q-.009-.887-.418-1.543a2.7 2.7 0 0 0-1.133-1.023q-.725-.366-1.688-.366-.98 0-1.713.366-.732.358-1.133 1.023-.4.656-.392 1.543-.008.903.4 1.576.418.674 1.151 1.049t1.687.375m14.653 10.159q-1.5 0-2.702-.597a5 5 0 0 1-1.926-1.636 4.46 4.46 0 0 1-.792-2.37h2.045q.12 1.185 1.074 1.961.963.767 2.301.767 1.074 0 1.909-.503a3.55 3.55 0 0 0 1.321-1.381q.486-.886.486-2.003 0-1.142-.503-2.037a3.7 3.7 0 0 0-1.363-1.423q-.87-.52-1.986-.528a5.4 5.4 0 0 0-1.645.247q-.845.247-1.389.639l-1.978-.239 1.057-8.591h9.068v1.875h-7.295l-.614 5.148h.103q.537-.426 1.346-.707a5.1 5.1 0 0 1 1.688-.281q1.602 0 2.855.767a5.35 5.35 0 0 1 1.977 2.079q.724 1.321.724 3.017 0 1.67-.75 2.983a5.5 5.5 0 0 1-2.045 2.063q-1.304.75-2.966.75m22.102-18.512-5.625 20.898h-1.841l5.625-20.898zm8.043 18.512q-1.926 0-3.281-1.049-1.356-1.056-2.071-3.059-.716-2.012-.716-4.858 0-2.83.716-4.833.725-2.011 2.079-3.068 1.364-1.065 3.273-1.065t3.264 1.065q1.363 1.057 2.08 3.068.724 2.003.724 4.833 0 2.846-.716 4.858-.715 2.003-2.071 3.059-1.355 1.049-3.281 1.049m0-1.875q1.909 0 2.966-1.841 1.056-1.842 1.057-5.25 0-2.268-.486-3.861-.477-1.594-1.381-2.429-.894-.835-2.156-.835-1.892 0-2.957 1.866-1.066 1.858-1.066 5.259 0 2.266.478 3.852.477 1.586 1.372 2.412.903.827 2.173.827m-71.92 13.091a1.34 1.34 0 0 0-.623-1.006q-.545-.358-1.338-.358-.579 0-1.014.187a1.6 1.6 0 0 0-.673.516 1.24 1.24 0 0 0-.239.746q0 .35.166.601.171.246.435.413.264.162.554.268.29.103.533.167l.886.238q.34.09.759.247.421.159.805.431.388.269.639.69.252.422.252 1.036a2.3 2.3 0 0 1-.371 1.278q-.366.571-1.074.908-.703.336-1.709.336-.937 0-1.623-.302a2.6 2.6 0 0 1-1.074-.844 2.4 2.4 0 0 1-.439-1.257h1.091q.042.495.332.818.294.32.742.477.452.154.971.154.606 0 1.087-.196.481-.2.763-.554.28-.358.281-.835 0-.435-.243-.708a1.8 1.8 0 0 0-.639-.443 7 7 0 0 0-.857-.298l-1.074-.307q-1.022-.294-1.619-.84-.597-.545-.597-1.427 0-.733.397-1.279.4-.549 1.074-.852a3.6 3.6 0 0 1 1.512-.307q.845 0 1.5.303.657.299 1.04.818.388.52.409 1.181zm3.748 2.607v3.938h-1.005v-8.727h1.005v3.204h.086q.23-.507.69-.805.465-.303 1.236-.303.668 0 1.172.269.503.264.78.814.28.544.281 1.389v4.159h-1.006v-4.091q0-.78-.405-1.206-.4-.43-1.112-.43-.494 0-.886.209a1.5 1.5 0 0 0-.614.609q-.222.4-.222.971m8.744 4.074q-.887 0-1.556-.422a2.86 2.86 0 0 1-1.039-1.18q-.371-.759-.371-1.773 0-1.022.371-1.785.375-.764 1.039-1.185.67-.422 1.556-.422t1.551.422q.669.421 1.04 1.185.375.763.375 1.785 0 1.014-.375 1.773a2.83 2.83 0 0 1-1.04 1.18q-.665.423-1.551.422m0-.903q.673 0 1.108-.345.434-.345.643-.908a3.5 3.5 0 0 0 .209-1.219q0-.656-.209-1.223a2.07 2.07 0 0 0-.643-.916q-.435-.35-1.108-.349-.673 0-1.108.349-.434.35-.644.916a3.5 3.5 0 0 0-.208 1.223q0 .657.208 1.219.21.563.644.908t1.108.345m4.501.767v-6.545h.971v.988h.069q.179-.486.647-.788a1.9 1.9 0 0 1 1.057-.303 11 11 0 0 1 .529.017v1.023a4 4 0 0 0-.235-.038 2.3 2.3 0 0 0-.379-.03q-.477 0-.852.2a1.47 1.47 0 0 0-.802 1.334v4.142zm7.721-6.545v.852h-3.392v-.852zm-2.403-1.569h1.006v6.239q0 .426.123.639a.64.64 0 0 0 .324.281q.2.069.422.069.166 0 .273-.017l.17-.035.205.904a2.2 2.2 0 0 1-.75.119q-.426 0-.836-.183a1.66 1.66 0 0 1-.673-.558q-.264-.375-.264-.946zm6.59 8.25q-.947 0-1.632-.417a2.8 2.8 0 0 1-1.052-1.176q-.367-.759-.367-1.765t.367-1.772q.37-.772 1.031-1.202.665-.435 1.551-.435.511 0 1.01.171.498.17.908.554.409.38.652 1.005.242.627.242 1.543v.426h-5.045v-.869h4.023q0-.554-.222-.989a1.67 1.67 0 0 0-.622-.686 1.75 1.75 0 0 0-.946-.251q-.601 0-1.04.298a1.96 1.96 0 0 0-.669.767 2.25 2.25 0 0 0-.234 1.014v.58q0 .741.255 1.257.26.512.721.78.46.264 1.069.264.396 0 .716-.111.324-.115.558-.341a1.55 1.55 0 0 0 .363-.571l.971.273a2.16 2.16 0 0 1-.515.869 2.5 2.5 0 0 1-.895.58 3.3 3.3 0 0 1-1.198.204m6.712 0q-.819 0-1.445-.413-.626-.417-.98-1.176-.354-.763-.354-1.803 0-1.031.354-1.789.354-.76.984-1.172.631-.414 1.458-.414.64 0 1.01.213.375.21.571.478.2.264.311.434h.085v-3.221h1.006v8.727h-.972v-1.006h-.119q-.111.18-.315.452-.205.269-.584.482-.38.208-1.01.208m.136-.903q.606 0 1.023-.315.417-.32.635-.882.217-.567.217-1.309 0-.732-.213-1.282-.213-.555-.631-.861-.417-.312-1.031-.311-.639 0-1.065.328-.422.324-.635.882a3.5 3.5 0 0 0-.209 1.244q0 .699.213 1.27.217.567.639.904.426.332 1.057.332m8.357.767v-8.727h2.949q1.022 0 1.679.349.656.345.971.95.315.606.315 1.377t-.315 1.368-.967.937q-.652.337-1.666.337h-2.387v-.955h2.353q.698 0 1.125-.204a1.3 1.3 0 0 0 .622-.58q.196-.38.196-.903 0-.525-.196-.916a1.34 1.34 0 0 0-.627-.605q-.43-.218-1.138-.218h-1.857v7.79zm4.108-3.92 2.147 3.92h-1.227l-2.114-3.92zm6.261 4.039q-.963 0-1.641-.524-.678-.528-1.035-1.53-.358-1.005-.358-2.429 0-1.414.358-2.416.362-1.005 1.039-1.534.682-.533 1.637-.533.954 0 1.632.533.681.528 1.04 1.534.362 1.002.362 2.416 0 1.424-.358 2.429-.358 1.002-1.036 1.53-.677.524-1.64.524m0-.937q.954 0 1.483-.921.528-.92.528-2.625 0-1.133-.243-1.93-.239-.796-.69-1.215a1.53 1.53 0 0 0-1.078-.417q-.947 0-1.479.933-.533.929-.533 2.629 0 1.134.239 1.926.239.793.686 1.206.451.414 1.087.414"/><path fill="#fff" fill-rule="evenodd" d="M819.6 264.75c0-9.702-7.898-17.6-17.6-17.6s-17.6 7.898-17.6 17.6 7.898 17.6 17.6 17.6 17.6-7.898 17.6-17.6m-39.6 0c0-12.1 9.9-22 22-22s22 9.9 22 22-9.9 22-22 22-22-9.9-22-22" clip-rule="evenodd"/><path fill="#fff" fill-opacity=".8" fill-rule="evenodd" d="M802 247.15c9.702 0 17.6 7.898 17.6 17.6s-7.898 17.6-17.6 17.6-17.6-7.898-17.6-17.6 7.898-17.6 17.6-17.6m0 24.2c1.826 0 3.3 1.474 3.3 3.3s-1.474 3.3-3.3 3.3a3.296 3.296 0 0 1-3.3-3.3c0-1.826 1.474-3.3 3.3-3.3m-9.9-9.9c1.826 0 3.3 1.474 3.3 3.3s-1.474 3.3-3.3 3.3a3.296 3.296 0 0 1-3.3-3.3c0-1.826 1.474-3.3 3.3-3.3m19.8 0c1.826 0 3.3 1.474 3.3 3.3s-1.474 3.3-3.3 3.3a3.296 3.296 0 0 1-3.3-3.3c0-1.826 1.474-3.3 3.3-3.3" clip-rule="evenodd"/><path fill="#00c8ff" d="M795.4 264.75c0-1.826-1.474-3.3-3.3-3.3a3.296 3.296 0 0 0-3.3 3.3c0 1.826 1.474 3.3 3.3 3.3s3.3-1.474 3.3-3.3"/><path fill="#fc0" d="M815.2 264.75c0-1.826-1.474-3.3-3.3-3.3a3.296 3.296 0 0 0-3.3 3.3c0 1.826 1.474 3.3 3.3 3.3s3.3-1.474 3.3-3.3"/><path fill="red" d="M805.3 274.65c0-1.826-1.474-3.3-3.3-3.3a3.296 3.296 0 0 0-3.3 3.3c0 1.826 1.474 3.3 3.3 3.3s3.3-1.474 3.3-3.3"/><path stroke="#fff" stroke-width="2" d="M780 238v55"/><path fill="#707070" d="M792.522 303.077h-3.591v-11.636h3.75q1.694 0 2.898.699 1.204.693 1.847 1.994.642 1.296.642 3.102 0 1.818-.648 3.131a4.6 4.6 0 0 1-1.887 2.011q-1.238.699-3.011.699m-2.182-1.25h2.091q1.444 0 2.392-.557a3.43 3.43 0 0 0 1.415-1.585q.466-1.028.466-2.449 0-1.409-.46-2.426a3.4 3.4 0 0 0-1.375-1.568q-.915-.55-2.279-.551h-2.25zm10.091-10.386h1.682l3.955 9.659h.136l3.954-9.659h1.682v11.636h-1.318v-8.841h-.114l-3.636 8.841h-1.273l-3.636-8.841h-.114v8.841h-1.318zm14.916 0 3 4.841h.091l3-4.841h1.659l-3.659 5.818 3.659 5.818h-1.659l-3-4.75h-.091l-3 4.75h-1.659l3.75-5.818-3.75-5.818zm17.675 11.795q-1.284 0-2.187-.699-.904-.704-1.381-2.039-.477-1.341-.477-3.239 0-1.886.477-3.222.483-1.34 1.386-2.045.91-.71 2.182-.71 1.273 0 2.176.71.909.705 1.387 2.045.483 1.336.483 3.222 0 1.898-.478 3.239-.477 1.335-1.38 2.039-.904.699-2.188.699m0-1.25q1.274 0 1.977-1.227.705-1.227.705-3.5 0-1.512-.324-2.574-.318-1.062-.92-1.619a2.03 2.03 0 0 0-1.438-.557q-1.261 0-1.971 1.244-.711 1.24-.711 3.506 0 1.512.318 2.568.32 1.058.915 1.608a2.07 2.07 0 0 0 1.449.551m-34.273 14.273q0 1.84-.664 3.182-.666 1.34-1.824 2.068-1.16.727-2.648.727t-2.648-.727q-1.158-.727-1.824-2.068-.664-1.341-.664-3.182t.664-3.182q.666-1.34 1.824-2.068 1.16-.727 2.648-.727t2.648.727q1.158.727 1.824 2.068.664 1.341.664 3.182m-1.363 0q0-1.512-.506-2.551-.5-1.04-1.358-1.574a3.5 3.5 0 0 0-1.909-.534 3.55 3.55 0 0 0-1.915.534q-.852.534-1.358 1.574-.5 1.04-.5 2.551t.5 2.551q.506 1.04 1.358 1.574a3.55 3.55 0 0 0 1.915.534 3.5 3.5 0 0 0 1.909-.534q.858-.534 1.358-1.574.506-1.04.506-2.551m9.051 2.25v-5.159h1.341v8.727h-1.341V320.6h-.091q-.307.664-.955 1.131-.647.46-1.636.46-.818 0-1.454-.358-.637-.364-1-1.091-.364-.733-.364-1.847v-5.545h1.341v5.454q0 .955.534 1.523.54.568 1.375.568a2.3 2.3 0 0 0 1.017-.255q.522-.256.875-.784.358-.53.358-1.347m7.592-5.159v1.136h-4.523v-1.136zm-3.204-2.091h1.341v8.318q0 .569.164.852a.85.85 0 0 0 .432.375q.267.091.563.091a2.4 2.4 0 0 0 .363-.022l.228-.046.272 1.205a3 3 0 0 1-.38.102q-.245.057-.62.057a2.7 2.7 0 0 1-1.113-.244 2.2 2.2 0 0 1-.898-.745q-.352-.5-.352-1.261zm5.221 14.091v-12h1.296v1.386h.159q.148-.226.409-.579.267-.358.761-.637.5-.284 1.353-.284 1.101 0 1.943.551.84.552 1.312 1.563.472 1.012.472 2.386 0 1.387-.472 2.404-.471 1.011-1.307 1.568-.834.55-1.926.551-.84 0-1.346-.278-.506-.285-.779-.642a9 9 0 0 1-.42-.603h-.114v4.614zm1.318-7.636q0 .988.29 1.744.29.75.847 1.176.557.42 1.363.42.841 0 1.404-.443.569-.448.852-1.204.29-.762.29-1.693 0-.92-.284-1.66-.279-.744-.847-1.176-.562-.437-1.415-.437-.817 0-1.375.415-.556.409-.84 1.147-.285.733-.285 1.711m13.932.795v-5.159h1.341v8.727h-1.341V320.6h-.091a2.86 2.86 0 0 1-.954 1.131q-.648.46-1.637.46-.818 0-1.454-.358-.636-.364-1-1.091-.364-.733-.364-1.847v-5.545h1.341v5.454q0 .955.534 1.523.54.568 1.375.568.501 0 1.017-.255a2.2 2.2 0 0 0 .875-.784q.358-.53.358-1.347m7.593-5.159v1.136h-4.523v-1.136zm-3.205-2.091h1.341v8.318q0 .569.165.852a.85.85 0 0 0 .432.375q.267.091.562.091.222 0 .364-.022l.227-.046.273 1.205a3 3 0 0 1-.381.102 2.8 2.8 0 0 1-.619.057q-.568 0-1.114-.244a2.2 2.2 0 0 1-.898-.745q-.352-.5-.352-1.261z"/><path stroke="#fff" d="M264.5 50.5h172v76h-172z"/><path fill="#707070" d="m285.284 97-4.773-17.454h2.148l3.648 14.215h.17l3.716-14.215h2.387l3.715 14.215h.171l3.648-14.215h2.147L297.489 97h-2.182l-3.852-13.91h-.137L287.466 97zm24.759.239q-1.5 0-2.702-.597a5 5 0 0 1-1.926-1.636 4.46 4.46 0 0 1-.793-2.37h2.046q.119 1.186 1.073 1.96.964.768 2.302.768 1.074 0 1.909-.503a3.55 3.55 0 0 0 1.321-1.38q.486-.888.486-2.004 0-1.141-.503-2.037a3.7 3.7 0 0 0-1.364-1.423q-.868-.52-1.986-.528a5.5 5.5 0 0 0-1.645.247q-.843.248-1.389.639l-1.977-.239 1.057-8.59h9.068v1.874h-7.296l-.613 5.148h.102q.537-.426 1.347-.707a5.1 5.1 0 0 1 1.687-.282q1.602 0 2.855.768a5.36 5.36 0 0 1 1.978 2.08q.724 1.32.724 3.016 0 1.67-.75 2.983a5.5 5.5 0 0 1-2.045 2.063q-1.305.75-2.966.75m14.601 0q-1.5 0-2.702-.597a5 5 0 0 1-1.926-1.636 4.45 4.45 0 0 1-.792-2.37h2.045q.12 1.186 1.074 1.96.963.768 2.301.768 1.074 0 1.909-.503a3.54 3.54 0 0 0 1.321-1.38q.486-.888.486-2.004 0-1.141-.503-2.037a3.7 3.7 0 0 0-1.363-1.423q-.87-.52-1.986-.528a5.5 5.5 0 0 0-1.645.247q-.844.248-1.389.639l-1.978-.239 1.057-8.59h9.068v1.874h-7.295l-.614 5.148h.103q.536-.426 1.346-.707a5.1 5.1 0 0 1 1.688-.282q1.602 0 2.855.768a5.35 5.35 0 0 1 1.977 2.08q.725 1.32.725 3.016 0 1.67-.75 2.983a5.5 5.5 0 0 1-2.046 2.063q-1.304.75-2.966.75m14.84 0q-1.925 0-3.281-1.049-1.355-1.056-2.071-3.06-.716-2.01-.716-4.857 0-2.83.716-4.833.724-2.01 2.08-3.068 1.364-1.065 3.272-1.065 1.91 0 3.265 1.065 1.363 1.057 2.079 3.068.725 2.003.725 4.833 0 2.847-.716 4.858-.717 2.003-2.071 3.06-1.356 1.048-3.282 1.048m0-1.875q1.91 0 2.966-1.841t1.057-5.25q0-2.268-.486-3.861-.477-1.594-1.38-2.429-.896-.835-2.157-.835-1.892 0-2.957 1.866-1.065 1.859-1.065 5.259 0 2.266.477 3.852t1.372 2.412q.904.827 2.173.827m15 1.875q-1.925 0-3.281-1.049-1.355-1.056-2.071-3.06-.716-2.01-.716-4.857 0-2.83.716-4.833.724-2.01 2.08-3.068 1.364-1.065 3.272-1.065 1.91 0 3.265 1.065 1.363 1.057 2.079 3.068.725 2.003.725 4.833 0 2.847-.716 4.858-.717 2.003-2.071 3.06-1.356 1.048-3.282 1.048m0-1.875q1.91 0 2.966-1.841t1.057-5.25q0-2.268-.486-3.861-.477-1.594-1.38-2.429-.896-.835-2.157-.835-1.892 0-2.957 1.866-1.065 1.859-1.065 5.259 0 2.266.477 3.852t1.372 2.412q.904.827 2.173.827m16.841-8.029v1.875h-7.636v-1.875zM375.137 97V79.546h10.534v1.874h-8.42v5.898h7.875v1.875h-7.875v5.932h8.557V97zm13.389-15.58v-1.874h13.091v1.874h-5.488V97h-2.114V81.42zM404.879 97V79.546h2.114v7.772h9.307v-7.772h2.113V97H416.3v-7.807h-9.307V97z"/><path fill="#00ffd5" d="m524 365-5-8.5-5 8.5z"/><path stroke="#00ffd5" d="M519 373.5h10l-5-8.5m-5 8.5h-10l5-8.5m5 8.5v10h50M524 365l-5-8.5-5 8.5m10 0h-10"/><path fill="#00ffd5" d="M525.568 361.58q-.562 0-1.003-.194a1.7 1.7 0 0 1-.696-.537 1.45 1.45 0 0 1-.278-.804h.716a.84.84 0 0 0 .193.486q.17.202.446.313.275.111.611.111.375 0 .665-.131.29-.13.454-.364a.9.9 0 0 0 .165-.54q0-.32-.159-.565a1.06 1.06 0 0 0-.466-.386 1.8 1.8 0 0 0-.75-.139H525v-.625h.466q.347 0 .608-.125a.945.945 0 0 0 .562-.887 1 1 0 0 0-.13-.514.9.9 0 0 0-.37-.341 1.2 1.2 0 0 0-.556-.122q-.302 0-.569.111-.264.108-.431.315a.8.8 0 0 0-.182.494h-.682q.017-.458.275-.801a1.74 1.74 0 0 1 .677-.54q.42-.192.923-.193.54 0 .926.219.387.216.594.571t.207.767q0 .492-.258.838a1.3 1.3 0 0 1-.696.48v.046q.55.09.86.468.31.375.31.929 0 .475-.258.853-.257.375-.699.591a2.3 2.3 0 0 1-1.009.216m3.96-.875-.046.306a6 6 0 0 1-.147.694 14 14 0 0 1-.202.696q-.105.326-.173.519h-.512l.097-.48a19 19 0 0 0 .221-1.417l.034-.318zm2.978.875q-.563 0-1.003-.194a1.7 1.7 0 0 1-.696-.537 1.45 1.45 0 0 1-.279-.804h.716q.023.282.194.486.17.202.446.313.275.111.61.111.375 0 .665-.131a1.1 1.1 0 0 0 .455-.364.9.9 0 0 0 .164-.54q0-.32-.159-.565a1.05 1.05 0 0 0-.466-.386 1.8 1.8 0 0 0-.75-.139h-.465v-.625h.465q.347 0 .608-.125a.97.97 0 0 0 .412-.353.94.94 0 0 0 .151-.534 1 1 0 0 0-.131-.514.9.9 0 0 0-.369-.341 1.2 1.2 0 0 0-.557-.122q-.301 0-.568.111-.264.108-.432.315a.82.82 0 0 0-.182.494h-.682q.018-.458.276-.801.259-.347.676-.54.42-.192.923-.193.54 0 .927.219.386.216.593.571.208.355.208.767 0 .492-.259.838-.255.346-.696.48v.046q.551.09.861.468.31.375.31.929 0 .475-.259.853a1.75 1.75 0 0 1-.699.591 2.3 2.3 0 0 1-1.008.216m3.468-5.898 1.728 4.898h.068l1.727-4.898h.739l-2.137 5.818h-.727l-2.136-5.818z"/><path fill="#fc0" d="M507.295 393.864V405.5h-1.409v-10.159h-.068l-2.841 1.886v-1.432l2.909-1.931zm3.711 11.636 5.204-10.295v-.091h-6v-1.25h7.455v1.318l-5.182 10.318zm22.767-10.386v-1.25h8.727v1.25h-3.659V405.5h-1.409v-10.386zm11.584-1.25 3 4.841h.09l3-4.841h1.66l-3.66 5.818 3.66 5.818h-1.66l-3-4.75h-.09l-3 4.75h-1.66l3.75-5.818-3.75-5.818zm13.174 11.636h-3.591v-11.636h3.75q1.694 0 2.898.698 1.205.694 1.847 1.995.642 1.295.642 3.102 0 1.818-.648 3.131a4.6 4.6 0 0 1-1.886 2.011q-1.239.699-3.012.699m-2.182-1.25h2.091q1.443 0 2.392-.557a3.42 3.42 0 0 0 1.415-1.585q.466-1.029.466-2.449 0-1.409-.46-2.426-.46-1.023-1.375-1.568-.915-.551-2.279-.551h-2.25z"/><path stroke="#fc0" d="M499 410h70" opacity=".9"/><path fill="#00c8ff" d="M507.295 420.864V432.5h-1.409v-10.159h-.068l-2.841 1.886v-1.432l2.909-1.931zm7.074 11.795q-1.17 0-2.068-.415-.893-.42-1.392-1.153a2.9 2.9 0 0 1-.494-1.682 3.1 3.1 0 0 1 1.096-2.415q.518-.426 1.154-.539v-.069q-.835-.216-1.33-.937a2.84 2.84 0 0 1-.488-1.654 2.8 2.8 0 0 1 .448-1.585q.455-.699 1.25-1.102.802-.403 1.824-.403 1.012 0 1.807.403t1.25 1.102q.46.7.466 1.585a2.9 2.9 0 0 1-.506 1.654 2.24 2.24 0 0 1-1.312.937v.069q.63.113 1.136.539.505.421.807 1.051.301.626.307 1.364a2.94 2.94 0 0 1-.512 1.682q-.5.733-1.392 1.153-.885.415-2.051.415m0-1.25q.79 0 1.364-.256.574-.255.886-.721t.319-1.091a2.1 2.1 0 0 0-.341-1.165 2.3 2.3 0 0 0-.915-.795 2.86 2.86 0 0 0-1.313-.29q-.744 0-1.329.29a2.3 2.3 0 0 0-.915.795 2.05 2.05 0 0 0-.324 1.165q-.006.625.301 1.091.313.466.892.721.58.256 1.375.256m0-5.523q.625 0 1.108-.25.49-.25.767-.698.28-.45.284-1.052a1.93 1.93 0 0 0-.278-1.028 1.8 1.8 0 0 0-.756-.682q-.483-.244-1.125-.244-.653 0-1.142.244a1.76 1.76 0 0 0-.755.682 1.9 1.9 0 0 0-.262 1.028q-.006.603.267 1.052.28.449.767.698.489.25 1.125.25m21.04 6.614v-11.636h3.932q1.363 0 2.239.466.875.46 1.295 1.267t.42 1.835-.42 1.824-1.29 1.25q-.869.449-2.221.449h-3.182v-1.273h3.136q.932 0 1.5-.273.574-.273.83-.773.261-.505.261-1.204t-.261-1.222a1.8 1.8 0 0 0-.836-.807q-.573-.29-1.517-.289h-2.477V432.5zm5.477-5.227 2.864 5.227h-1.636l-2.819-5.227zm5.439-6.409 3 4.841h.091l3-4.841h1.659l-3.659 5.818 3.659 5.818h-1.659l-3-4.75h-.091l-3 4.75h-1.659l3.75-5.818-3.75-5.818zM559.5 432.5h-3.591v-11.636h3.75q1.693 0 2.898.698 1.204.694 1.846 1.995.642 1.295.642 3.102 0 1.818-.647 3.131a4.6 4.6 0 0 1-1.887 2.011q-1.238.699-3.011.699m-2.182-1.25h2.091q1.443 0 2.392-.557a3.43 3.43 0 0 0 1.415-1.585q.466-1.029.466-2.449 0-1.409-.46-2.426a3.4 3.4 0 0 0-1.375-1.568q-.915-.551-2.279-.551h-2.25z"/><path stroke="#00c8ff" d="M499 437h70" opacity=".9"/><path stroke="#00ffd5" d="M519 454.5v-10h50m-50 10h-10m10 0h10m-17 3h14m-4 3h-6"/><path fill="#00ffd5" d="M531.682 459a2 2 0 0 0-.247-.514 1.6 1.6 0 0 0-.361-.392 1.5 1.5 0 0 0-.472-.247 1.9 1.9 0 0 0-.579-.086 1.73 1.73 0 0 0-.941.267 1.85 1.85 0 0 0-.673.787q-.25.52-.25 1.276t.253 1.275q.253.52.685.787.43.267.971.267.5 0 .881-.213.383-.216.596-.608.216-.394.216-.929l.216.046h-1.75v-.625h2.216v.625q0 .719-.307 1.25a2.1 2.1 0 0 1-.841.824q-.534.29-1.227.29-.773 0-1.358-.364a2.46 2.46 0 0 1-.909-1.034q-.324-.67-.324-1.591 0-.69.185-1.242.188-.553.528-.943.342-.389.807-.596a2.5 2.5 0 0 1 1.026-.208q.46 0 .858.139a2.3 2.3 0 0 1 1.238.989q.21.347.29.77zm6.581-1.818V463h-.681l-3.171-4.568h-.057V463h-.704v-5.818h.682l3.181 4.579h.057v-4.579zm3.206 5.818h-1.796v-5.818h1.875q.848 0 1.449.349.603.347.923.997.321.648.321 1.552 0 .909-.323 1.565a2.3 2.3 0 0 1-.944 1.006q-.618.35-1.505.349m-1.091-.625h1.045q.722 0 1.196-.278.475-.279.708-.793t.233-1.224q0-.705-.23-1.214a1.7 1.7 0 0 0-.688-.784q-.458-.275-1.139-.275h-1.125z"/><path fill="#fc0" d="M722.364 382a4 4 0 0 0-.495-1.028 3.1 3.1 0 0 0-.721-.784 3 3 0 0 0-.943-.495 3.8 3.8 0 0 0-1.16-.17q-1.034 0-1.88.534-.847.534-1.347 1.574t-.5 2.551.506 2.551 1.369 1.574a3.6 3.6 0 0 0 1.943.534q1 0 1.762-.426a3 3 0 0 0 1.193-1.216q.432-.79.432-1.858l.432.091h-3.5v-1.25h4.431v1.25q0 1.437-.613 2.5a4.25 4.25 0 0 1-1.682 1.648q-1.068.579-2.455.579-1.545 0-2.716-.727-1.164-.727-1.818-2.068-.648-1.341-.647-3.182 0-1.381.369-2.483.375-1.108 1.057-1.887a4.6 4.6 0 0 1 1.613-1.193 5 5 0 0 1 2.051-.414q.921 0 1.716.278a4.6 4.6 0 0 1 1.427.778q.63.5 1.051 1.199.42.693.579 1.54zm13.163-3.636V390h-1.364l-6.341-9.136h-.113V390H726.3v-11.636h1.363l6.364 9.159h.114v-9.159zM741.938 390h-3.591v-11.636h3.75q1.692 0 2.897.698 1.205.694 1.847 1.995.642 1.295.642 3.102 0 1.818-.648 3.131a4.6 4.6 0 0 1-1.886 2.011q-1.24.699-3.011.699m-2.182-1.25h2.091q1.443 0 2.392-.557a3.43 3.43 0 0 0 1.414-1.585q.466-1.029.466-2.449 0-1.409-.46-2.426-.46-1.023-1.375-1.568-.915-.551-2.278-.551h-2.25zm34.539-10.386V390h-1.409v-10.159h-.068l-2.841 1.886v-1.432l2.909-1.931z"/><path stroke="#fc0" d="M710 394.5h70" opacity=".9"/><path fill="#00c8ff" d="M718 417h-3.591v-11.636h3.75q1.693 0 2.898.698 1.204.694 1.846 1.995.642 1.295.642 3.102 0 1.818-.647 3.131a4.6 4.6 0 0 1-1.887 2.011Q719.773 417 718 417m-2.182-1.25h2.091q1.443 0 2.392-.557a3.43 3.43 0 0 0 1.415-1.585q.466-1.029.466-2.449 0-1.409-.46-2.426a3.4 3.4 0 0 0-1.375-1.568q-.915-.551-2.279-.551h-2.25zm14.909-5.193v1.25h-5.091v-1.25zM768.205 417v-1.023l3.84-4.204q.676-.74 1.114-1.284a4.8 4.8 0 0 0 .648-1.034q.216-.489.216-1.023 0-.613-.296-1.063a1.9 1.9 0 0 0-.795-.693 2.6 2.6 0 0 0-1.137-.244q-.67 0-1.17.278a1.9 1.9 0 0 0-.767.767q-.267.495-.267 1.159h-1.341q0-1.022.472-1.795a3.3 3.3 0 0 1 1.284-1.205q.818-.431 1.835-.431 1.023 0 1.812.431.79.432 1.239 1.165t.449 1.631q0 .641-.233 1.256-.228.607-.796 1.357-.561.745-1.562 1.819l-2.614 2.795v.091h5.409V417z"/><path stroke="#00c8ff" d="M710 421.5h70" opacity=".9"/><path fill="red" d="M718 444h-3.591v-11.636h3.75q1.693 0 2.898.698 1.204.694 1.846 1.995.642 1.295.642 3.102 0 1.818-.647 3.131a4.6 4.6 0 0 1-1.887 2.011Q719.773 444 718 444m-2.182-1.25h2.091q1.443 0 2.392-.557a3.43 3.43 0 0 0 1.415-1.585q.466-1.029.466-2.449 0-1.409-.46-2.426a3.4 3.4 0 0 0-1.375-1.568q-.915-.551-2.279-.551h-2.25zm13.318-.795v-7.5h1.273v7.5zm-3.113-3.114v-1.273h7.5v1.273zm45.113 5.318q-1.125 0-2.005-.386-.876-.387-1.392-1.074a2.9 2.9 0 0 1-.557-1.608h1.432q.045.563.386.971.341.404.892.626.551.22 1.222.221.75 0 1.329-.261.58-.262.909-.728t.33-1.079q0-.642-.318-1.131-.318-.494-.932-.772-.614-.279-1.5-.279H770v-1.25h.932q.693 0 1.216-.25.528-.25.824-.704.3-.455.301-1.069a1.96 1.96 0 0 0-.262-1.028 1.8 1.8 0 0 0-.738-.682q-.472-.244-1.114-.244-.602 0-1.136.221-.529.216-.864.631a1.65 1.65 0 0 0-.364.989h-1.363q.034-.915.551-1.603a3.46 3.46 0 0 1 1.352-1.079 4.4 4.4 0 0 1 1.847-.386q1.08 0 1.852.437a3.1 3.1 0 0 1 1.188 1.142q.414.71.414 1.534 0 .983-.517 1.676a2.62 2.62 0 0 1-1.392.961v.09q1.102.183 1.722.938.62.75.619 1.858 0 .949-.517 1.704-.511.75-1.398 1.182t-2.017.432"/><path stroke="red" d="M710 448.5h70" opacity=".9"/><path stroke="#fff" d="M569.5 379.5h141v76h-141z"/><path fill="#707070" d="M591.114 418.5v-17.455h5.897q2.046 0 3.358.699 1.313.691 1.943 1.901t.631 2.753-.631 2.736q-.63 1.192-1.934 1.875-1.304.673-3.333.673h-4.772v-1.909h4.704q1.398 0 2.25-.409.861-.41 1.245-1.159.392-.759.392-1.807t-.392-1.833q-.392-.784-1.253-1.21-.861-.435-2.276-.435h-3.716v15.58zm8.216-7.841 4.295 7.841h-2.455l-4.227-7.841zm16.681-5.25q-.154-1.296-1.245-2.011-1.09-.716-2.676-.716-1.16 0-2.028.375-.861.375-1.347 1.031a2.48 2.48 0 0 0-.477 1.492q0 .698.332 1.201.341.495.87.827.528.324 1.108.537.579.204 1.065.332l1.773.478q.681.179 1.517.494a7 7 0 0 1 1.61.861q.777.537 1.279 1.38.503.844.503 2.071 0 1.416-.742 2.557-.732 1.143-2.147 1.816-1.407.673-3.418.673-1.875 0-3.247-.605-1.363-.606-2.148-1.688-.776-1.082-.878-2.514h2.182q.085.989.665 1.636.588.64 1.483.955.903.306 1.943.307 1.21 0 2.173-.392.963-.401 1.526-1.108a2.63 2.63 0 0 0 .562-1.671q0-.869-.486-1.415-.485-.545-1.278-.886a13 13 0 0 0-1.713-.596l-2.148-.614q-2.045-.588-3.238-1.679-1.194-1.09-1.194-2.855 0-1.466.793-2.557.801-1.1 2.148-1.705 1.355-.613 3.025-.613 1.688 0 3 .605 1.313.597 2.08 1.636.776 1.04.818 2.361zm5.043 9.511v-1.738l7.67-12.137h1.262v2.694h-.852l-5.796 9.17v.136h10.33v1.875zm8.216 3.58v-17.455h2.011V418.5zm13.182.239q-1.755 0-3.102-.623-1.338-.63-2.088-1.73-.75-1.107-.741-2.522a4.64 4.64 0 0 1 .434-2.046 4.5 4.5 0 0 1 1.21-1.577 3.7 3.7 0 0 1 1.731-.809v-.102a3.37 3.37 0 0 1-1.995-1.407q-.74-1.09-.733-2.48-.008-1.33.674-2.378.681-1.049 1.875-1.653 1.202-.605 2.735-.605 1.517 0 2.711.605 1.192.604 1.875 1.653.69 1.049.699 2.378-.009 1.39-.759 2.48-.741 1.083-1.969 1.407v.102a3.6 3.6 0 0 1 1.705.809 4.6 4.6 0 0 1 1.21 1.577 4.7 4.7 0 0 1 .46 2.046q-.008 1.415-.767 2.522-.75 1.1-2.088 1.73-1.33.623-3.077.623m0-1.875q1.185 0 2.046-.384t1.329-1.082q.47-.7.478-1.637-.009-.988-.512-1.747a3.47 3.47 0 0 0-1.372-1.193q-.86-.435-1.969-.435-1.116 0-1.994.435a3.5 3.5 0 0 0-1.372 1.193q-.495.759-.486 1.747-.009.938.452 1.637.468.698 1.338 1.082.869.384 2.062.384m0-8.284q.938 0 1.662-.375.734-.375 1.151-1.049t.426-1.576q-.009-.887-.418-1.543a2.7 2.7 0 0 0-1.133-1.023q-.725-.366-1.688-.366-.98 0-1.713.366-.732.358-1.133 1.023-.4.656-.392 1.543-.008.903.4 1.576.418.674 1.151 1.049t1.687.375m14.653 10.159q-1.5 0-2.702-.597a5 5 0 0 1-1.926-1.636 4.46 4.46 0 0 1-.792-2.37h2.045q.12 1.185 1.074 1.961.963.767 2.301.767 1.074 0 1.909-.503a3.55 3.55 0 0 0 1.321-1.381q.486-.886.486-2.003 0-1.142-.503-2.037a3.7 3.7 0 0 0-1.363-1.423q-.87-.52-1.986-.528a5.4 5.4 0 0 0-1.645.247q-.845.247-1.389.639l-1.978-.239 1.057-8.591h9.068v1.875h-7.295l-.614 5.148h.103q.537-.426 1.346-.707a5.1 5.1 0 0 1 1.688-.281q1.602 0 2.855.767a5.35 5.35 0 0 1 1.977 2.079q.724 1.321.724 3.017 0 1.67-.75 2.983a5.5 5.5 0 0 1-2.045 2.063q-1.304.75-2.966.75m22.102-18.512-5.625 20.898h-1.841l5.625-20.898zm8.486.818V418.5h-2.113v-15.239h-.103l-4.261 2.83v-2.148l4.364-2.898zm-74.363 28.91a1.34 1.34 0 0 0-.623-1.006q-.545-.358-1.338-.358-.579 0-1.014.187a1.6 1.6 0 0 0-.673.516 1.24 1.24 0 0 0-.239.746q0 .35.166.601.171.246.435.413.264.162.554.268.29.103.533.167l.886.238q.34.09.759.247.421.159.805.431.388.269.639.69.252.422.252 1.036a2.3 2.3 0 0 1-.371 1.278q-.366.571-1.074.908-.703.336-1.709.336-.937 0-1.623-.302a2.6 2.6 0 0 1-1.074-.844 2.4 2.4 0 0 1-.439-1.257h1.091q.042.495.332.818.294.32.742.477.452.154.971.154.606 0 1.087-.196.481-.2.763-.554.28-.358.281-.835 0-.435-.243-.708a1.8 1.8 0 0 0-.639-.443 7 7 0 0 0-.857-.298l-1.074-.307q-1.022-.294-1.619-.84-.597-.545-.597-1.427 0-.733.397-1.279.4-.549 1.074-.852a3.6 3.6 0 0 1 1.512-.307q.845 0 1.5.303.657.299 1.04.818.388.52.409 1.181zm3.748 2.607v3.938h-1.005v-8.727h1.005v3.204h.086q.23-.507.69-.805.465-.303 1.236-.303.668 0 1.172.269.503.264.78.814.28.544.281 1.389v4.159h-1.006v-4.091q0-.78-.405-1.206-.4-.43-1.112-.43-.494 0-.886.209a1.5 1.5 0 0 0-.614.609q-.222.4-.222.971m8.744 4.074q-.887 0-1.556-.422a2.86 2.86 0 0 1-1.039-1.18q-.371-.759-.371-1.773 0-1.022.371-1.785.375-.764 1.039-1.185.67-.422 1.556-.422t1.551.422q.669.421 1.04 1.185.375.763.375 1.785 0 1.014-.375 1.773a2.83 2.83 0 0 1-1.04 1.18q-.665.423-1.551.422m0-.903q.673 0 1.108-.345.434-.345.643-.908a3.5 3.5 0 0 0 .209-1.219q0-.656-.209-1.223a2.07 2.07 0 0 0-.643-.916q-.435-.35-1.108-.349-.673 0-1.108.349-.434.35-.644.916a3.5 3.5 0 0 0-.208 1.223q0 .657.208 1.219.21.563.644.908t1.108.345m4.501.767v-6.545h.971v.988h.069q.179-.486.647-.788a1.9 1.9 0 0 1 1.057-.303 11 11 0 0 1 .529.017v1.023a4 4 0 0 0-.235-.038 2.3 2.3 0 0 0-.379-.03q-.477 0-.852.2a1.47 1.47 0 0 0-.802 1.334v4.142zm7.721-6.545v.852h-3.392v-.852zm-2.403-1.569h1.006v6.239q0 .426.123.639a.64.64 0 0 0 .324.281q.2.069.422.069.166 0 .273-.017l.17-.035.205.904a2.2 2.2 0 0 1-.75.119q-.426 0-.836-.183a1.66 1.66 0 0 1-.673-.558q-.264-.375-.264-.946zm6.59 8.25q-.947 0-1.632-.417a2.8 2.8 0 0 1-1.052-1.176q-.367-.759-.367-1.765t.367-1.772q.37-.772 1.031-1.202.665-.435 1.551-.435.511 0 1.01.171.498.17.908.554.409.38.652 1.005.242.627.242 1.543v.426h-5.045v-.869h4.023q0-.554-.222-.989a1.67 1.67 0 0 0-.622-.686 1.75 1.75 0 0 0-.946-.251q-.601 0-1.04.298a1.96 1.96 0 0 0-.669.767 2.25 2.25 0 0 0-.234 1.014v.58q0 .741.255 1.257.26.512.721.78.46.264 1.069.264.396 0 .716-.111.324-.115.558-.341a1.55 1.55 0 0 0 .363-.571l.971.273a2.16 2.16 0 0 1-.515.869 2.5 2.5 0 0 1-.895.58 3.3 3.3 0 0 1-1.198.204m6.712 0q-.819 0-1.445-.413-.626-.417-.98-1.176-.354-.763-.354-1.803 0-1.031.354-1.789.354-.76.984-1.172.631-.414 1.458-.414.64 0 1.01.213.375.21.571.478.2.264.311.434h.085v-3.221h1.006v8.727h-.972v-1.006h-.119q-.111.18-.315.452-.205.269-.584.482-.38.208-1.01.208m.136-.903q.606 0 1.023-.315.417-.32.635-.882.217-.567.217-1.309 0-.732-.213-1.282-.213-.555-.631-.861-.417-.312-1.031-.311-.639 0-1.065.328-.422.324-.635.882a3.5 3.5 0 0 0-.209 1.244q0 .699.213 1.27.217.567.639.904.426.332 1.057.332m8.357.767v-8.727h2.949q1.022 0 1.679.349.656.345.971.95.315.606.315 1.377t-.315 1.368-.967.937q-.652.337-1.666.337h-2.387v-.955h2.353q.698 0 1.125-.204a1.3 1.3 0 0 0 .622-.58q.196-.38.196-.903 0-.525-.196-.916a1.34 1.34 0 0 0-.627-.605q-.43-.218-1.138-.218h-1.857v7.79zm4.108-3.92 2.147 3.92h-1.227l-2.114-3.92zm6.261 4.039q-.963 0-1.641-.524-.678-.528-1.035-1.53-.358-1.005-.358-2.429 0-1.414.358-2.416.362-1.005 1.039-1.534.682-.533 1.637-.533.954 0 1.632.533.681.528 1.04 1.534.362 1.002.362 2.416 0 1.424-.358 2.429-.358 1.002-1.036 1.53-.677.524-1.64.524m0-.937q.954 0 1.483-.921.528-.92.528-2.625 0-1.133-.243-1.93-.239-.796-.69-1.215a1.53 1.53 0 0 0-1.078-.417q-.947 0-1.479.933-.533.929-.533 2.629 0 1.134.239 1.926.239.793.686 1.206.451.414 1.087.414"/><path fill="#fc0" d="M795.4 420.75c0-1.826-1.474-3.3-3.3-3.3a3.296 3.296 0 0 0-3.3 3.3c0 1.826 1.474 3.3 3.3 3.3s3.3-1.474 3.3-3.3"/><path fill="#00c8ff" d="M815.2 420.75c0-1.826-1.474-3.3-3.3-3.3a3.296 3.296 0 0 0-3.3 3.3c0 1.826 1.474 3.3 3.3 3.3s3.3-1.474 3.3-3.3"/><path fill="#fff" fill-rule="evenodd" d="M819.6 420.75c0-9.702-7.898-17.6-17.6-17.6s-17.6 7.898-17.6 17.6 7.898 17.6 17.6 17.6 17.6-7.898 17.6-17.6m-39.6 0c0-12.1 9.9-22 22-22s22 9.9 22 22-9.9 22-22 22-22-9.9-22-22" clip-rule="evenodd"/><path fill="red" d="M805.3 430.65c0-1.826-1.474-3.3-3.3-3.3a3.296 3.296 0 0 0-3.3 3.3c0 1.826 1.474 3.3 3.3 3.3s3.3-1.474 3.3-3.3"/><path stroke="#fff" stroke-width="2" d="M780 394v55"/><path fill="#707070" d="M792.522 459.077h-3.591v-11.636h3.75q1.694 0 2.898.699 1.204.693 1.847 1.994.642 1.296.642 3.102 0 1.818-.648 3.131a4.6 4.6 0 0 1-1.887 2.011q-1.238.699-3.011.699m-2.182-1.25h2.091q1.444 0 2.392-.557a3.43 3.43 0 0 0 1.415-1.585q.466-1.028.466-2.449 0-1.409-.46-2.426a3.4 3.4 0 0 0-1.375-1.568q-.915-.55-2.279-.551h-2.25zm10.091-10.386h1.682l3.955 9.659h.136l3.954-9.659h1.682v11.636h-1.318v-8.841h-.114l-3.636 8.841h-1.273l-3.636-8.841h-.114v8.841h-1.318zm14.916 0 3 4.841h.091l3-4.841h1.659l-3.659 5.818 3.659 5.818h-1.659l-3-4.75h-.091l-3 4.75h-1.659l3.75-5.818-3.75-5.818zm17.971 0v11.636h-1.41v-10.159h-.068l-2.841 1.886v-1.431l2.909-1.932zm-42.978 19v11.636h-1.409v-11.636zm3.985 6.386v5.25h-1.341v-8.727h1.295v1.364h.114q.306-.666.932-1.069.624-.409 1.613-.409.886 0 1.551.364.665.358 1.035 1.091.369.727.369 1.841v5.545h-1.341v-5.454q0-1.029-.534-1.603-.534-.579-1.466-.579-.642 0-1.148.278a2 2 0 0 0-.79.813q-.29.534-.289 1.295m8.018 8.523v-12h1.296v1.386h.159q.148-.226.409-.579.267-.358.761-.637.5-.284 1.352-.284 1.102 0 1.944.551.84.552 1.312 1.563t.472 2.386q0 1.387-.472 2.404-.471 1.011-1.307 1.568-.835.55-1.926.551-.84 0-1.346-.278-.506-.285-.779-.642a9 9 0 0 1-.42-.603h-.114v4.614zm1.318-7.636q0 .988.29 1.744.29.75.847 1.176.556.42 1.363.42.841 0 1.404-.443.568-.448.852-1.204.29-.762.29-1.693 0-.92-.284-1.66-.279-.744-.847-1.176-.563-.437-1.415-.437-.817 0-1.375.415-.556.409-.841 1.147-.284.733-.284 1.711m13.932.795v-5.159h1.341v8.727h-1.341V476.6h-.091q-.307.664-.954 1.131-.648.46-1.637.46-.818 0-1.454-.358-.636-.364-1-1.091-.364-.733-.364-1.847v-5.545h1.341v5.454q0 .955.534 1.523.54.568 1.375.568a2.3 2.3 0 0 0 1.017-.255 2.2 2.2 0 0 0 .875-.784q.358-.53.358-1.347m7.592-5.159v1.136h-4.522v-1.136zm-3.204-2.091h1.341v8.318q0 .568.165.852a.85.85 0 0 0 .431.375q.267.091.563.091.222 0 .364-.022l.227-.046.273 1.205a3 3 0 0 1-.381.102 2.8 2.8 0 0 1-.619.057q-.568 0-1.114-.244a2.2 2.2 0 0 1-.898-.745q-.352-.5-.352-1.261z"/><path stroke="#00ffd5" d="M264.5 177v-10l-8.5 5-8.5 5 8.5 5 8.5 5zm0 0h10v-50"/><path fill="#00ffd5" d="M252.58 170.58q0 .5-.199.9a1.7 1.7 0 0 1-.546.642 1.5 1.5 0 0 1-.79.264v-.681a.94.94 0 0 0 .654-.358q.255-.321.256-.767a1.19 1.19 0 0 0-.628-1.077 1.4 1.4 0 0 0-.668-.162q-.38 0-.679.168a1.2 1.2 0 0 0-.474.454 1.27 1.27 0 0 0-.176.662q-.003.267.082.548.083.282.213.463l-.08.659-2.863-.352v-3.023h.625v2.432l1.716.205v-.034a1.5 1.5 0 0 1-.236-.449 1.7 1.7 0 0 1-.094-.563q0-.534.256-.951.252-.421.693-.659a2.06 2.06 0 0 1 1.006-.242q.556 0 .994.25.435.247.688.682.25.434.25.989m-5.898-3.39 4.898-1.728v-.068l-4.898-1.727v-.739l5.818 2.137v.727l-5.818 2.136z"/><path fill="#fc0" d="M296.659 201.864q0 1.125-.386 2.005-.387.876-1.074 1.392a2.9 2.9 0 0 1-1.608.557v-1.432q.563-.045.971-.386.404-.341.626-.892.22-.551.221-1.222 0-.75-.261-1.329a2.2 2.2 0 0 0-.728-.909q-.465-.33-1.079-.33-.642 0-1.131.318-.494.318-.772.932-.279.614-.279 1.5V203h-1.25v-.932q0-.693-.25-1.216a1.96 1.96 0 0 0-.704-.824q-.455-.3-1.069-.301a1.96 1.96 0 0 0-1.028.262q-.438.261-.682.738-.244.472-.244 1.114 0 .602.221 1.136.216.529.631.864.409.335.989.364v1.363a2.77 2.77 0 0 1-1.603-.551 3.46 3.46 0 0 1-1.079-1.352 4.4 4.4 0 0 1-.386-1.847q0-1.08.437-1.852a3.1 3.1 0 0 1 1.142-1.188 3 3 0 0 1 1.534-.414q.983 0 1.676.517.693.512.961 1.392h.09q.183-1.102.938-1.722.75-.62 1.858-.619.949 0 1.704.517.75.512 1.182 1.398t.432 2.017m0-9.892q0 1-.398 1.801a3.34 3.34 0 0 1-1.091 1.284 2.97 2.97 0 0 1-1.579.528v-1.363a1.87 1.87 0 0 0 1.307-.716q.511-.642.511-1.534 0-.717-.335-1.273a2.37 2.37 0 0 0-.921-.881 2.73 2.73 0 0 0-1.335-.324q-.76 0-1.358.336a2.45 2.45 0 0 0-.949.909 2.57 2.57 0 0 0-.352 1.323q-.006.535.165 1.097.165.563.426.926l-.159 1.318-5.727-.704v-6.046h1.25v4.864l3.431.409v-.068a3 3 0 0 1-.471-.898 3.4 3.4 0 0 1-.188-1.125q0-1.068.512-1.903.505-.841 1.386-1.318.881-.483 2.011-.483 1.114 0 1.989.5a3.65 3.65 0 0 1 1.375 1.363q.5.87.5 1.978m-11.795-22.381v-1.682l9.659-3.954v-.137l-9.659-3.954v-1.682H296.5v1.318h-8.841v.114l8.841 3.636v1.273l-8.841 3.636v.114h8.841v1.318zm5.818-24.053q1.84 0 3.182.665 1.34.664 2.068 1.824.727 1.159.727 2.648 0 1.488-.727 2.647-.727 1.16-2.068 1.824t-3.182.665q-1.84 0-3.182-.665-1.34-.665-2.068-1.824-.727-1.159-.727-2.647 0-1.489.727-2.648t2.068-1.824 3.182-.665m0 1.364q-1.512 0-2.551.506-1.04.5-1.574 1.358a3.5 3.5 0 0 0-.534 1.909q0 1.057.534 1.914.534.853 1.574 1.358 1.04.5 2.551.5t2.551-.5q1.04-.505 1.574-1.358.534-.857.534-1.914a3.5 3.5 0 0 0-.534-1.909q-.534-.858-1.574-1.358-1.04-.506-2.551-.506m-2.909-10.097a1.79 1.79 0 0 0-1.341.83q-.477.727-.477 1.784 0 .773.25 1.352.249.574.687.898.438.318.994.318.466 0 .802-.221.329-.228.551-.58.216-.352.358-.739.135-.386.221-.71l.318-1.182q.12-.454.33-1.011.21-.562.574-1.074.357-.518.92-.852.562-.336 1.381-.335.943 0 1.704.494.762.489 1.211 1.432.449.937.449 2.278 0 1.25-.404 2.165-.403.909-1.125 1.432-.722.517-1.676.585v-1.455q.659-.056 1.091-.443.426-.392.636-.988.205-.603.205-1.296 0-.807-.262-1.449-.267-.642-.738-1.017a1.75 1.75 0 0 0-1.114-.375q-.58 0-.943.324a2.4 2.4 0 0 0-.591.852 9 9 0 0 0-.398 1.142l-.409 1.432q-.392 1.364-1.119 2.159-.727.796-1.903.796-.978 0-1.705-.529a3.5 3.5 0 0 1-1.136-1.431q-.41-.904-.409-2.017 0-1.125.403-2 .398-.876 1.091-1.387a2.72 2.72 0 0 1 1.574-.545zm-2.909-5.248H296.5v1.409h-11.636z"/><path stroke="#fc0" d="M301 210v-83" opacity=".9"/><path fill="#00c8ff" d="M323.659 201.864q0 1.125-.386 2.005-.387.876-1.074 1.392a2.9 2.9 0 0 1-1.608.557v-1.432q.563-.045.971-.386.404-.341.626-.892.22-.551.221-1.222 0-.75-.261-1.329a2.2 2.2 0 0 0-.728-.909q-.465-.33-1.079-.33-.642 0-1.131.318-.494.318-.772.932-.279.614-.279 1.5V203h-1.25v-.932q0-.693-.25-1.216a1.96 1.96 0 0 0-.704-.824q-.455-.3-1.069-.301a1.96 1.96 0 0 0-1.028.262q-.438.261-.682.738-.244.472-.244 1.114 0 .602.221 1.136.216.529.631.864.409.335.989.364v1.363a2.77 2.77 0 0 1-1.603-.551 3.46 3.46 0 0 1-1.079-1.352 4.4 4.4 0 0 1-.386-1.847q0-1.08.437-1.852a3.1 3.1 0 0 1 1.142-1.188 3 3 0 0 1 1.534-.414q.983 0 1.676.517.693.512.961 1.392h.09q.183-1.102.938-1.722.75-.62 1.858-.619.949 0 1.704.517.75.512 1.182 1.398t.432 2.017m-.159-6.62-10.295-5.204h-.091v6h-1.25v-7.455h1.318l10.318 5.182zm-11.636-25.653v-1.682l9.659-3.954v-.137l-9.659-3.954v-1.682H323.5v1.318h-8.841v.114l8.841 3.636v1.273l-8.841 3.636v.114h8.841v1.318zm0-15.644H323.5v1.41h-11.636zm2.909-9.188a1.78 1.78 0 0 0-1.341.829q-.477.728-.477 1.784 0 .773.25 1.352.249.574.687.898.438.318.994.318.466 0 .802-.221.329-.228.551-.58.216-.353.358-.738.135-.387.221-.711l.318-1.181q.12-.456.33-1.012.21-.562.574-1.074.357-.516.92-.852.562-.335 1.381-.335.943 0 1.704.494.762.489 1.211 1.432.449.937.449 2.278 0 1.25-.404 2.165-.403.909-1.125 1.432-.722.518-1.676.585v-1.454q.659-.057 1.091-.444.426-.391.636-.988.205-.603.205-1.296 0-.806-.262-1.449-.267-.642-.738-1.017a1.75 1.75 0 0 0-1.114-.375q-.58 0-.943.324t-.591.853a9 9 0 0 0-.398 1.142l-.409 1.431q-.392 1.364-1.119 2.16-.727.795-1.903.795-.978 0-1.705-.528a3.5 3.5 0 0 1-1.136-1.432q-.41-.904-.409-2.017 0-1.125.403-2 .398-.876 1.091-1.387a2.72 2.72 0 0 1 1.574-.545zm2.909-13.658q1.84 0 3.182.665 1.34.665 2.068 1.823.727 1.16.727 2.648t-.727 2.648-2.068 1.824-3.182.665-3.182-.665q-1.34-.664-2.068-1.824-.727-1.159-.727-2.648 0-1.488.727-2.648.727-1.158 2.068-1.823t3.182-.665m0 1.363q-1.512 0-2.551.506-1.04.5-1.574 1.358a3.5 3.5 0 0 0-.534 1.909q0 1.057.534 1.915.534.852 1.574 1.358 1.04.5 2.551.5t2.551-.5q1.04-.506 1.574-1.358a3.55 3.55 0 0 0 .534-1.915q0-1.056-.534-1.909-.534-.857-1.574-1.358-1.04-.506-2.551-.506"/><path stroke="#00c8ff" d="M328 210v-83" opacity=".9"/><path fill="red" d="M350.659 201.864q0 1.125-.386 2.005-.387.876-1.074 1.392a2.9 2.9 0 0 1-1.608.557v-1.432q.563-.045.971-.386.404-.341.626-.892.22-.551.221-1.222 0-.75-.261-1.329a2.2 2.2 0 0 0-.728-.909q-.465-.33-1.079-.33-.642 0-1.131.318-.494.318-.772.932-.279.614-.279 1.5V203h-1.25v-.932q0-.693-.25-1.216a1.96 1.96 0 0 0-.704-.824q-.455-.3-1.069-.301a1.96 1.96 0 0 0-1.028.262q-.438.261-.682.738-.244.472-.244 1.114 0 .602.221 1.136.216.529.631.864.409.335.989.364v1.363a2.77 2.77 0 0 1-1.603-.551 3.46 3.46 0 0 1-1.079-1.352 4.4 4.4 0 0 1-.386-1.847q0-1.08.437-1.852a3.1 3.1 0 0 1 1.142-1.188 3 3 0 0 1 1.534-.414q.983 0 1.676.517.693.512.961 1.392h.09q.183-1.102.938-1.722.75-.62 1.858-.619.949 0 1.704.517.75.512 1.182 1.398t.432 2.017m0-10.12a4.3 4.3 0 0 1-.273 1.432 3.4 3.4 0 0 1-.88 1.307q-.625.59-1.688.949-1.068.358-2.682.358-1.545 0-2.738-.29-1.2-.29-2.017-.841-.825-.551-1.25-1.329-.426-.784-.426-1.768 0-.977.392-1.738a3.3 3.3 0 0 1 1.079-1.25q.693-.483 1.597-.625v1.386a2.57 2.57 0 0 0-1.301.75q-.517.557-.517 1.477 0 1.353 1.176 2.131 1.176.773 3.301.779v-.091a3.4 3.4 0 0 1-1.546-2.864q0-1 .5-1.829.495-.83 1.37-1.33.869-.5 1.994-.5 1.08 0 1.977.483a3.7 3.7 0 0 1 1.421 1.358q.523.869.511 2.045m-1.25 0q0-.716-.358-1.284a2.6 2.6 0 0 0-.96-.903 2.7 2.7 0 0 0-1.341-.335 2.7 2.7 0 0 0-1.312.323 2.47 2.47 0 0 0-.949.881 2.33 2.33 0 0 0-.353 1.273q0 .54.216 1.006.21.465.58.818.369.347.846.545.472.2.995.199a2.69 2.69 0 0 0 2.267-1.222q.369-.573.369-1.301m-7.636-36.517a1.78 1.78 0 0 0-1.341.83q-.477.727-.477 1.784 0 .773.25 1.352.249.574.687.898.438.318.994.318.466 0 .802-.221.329-.228.551-.58.216-.352.358-.739.135-.386.221-.71l.318-1.182q.12-.454.33-1.011.21-.562.574-1.074.357-.517.92-.852.562-.335 1.381-.335.943 0 1.704.494.761.489 1.211 1.432.449.937.449 2.278 0 1.25-.404 2.165-.403.909-1.125 1.432a3.2 3.2 0 0 1-1.676.585v-1.455q.659-.056 1.091-.443.426-.392.636-.988.205-.603.205-1.296 0-.807-.262-1.449-.267-.642-.738-1.017a1.75 1.75 0 0 0-1.114-.375q-.58 0-.943.324a2.4 2.4 0 0 0-.591.852 9 9 0 0 0-.398 1.142l-.409 1.432q-.391 1.364-1.119 2.159-.727.796-1.903.796-.978 0-1.705-.529a3.5 3.5 0 0 1-1.136-1.432q-.41-.903-.409-2.017 0-1.124.403-2 .398-.874 1.091-1.386a2.7 2.7 0 0 1 1.574-.545zm.727-13.203v1.409a2.93 2.93 0 0 0-1.841 1.188 3.2 3.2 0 0 0-.477.971 3.9 3.9 0 0 0-.159 1.114q0 1.057.534 1.915.534.852 1.574 1.358 1.04.5 2.551.5t2.551-.5q1.04-.506 1.574-1.358a3.55 3.55 0 0 0 .534-1.915q0-.58-.159-1.114a3.2 3.2 0 0 0-.472-.971 2.97 2.97 0 0 0-1.846-1.188v-1.409a4.7 4.7 0 0 1 1.596.58q.705.42 1.199 1.045.489.625.744 1.404.256.772.256 1.653 0 1.488-.727 2.648-.727 1.158-2.068 1.824-1.341.664-3.182.664t-3.182-.664q-1.34-.666-2.068-1.824-.727-1.16-.727-2.648 0-.88.255-1.653.257-.779.75-1.404a4.3 4.3 0 0 1 1.193-1.045 4.6 4.6 0 0 1 1.597-.58m8-2.277h-11.636v-1.409h5.772v-.136l-5.772-5.228v-1.84l5.25 4.886 6.386-4.886v1.704l-5.409 4.046 1.636 1.454h3.773z"/><path stroke="red" d="M355 210v-83" opacity=".9"/><path fill="#ea00ff" d="M377.659 201.864q0 1.125-.386 2.005-.387.876-1.074 1.392a2.9 2.9 0 0 1-1.608.557v-1.432q.563-.045.971-.386.404-.341.626-.892.22-.551.221-1.222 0-.75-.261-1.329a2.2 2.2 0 0 0-.728-.909q-.465-.33-1.079-.33-.642 0-1.131.318-.494.318-.772.932-.279.614-.279 1.5V203h-1.25v-.932q0-.693-.25-1.216a1.96 1.96 0 0 0-.704-.824q-.455-.3-1.069-.301a1.96 1.96 0 0 0-1.028.262q-.438.261-.682.738-.244.472-.244 1.114 0 .602.221 1.136.216.529.631.864.409.335.989.364v1.363a2.77 2.77 0 0 1-1.603-.551 3.46 3.46 0 0 1-1.079-1.352 4.4 4.4 0 0 1-.386-1.847q0-1.08.437-1.852a3.1 3.1 0 0 1 1.142-1.188 3 3 0 0 1 1.534-.414q.983 0 1.676.517.693.512.961 1.392h.09q.183-1.102.938-1.722.75-.62 1.858-.619.949 0 1.704.517.75.512 1.182 1.398t.432 2.017m-2.545-5.983h-1.159l-8.091-5.114v-.841h1.795v.568l6.114 3.864h.091v-6.886h1.25zm2.386-5.478h-11.636v-1.341H377.5zm-8-49.176v1.409a2.95 2.95 0 0 0-1.841 1.188 3.2 3.2 0 0 0-.477.971 3.9 3.9 0 0 0-.159 1.114q0 1.057.534 1.915.534.852 1.574 1.358 1.04.5 2.551.5t2.551-.5q1.04-.506 1.574-1.358a3.55 3.55 0 0 0 .534-1.915q0-.579-.159-1.114a3.2 3.2 0 0 0-.472-.971 2.97 2.97 0 0 0-1.846-1.188v-1.409q.892.16 1.596.58t1.199 1.045q.489.626.744 1.404.256.773.256 1.653 0 1.489-.727 2.648t-2.068 1.824q-1.341.664-3.182.664t-3.182-.664q-1.34-.665-2.068-1.824-.727-1.159-.727-2.648 0-.88.255-1.653.257-.778.75-1.404a4.3 4.3 0 0 1 1.193-1.045q.7-.42 1.597-.58m-.727-8.64a1.78 1.78 0 0 0-1.341.829q-.477.728-.477 1.784 0 .772.25 1.353.249.573.687.897.438.318.994.318.466 0 .802-.221.329-.228.551-.58.216-.352.358-.738.135-.387.221-.711l.318-1.181q.12-.455.33-1.012.21-.562.574-1.074.357-.516.92-.852.562-.335 1.381-.335.943 0 1.704.494.761.489 1.211 1.432.449.938.449 2.278 0 1.25-.404 2.165-.403.91-1.125 1.432-.722.517-1.676.585v-1.454q.659-.057 1.091-.443.426-.392.636-.989.205-.602.205-1.296 0-.806-.262-1.448-.267-.642-.738-1.017a1.75 1.75 0 0 0-1.114-.375q-.58 0-.943.323-.363.324-.591.853a9 9 0 0 0-.398 1.142l-.409 1.432q-.391 1.363-1.119 2.159-.727.795-1.903.795-.978 0-1.705-.528a3.5 3.5 0 0 1-1.136-1.432q-.41-.904-.409-2.017 0-1.125.403-2 .398-.876 1.091-1.387a2.72 2.72 0 0 1 1.574-.545z"/><path stroke="#ea00ff" d="M382 210v-83" opacity=".9"/><path fill="#00ff2b" d="M404.659 201.864q0 1.125-.386 2.005-.387.876-1.074 1.392a2.9 2.9 0 0 1-1.608.557v-1.432q.563-.045.971-.386.404-.341.626-.892.22-.551.221-1.222 0-.75-.261-1.329a2.2 2.2 0 0 0-.728-.909q-.465-.33-1.079-.33-.642 0-1.131.318-.494.318-.772.932-.279.614-.279 1.5V203h-1.25v-.932q0-.693-.25-1.216a1.96 1.96 0 0 0-.704-.824q-.455-.3-1.069-.301a1.96 1.96 0 0 0-1.028.262q-.438.261-.682.738-.244.472-.244 1.114 0 .602.221 1.136.216.529.631.864.409.335.989.364v1.363a2.77 2.77 0 0 1-1.603-.551 3.46 3.46 0 0 1-1.079-1.352 4.4 4.4 0 0 1-.386-1.847q0-1.08.437-1.852a3.1 3.1 0 0 1 1.142-1.188 3 3 0 0 1 1.534-.414q.983 0 1.676.517.693.512.961 1.392h.09q.183-1.102.938-1.722.75-.62 1.858-.619.949 0 1.704.517.75.512 1.182 1.398t.432 2.017m0-9.983q0 1.17-.415 2.068-.42.892-1.153 1.392a2.9 2.9 0 0 1-1.682.494 3.1 3.1 0 0 1-2.415-1.096 2.47 2.47 0 0 1-.539-1.154h-.069q-.216.835-.937 1.33a2.84 2.84 0 0 1-1.654.488 2.8 2.8 0 0 1-1.585-.448 3.16 3.16 0 0 1-1.102-1.25q-.403-.803-.403-1.824 0-1.012.403-1.807t1.102-1.25a2.85 2.85 0 0 1 1.585-.466 2.9 2.9 0 0 1 1.654.506q.721.494.937 1.312h.069a2.4 2.4 0 0 1 .539-1.136 3.1 3.1 0 0 1 1.051-.807 3.2 3.2 0 0 1 1.364-.307 2.94 2.94 0 0 1 1.682.512q.733.5 1.153 1.392.415.885.415 2.051m-1.25 0q0-.79-.256-1.364a2.03 2.03 0 0 0-.721-.886 1.94 1.94 0 0 0-1.091-.319 2.1 2.1 0 0 0-1.165.341 2.3 2.3 0 0 0-.795.915q-.29.574-.29 1.313 0 .744.29 1.329.29.58.795.915.506.33 1.165.324.625.005 1.091-.301.466-.313.721-.892.256-.58.256-1.375m-5.523 0q0-.625-.25-1.108a1.9 1.9 0 0 0-.698-.767q-.45-.28-1.052-.284a1.93 1.93 0 0 0-1.028.278 1.8 1.8 0 0 0-.682.756q-.244.483-.244 1.125 0 .653.244 1.142.238.488.682.755.438.267 1.028.262.603.006 1.052-.267.449-.28.698-.767.25-.489.25-1.125m-5.022-37.699H404.5v1.409h-11.636zm0-12.053H404.5v1.364l-9.136 6.341v.113h9.136v1.41h-11.636v-1.364l9.159-6.364v-.113h-9.159zm1.25-2.183h-1.25v-8.727h1.25v3.659H404.5v1.409h-10.386z"/><path stroke="#00ff2b" d="M409 210v-83" opacity=".9"/><path stroke="#00ffd5" d="M426.5 177h-10v-50m10 50v10m0-10v-10m3 17v-14m3 4v6"/><path fill="#00ffd5" d="M431 164.318a2 2 0 0 0-.514.247 1.6 1.6 0 0 0-.392.361 1.5 1.5 0 0 0-.247.472 1.9 1.9 0 0 0-.086.579q0 .517.267.941t.787.673q.52.25 1.276.25t1.275-.253q.52-.252.787-.685.267-.43.267-.971 0-.5-.213-.881a1.5 1.5 0 0 0-.608-.596 1.9 1.9 0 0 0-.929-.216l.046-.216v1.75h-.625v-2.216h.625q.719 0 1.25.307.531.303.824.841.29.534.29 1.227 0 .773-.364 1.358a2.46 2.46 0 0 1-1.034.909q-.67.324-1.591.324-.69 0-1.242-.185a2.8 2.8 0 0 1-.943-.528 2.3 2.3 0 0 1-.596-.807 2.5 2.5 0 0 1-.208-1.026q0-.46.139-.858a2.3 2.3 0 0 1 .989-1.238q.347-.21.77-.29zm-1.818-6.581H435v.681l-4.568 3.171v.057H435v.704h-5.818v-.682l4.579-3.181v-.057h-4.579zm5.818-3.206v1.796h-5.818v-1.875q0-.847.349-1.449.347-.602.997-.923.648-.321 1.552-.321.909 0 1.565.323.653.324 1.006.944.35.618.349 1.505m-.625 1.091v-1.045q0-.722-.278-1.196a1.7 1.7 0 0 0-.793-.708q-.514-.233-1.224-.233-.705 0-1.214.23-.51.23-.784.688-.275.458-.275 1.139v1.125z"/><rect width="103" height="119" x="39" y="311" stroke="#707070" stroke-dasharray="2 6" stroke-linecap="round" stroke-linejoin="round" stroke-width="2" rx="13"/><path stroke="#fff" d="M125 386v-10H85v10m40 0v10H85v-10m40 0h5m-45 0h-5m-25 0 17-10v10m-17 0 17 10v-10m-17 0v-10m0 10v10m0-10h-5m22 0h5m-15.5-10h2m-2 0v2m0-2 3 3m-6.5-1h2m-2 0v2m0-2 3 3m16 5h3"/><path fill="#707070" d="M59 411h-3.59v-11.636h3.75q1.692 0 2.897.698 1.204.694 1.846 1.995.642 1.295.643 3.102 0 1.818-.648 3.131a4.6 4.6 0 0 1-1.887 2.011Q60.773 411 59 411m-2.182-1.25h2.091q1.443 0 2.392-.557a3.43 3.43 0 0 0 1.415-1.585q.465-1.029.466-2.449 0-1.409-.46-2.426-.461-1.023-1.375-1.568-.915-.551-2.279-.551h-2.25zm13.978-10.386V411h-1.41v-10.159h-.068l-2.84 1.886v-1.432l2.908-1.931zM97.41 411v-11.636h3.931q1.363 0 2.239.466.875.46 1.295 1.267t.42 1.835-.42 1.824-1.29 1.25q-.869.449-2.221.449h-3.182v-1.273h3.136q.932 0 1.5-.273.574-.273.83-.773.261-.505.261-1.204t-.261-1.222a1.8 1.8 0 0 0-.836-.807q-.573-.29-1.517-.289h-2.477V411zm5.476-5.227L105.75 411h-1.636l-2.819-5.227zm8.644-6.409V411h-1.409v-10.159h-.068l-2.841 1.886v-1.432l2.909-1.931zM82.41 346v-11.636h4.067q1.216 0 2.006.42.789.415 1.176 1.119.386.699.386 1.552 0 .75-.267 1.238a2.1 2.1 0 0 1-.693.773 3.2 3.2 0 0 1-.926.42V340q.534.035 1.074.375t.903.977.364 1.557q0 .875-.398 1.574-.397.699-1.255 1.108t-2.233.409zm1.408-1.25h2.796q1.38 0 1.96-.534.585-.54.585-1.307 0-.59-.301-1.091a2.2 2.2 0 0 0-.858-.807q-.556-.306-1.318-.306h-2.864zm0-5.273h2.614q.637 0 1.147-.25a2 2 0 0 0 .819-.704q.306-.454.306-1.068 0-.768-.533-1.302-.535-.539-1.694-.539h-2.659zm12.884-5.113V346h-1.41v-10.159h-.068l-2.84 1.886v-1.432l2.909-1.931z"/><path stroke="#fff" d="M55 336a7.5 7.5 0 1 0 15 0 7.5 7.5 0 0 0-15 0Zm0 0h-5m75 0a7.5 7.5 0 1 1-15 0 7.5 7.5 0 0 1 15 0Zm0 0h5m-72.5-11.5H90m32.5 0H90m0 0V319m0 0h-5m5 0h5"/><path fill="#00ffd5" d="m155 208-5-8.5-5 8.5z"/><path stroke="#00ffd5" d="M150 216.5h10l-5-8.5m-5 8.5h-10l5-8.5m5 8.5v10h50M155 208l-5-8.5-5 8.5m10 0h-10"/><path fill="#00ffd5" d="M156.568 204.58q-.562 0-1.003-.194a1.7 1.7 0 0 1-.696-.537 1.45 1.45 0 0 1-.278-.804h.716a.84.84 0 0 0 .193.486q.17.202.446.313.275.111.611.111.374 0 .665-.131.29-.13.454-.364a.9.9 0 0 0 .165-.54q0-.32-.159-.565a1.06 1.06 0 0 0-.466-.386 1.8 1.8 0 0 0-.75-.139H156v-.625h.466q.347 0 .608-.125a.945.945 0 0 0 .562-.887 1 1 0 0 0-.13-.514.9.9 0 0 0-.37-.341 1.2 1.2 0 0 0-.556-.122q-.302 0-.569.111-.264.108-.431.315a.8.8 0 0 0-.182.494h-.682q.017-.458.275-.801a1.74 1.74 0 0 1 .677-.54q.42-.192.923-.193.54 0 .926.219.387.216.594.571t.207.767q0 .492-.258.838a1.3 1.3 0 0 1-.696.48v.046q.55.09.86.468.31.375.31.929 0 .475-.258.853-.256.375-.699.591a2.3 2.3 0 0 1-1.009.216m3.96-.875-.046.306a6 6 0 0 1-.147.694 14 14 0 0 1-.202.696q-.105.326-.173.519h-.512l.097-.48a19 19 0 0 0 .221-1.417l.034-.318zm2.978.875q-.563 0-1.003-.194a1.7 1.7 0 0 1-.696-.537 1.45 1.45 0 0 1-.279-.804h.716q.023.282.194.486.17.202.446.313.275.111.61.111.375 0 .665-.131a1.1 1.1 0 0 0 .455-.364.9.9 0 0 0 .164-.54q0-.32-.159-.565a1.05 1.05 0 0 0-.466-.386 1.8 1.8 0 0 0-.75-.139h-.465v-.625h.465q.347 0 .608-.125a.97.97 0 0 0 .412-.353.94.94 0 0 0 .151-.534 1 1 0 0 0-.131-.514.9.9 0 0 0-.369-.341 1.2 1.2 0 0 0-.557-.122q-.301 0-.568.111-.264.108-.432.315a.82.82 0 0 0-.182.494h-.682q.018-.458.276-.801.258-.347.676-.54.42-.192.923-.193.54 0 .927.219.386.216.593.571.208.355.208.767 0 .492-.259.838-.255.346-.696.48v.046q.551.09.861.468.31.375.31.929 0 .475-.259.853a1.75 1.75 0 0 1-.699.591 2.3 2.3 0 0 1-1.008.216m3.468-5.898 1.728 4.898h.068l1.727-4.898h.739l-2.137 5.818h-.727l-2.136-5.818z"/><path stroke="#00ffd5" d="M150 276.5h10l-5-8.5-5-8.5-5 8.5-5 8.5zm0 0v10h50"/><path fill="#00ffd5" d="M156.42 264.58q-.5 0-.9-.199a1.7 1.7 0 0 1-.642-.546 1.5 1.5 0 0 1-.264-.79h.681a.94.94 0 0 0 .358.654q.321.256.767.256.358 0 .637-.168.28-.168.44-.46.162-.296.162-.668 0-.38-.168-.679a1.2 1.2 0 0 0-.454-.474 1.27 1.27 0 0 0-.662-.176 1.8 1.8 0 0 0-.548.082 1.5 1.5 0 0 0-.463.213l-.659-.08.352-2.863h3.023v.625h-2.432l-.205 1.716h.034q.18-.143.449-.236.27-.094.563-.094.534 0 .951.256.421.252.659.693.242.44.242 1.006 0 .556-.25.994a1.83 1.83 0 0 1-.682.688q-.434.25-.989.25m3.39-5.898 1.728 4.898h.068l1.727-4.898h.739l-2.137 5.818h-.727l-2.136-5.818z"/><path fill="#fc0" d="M191.841 331.659q-1 0-1.801-.398a3.34 3.34 0 0 1-1.284-1.091 3 3 0 0 1-.529-1.579h1.364q.08.79.716 1.307.642.511 1.534.511.715 0 1.273-.335.562-.335.88-.921a2.73 2.73 0 0 0 .324-1.335q0-.76-.335-1.358a2.47 2.47 0 0 0-.909-.949 2.57 2.57 0 0 0-1.324-.352 3.6 3.6 0 0 0-1.097.165q-.562.165-.926.426l-1.318-.159.705-5.727h6.045v1.25h-4.864l-.409 3.431h.069q.357-.284.897-.471.54-.188 1.125-.188 1.068 0 1.904.512.84.505 1.318 1.386.483.881.483 2.011 0 1.114-.5 1.989a3.65 3.65 0 0 1-1.364 1.375q-.869.5-1.977.5"/><path stroke="#fc0" d="M130 336h70" opacity=".9"/><path fill="#00c8ff" d="m188.568 381.5 5.205-10.295v-.091h-6v-1.25h7.454v1.318l-5.182 10.318z"/><path stroke="#00c8ff" d="M130 386h70" opacity=".9"/><path stroke="#00ffd5" d="M150 426.5v-10h50m-50 10h-10m10 0h10m-17 3h14m-4 3h-6"/><path fill="#00ffd5" d="M162.682 431a2 2 0 0 0-.247-.514 1.6 1.6 0 0 0-.361-.392 1.5 1.5 0 0 0-.472-.247 1.9 1.9 0 0 0-.579-.086 1.73 1.73 0 0 0-.941.267 1.85 1.85 0 0 0-.673.787q-.25.52-.25 1.276t.253 1.275q.252.52.685.787.43.267.971.267.5 0 .881-.213.383-.216.596-.608.216-.394.216-.929l.216.046h-1.75v-.625h2.216v.625q0 .719-.307 1.25a2.1 2.1 0 0 1-.841.824q-.534.29-1.227.29-.773 0-1.358-.364a2.46 2.46 0 0 1-.909-1.034q-.324-.67-.324-1.591 0-.69.185-1.242.187-.553.528-.943.342-.389.807-.596a2.5 2.5 0 0 1 1.026-.208q.46 0 .858.139a2.3 2.3 0 0 1 1.238.989q.21.347.29.77zm6.581-1.818V435h-.681l-3.171-4.568h-.057V435h-.704v-5.818h.682l3.181 4.579h.057v-4.579zm3.206 5.818h-1.796v-5.818h1.875q.847 0 1.449.349.602.347.923.997.321.648.321 1.552 0 .909-.323 1.565a2.3 2.3 0 0 1-.944 1.006q-.618.35-1.505.349m-1.091-.625h1.045q.722 0 1.196-.278.475-.279.708-.793t.233-1.224q0-.705-.23-1.214a1.7 1.7 0 0 0-.688-.784q-.458-.275-1.139-.275h-1.125z"/><path stroke="#00ffd5" d="M50 335.5v81h100"/><path stroke="#fff" stroke-linecap="round" d="M345.002 523.127h10.006m-13.008 0c0-.829.316-1.625.879-2.211a2.94 2.94 0 0 1 2.123-.916h10.006c.796 0 1.56.329 2.122.916.563.586.88 1.382.88 2.211s-.317 1.625-.88 2.211a2.94 2.94 0 0 1-2.122.916h-10.006c-.796 0-1.56-.33-2.123-.916a3.2 3.2 0 0 1-.879-2.211Z"/><path fill="#707070" d="M310.256 535.545h2.113v11.557q0 1.79-.843 3.196-.836 1.398-2.361 2.208-1.525.801-3.58.801-2.054 0-3.579-.801-1.526-.81-2.37-2.208-.834-1.406-.835-3.196v-11.557h2.114v11.387q0 1.278.562 2.275a4.03 4.03 0 0 0 1.603 1.56q1.048.563 2.505.563 1.458 0 2.506-.563a3.96 3.96 0 0 0 1.602-1.56q.563-.997.563-2.275zm15.88 4.364q-.154-1.296-1.245-2.011-1.09-.716-2.676-.716-1.16 0-2.028.375-.861.375-1.347 1.031a2.48 2.48 0 0 0-.477 1.492q0 .698.332 1.201.341.495.87.827.528.324 1.108.537.579.204 1.065.332l1.773.478q.681.179 1.517.494a7 7 0 0 1 1.61.861q.777.537 1.279 1.38.503.844.503 2.071 0 1.416-.742 2.557-.732 1.143-2.147 1.816-1.407.673-3.418.673-1.875 0-3.247-.605-1.363-.606-2.148-1.688-.776-1.082-.878-2.514h2.182q.085.989.665 1.636.588.64 1.483.955.903.306 1.943.307 1.21 0 2.173-.392.963-.401 1.526-1.108a2.63 2.63 0 0 0 .562-1.671q0-.869-.486-1.415-.485-.545-1.278-.886a13 13 0 0 0-1.713-.596l-2.148-.614q-2.045-.588-3.238-1.679-1.194-1.09-1.194-2.855 0-1.466.793-2.557.801-1.1 2.148-1.705 1.355-.613 3.025-.613 1.688 0 3 .605 1.313.597 2.08 1.636.776 1.04.818 2.361zM331.895 553v-17.455h6.102q1.824 0 3.009.631 1.184.623 1.764 1.679.579 1.049.579 2.327 0 1.125-.4 1.858a3.1 3.1 0 0 1-1.04 1.159 4.8 4.8 0 0 1-1.389.631v.17q.801.051 1.611.562.809.512 1.355 1.466.545.955.545 2.336 0 1.313-.596 2.36-.597 1.048-1.884 1.662t-3.349.614zm2.114-1.875h4.193q2.07 0 2.94-.801.878-.81.878-1.96 0-.887-.452-1.637a3.27 3.27 0 0 0-1.287-1.21q-.836-.46-1.977-.46h-4.295zm0-7.909h3.92q.954 0 1.722-.375.776-.375 1.227-1.057.46-.682.46-1.602 0-1.15-.801-1.952-.801-.81-2.54-.81h-3.988zm20.723.119v1.875h-7.637v-1.875zm3.811 9.665v-17.455h5.898q2.054 0 3.358.742 1.313.733 1.943 1.986t.631 2.795q0 1.543-.631 2.804-.623 1.262-1.926 2.012-1.304.741-3.341.741h-4.227v-1.875h4.159q1.406 0 2.258-.486.854-.486 1.236-1.312.392-.835.392-1.884t-.392-1.875q-.383-.827-1.244-1.295-.86-.477-2.284-.478h-3.716V553zm20.14.273q-1.773 0-3.111-.844-1.33-.844-2.08-2.361-.741-1.517-.741-3.545 0-2.046.741-3.571.75-1.525 2.08-2.37 1.338-.843 3.111-.843 1.771 0 3.102.843 1.338.845 2.079 2.37.75 1.525.75 3.571 0 2.028-.75 3.545-.741 1.517-2.079 2.361-1.33.843-3.102.844m0-1.807q1.346 0 2.215-.69.87-.691 1.287-1.816.418-1.125.418-2.437 0-1.313-.418-2.446-.417-1.134-1.287-1.833t-2.215-.699q-1.347 0-2.216.699t-1.287 1.833a7 7 0 0 0-.418 2.446q0 1.312.418 2.437.417 1.125 1.287 1.816.869.69 2.216.69m9.002 1.534v-13.091h1.943v1.977h.136q.359-.971 1.296-1.576a3.8 3.8 0 0 1 2.113-.605q.222 0 .554.008t.503.026v2.045a6 6 0 0 0-.469-.077 5 5 0 0 0-.758-.059q-.955 0-1.705.4a3.03 3.03 0 0 0-1.176 1.091 2.94 2.94 0 0 0-.426 1.577V553zm15.443-13.091v1.705h-6.784v-1.705zm-4.807-3.136h2.011v12.477q0 .852.248 1.278.255.418.647.563a2.6 2.6 0 0 0 .844.136q.332 0 .545-.034l.341-.068.409 1.807a4 4 0 0 1-.571.153 4.2 4.2 0 0 1-.929.085 4.05 4.05 0 0 1-1.67-.366 3.3 3.3 0 0 1-1.347-1.116q-.528-.75-.528-1.893zm-125.872 45.466q-1.5 0-2.702-.597a5 5 0 0 1-1.926-1.636 4.47 4.47 0 0 1-.793-2.37h2.046q.118 1.185 1.074 1.961.963.767 2.301.767 1.074 0 1.909-.503a3.55 3.55 0 0 0 1.321-1.381q.486-.886.486-2.003 0-1.141-.503-2.037a3.7 3.7 0 0 0-1.364-1.423q-.869-.52-1.986-.528a5.4 5.4 0 0 0-1.644.247q-.844.248-1.39.639l-1.977-.239 1.057-8.591h9.068v1.875h-7.295l-.614 5.148h.102q.537-.426 1.347-.707a5.1 5.1 0 0 1 1.687-.281q1.603 0 2.856.767 1.26.757 1.977 2.079.724 1.321.724 3.017 0 1.67-.75 2.983a5.5 5.5 0 0 1-2.045 2.063q-1.305.75-2.966.75m10.17-17.694 5.181 14.694h.205l5.182-14.694h2.216L288.994 582h-2.182l-6.409-17.455zm15.909 15.069-.136.92a19 19 0 0 1-.443 2.08 40 40 0 0 1-.605 2.088q-.316.98-.52 1.559h-1.534l.29-1.44q.178-.895.358-2.003a35 35 0 0 0 .306-2.25l.103-.954zM321.21 570a6.2 6.2 0 0 0-.742-1.543 4.8 4.8 0 0 0-1.082-1.176 4.5 4.5 0 0 0-1.415-.741 5.6 5.6 0 0 0-1.739-.256 5.2 5.2 0 0 0-2.821.801q-1.27.801-2.02 2.361t-.75 3.827.759 3.826 2.054 2.361 2.915.801q1.5 0 2.642-.639a4.53 4.53 0 0 0 1.789-1.824q.648-1.183.648-2.787l.648.137h-5.25v-1.875h6.648v1.875q0 2.155-.921 3.75a6.36 6.36 0 0 1-2.523 2.471q-1.602.87-3.681.87-2.319 0-4.074-1.091-1.747-1.092-2.728-3.103-.97-2.01-.971-4.772 0-2.071.554-3.725.562-1.662 1.585-2.829a6.9 6.9 0 0 1 2.421-1.79q1.397-.622 3.076-.622 1.382 0 2.574.417a6.9 6.9 0 0 1 2.139 1.168 6.6 6.6 0 0 1 1.577 1.798q.63 1.04.869 2.31zm19.745-5.455V582h-2.046l-9.511-13.705h-.171V582h-2.113v-17.455h2.045l9.546 13.739h.17v-13.739zM350.57 582h-5.386v-17.455h5.625q2.54 0 4.347 1.049 1.806 1.04 2.769 2.991.963 1.944.963 4.654 0 2.727-.971 4.696-.972 1.96-2.83 3.017Q353.23 582 350.57 582m-3.272-1.875h3.136q2.165 0 3.588-.835 1.423-.836 2.122-2.378t.699-3.673q0-2.114-.69-3.64-.691-1.533-2.063-2.352-1.373-.827-3.417-.827h-3.375zm16.762-.511-.137.92a18 18 0 0 1-.443 2.08 40 40 0 0 1-.605 2.088q-.315.98-.52 1.559h-1.534l.29-1.44q.178-.895.358-2.003.187-1.1.307-2.25l.102-.954zm20.294-10.705q-.153-1.296-1.244-2.011t-2.676-.716q-1.16 0-2.028.375-.861.375-1.347 1.031a2.48 2.48 0 0 0-.477 1.492q0 .698.332 1.201.34.495.869.827.53.324 1.108.537.58.204 1.066.332l1.772.478q.683.179 1.517.494.845.315 1.611.861.775.537 1.279 1.38.502.844.502 2.071 0 1.416-.741 2.557-.733 1.143-2.148 1.816-1.406.673-3.417.673-1.875 0-3.247-.605-1.364-.606-2.148-1.688-.776-1.082-.878-2.514h2.182q.085.989.665 1.636a3.6 3.6 0 0 0 1.482.955q.904.306 1.944.307 1.21 0 2.173-.392.963-.401 1.526-1.108a2.63 2.63 0 0 0 .562-1.671q0-.869-.486-1.415-.486-.545-1.278-.886-.793-.34-1.713-.596l-2.148-.614q-2.046-.588-3.239-1.679-1.193-1.09-1.193-2.855 0-1.466.793-2.557.801-1.1 2.148-1.705 1.354-.613 3.025-.613 1.688 0 3 .605 1.312.597 2.08 1.636a4.08 4.08 0 0 1 .818 2.361zm10.976 13.364q-1.893 0-3.265-.835-1.363-.844-2.105-2.353-.733-1.516-.733-3.528t.733-3.546q.742-1.542 2.063-2.403 1.329-.87 3.102-.869 1.023 0 2.02.341.998.34 1.815 1.108.819.758 1.304 2.011.486 1.252.486 3.085v.852h-10.091v-1.738h8.046q0-1.108-.444-1.978a3.34 3.34 0 0 0-1.244-1.372q-.801-.503-1.892-.503-1.201 0-2.08.597a3.93 3.93 0 0 0-1.338 1.534 4.5 4.5 0 0 0-.468 2.029v1.159q0 1.482.511 2.514.52 1.023 1.44 1.56.92.528 2.14.528.792 0 1.431-.222.648-.23 1.117-.682.469-.46.724-1.142l1.943.546a4.3 4.3 0 0 1-1.031 1.739 5 5 0 0 1-1.79 1.159q-1.065.409-2.394.409m8.48-.273v-13.091h1.943v1.977h.136q.359-.971 1.296-1.576a3.8 3.8 0 0 1 2.113-.605q.222 0 .554.008t.503.026v2.045a6 6 0 0 0-.469-.077 5 5 0 0 0-.758-.059q-.955 0-1.705.4a3.03 3.03 0 0 0-1.176 1.091 2.94 2.94 0 0 0-.426 1.577V582zm8.929 0v-13.091h2.012V582zm1.023-15.273a1.43 1.43 0 0 1-1.014-.4 1.3 1.3 0 0 1-.418-.963q0-.562.418-.963a1.43 1.43 0 0 1 1.014-.401q.588 0 1.006.401.426.4.426.963t-.426.963q-.418.4-1.006.4m8.525 15.58q-1.244 0-2.259-.469a3.87 3.87 0 0 1-1.61-1.372q-.597-.904-.597-2.182 0-1.125.443-1.824a3.14 3.14 0 0 1 1.185-1.108 6.2 6.2 0 0 1 1.636-.596 20 20 0 0 1 1.816-.324 83 83 0 0 1 1.934-.23q.75-.085 1.091-.282.35-.196.35-.681v-.069q0-1.26-.691-1.96-.681-.699-2.071-.699-1.44 0-2.258.631-.818.63-1.151 1.347l-1.909-.682q.511-1.194 1.364-1.858a5.1 5.1 0 0 1 1.875-.938 7.8 7.8 0 0 1 2.011-.272 8 8 0 0 1 1.449.153 4.7 4.7 0 0 1 1.594.605q.776.46 1.287 1.389.51.93.511 2.489V582h-2.011v-1.773h-.103q-.204.426-.682.912-.477.486-1.269.827-.793.34-1.935.341m.307-1.807q1.193 0 2.011-.469.827-.469 1.244-1.21a3.1 3.1 0 0 0 .427-1.56v-1.841q-.129.154-.563.282a10 10 0 0 1-.989.213q-.554.085-1.082.153-.52.06-.844.102a7.7 7.7 0 0 0-1.466.333q-.672.222-1.091.673-.409.444-.409 1.21 0 1.049.776 1.586.784.528 1.986.528m11.375-15.955V582h-2.011v-17.455z"/><path stroke="#fff" d="M347 520v-10m2 10v-10m2 10v-10m2 10v-10"/><path fill="#707070" d="M41.114 464v-17.455h2.113v15.58h8.114V464zm13.5 0v-17.455h10.534v1.875h-8.42v5.898h7.874v1.875h-7.875v5.932h8.557V464zm19.73 0h-5.387v-17.455h5.625q2.54 0 4.347 1.049 1.806 1.04 2.77 2.991.963 1.944.963 4.654 0 2.727-.972 4.696-.97 1.96-2.83 3.017Q77.004 464 74.345 464m-3.273-1.875h3.136q2.166 0 3.589-.835a5.15 5.15 0 0 0 2.122-2.378q.698-1.543.698-3.673 0-2.114-.69-3.64-.69-1.533-2.062-2.352-1.372-.827-3.418-.827h-3.375zm22.364-7.79v1.875h-7.637v-1.875zm3.81 9.665v-17.455h6.103q1.824 0 3.008.631 1.185.623 1.764 1.679.58 1.049.58 2.327 0 1.125-.401 1.858a3.1 3.1 0 0 1-1.039 1.159q-.64.426-1.39.631v.17q.802.051 1.611.562.81.512 1.355 1.466.546.955.546 2.336 0 1.313-.597 2.36-.597 1.049-1.883 1.662-1.287.614-3.35.614zm2.114-1.875h4.193q2.071 0 2.941-.801.877-.81.877-1.96 0-.887-.451-1.637a3.27 3.27 0 0 0-1.287-1.21q-.836-.46-1.977-.46H99.36zm0-7.909h3.921q.954 0 1.721-.375.775-.375 1.227-1.057.46-.682.461-1.602 0-1.15-.802-1.952-.8-.81-2.539-.81H99.36zm21.473 4.432v-7.739h2.011V464h-2.011v-2.216h-.136q-.46.997-1.432 1.696-.972.69-2.455.69-1.227 0-2.181-.536-.956-.546-1.5-1.637-.546-1.1-.546-2.77v-8.318h2.011v8.182q0 1.432.802 2.284.809.852 2.062.852.75 0 1.526-.383.784-.384 1.312-1.176.537-.793.537-2.02m11.389-7.739v1.705h-6.784v-1.705zm-4.807-3.136h2.011v12.477q0 .852.247 1.278.257.418.648.563.4.136.844.136.332 0 .545-.034l.341-.068.409 1.807a4 4 0 0 1-.571.153 4.2 4.2 0 0 1-.929.085 4.05 4.05 0 0 1-1.67-.366 3.3 3.3 0 0 1-1.347-1.116q-.528-.75-.528-1.893zm13.525 3.136v1.705h-6.784v-1.705zm-4.806-3.136h2.011v12.477q0 .852.247 1.278.256.418.648.563.4.136.844.136.332 0 .545-.034l.341-.068.409 1.807a4 4 0 0 1-.571.153 4.2 4.2 0 0 1-.929.085 4.05 4.05 0 0 1-1.67-.366 3.3 3.3 0 0 1-1.347-1.116q-.528-.75-.528-1.893zm13.009 16.5q-1.772 0-3.11-.844-1.33-.844-2.08-2.361-.741-1.517-.741-3.545 0-2.046.741-3.571.75-1.525 2.08-2.37 1.338-.843 3.11-.843 1.773 0 3.103.843 1.338.845 2.079 2.37.75 1.525.75 3.571 0 2.028-.75 3.545-.741 1.517-2.079 2.361-1.33.844-3.103.844m0-1.807q1.347 0 2.216-.69.87-.691 1.287-1.816.418-1.125.418-2.437 0-1.313-.418-2.446-.417-1.134-1.287-1.833t-2.216-.699-2.215.699q-.87.699-1.287 1.833a7 7 0 0 0-.418 2.446q0 1.312.418 2.437.417 1.125 1.287 1.816.869.69 2.215.69m11.014-6.341V464h-2.011v-13.091h1.943v2.046h.17a3.74 3.74 0 0 1 1.398-1.603q.938-.613 2.42-.613 1.33 0 2.327.545.998.537 1.551 1.636.554 1.091.554 2.762V464h-2.011v-8.182q0-1.542-.801-2.403-.801-.87-2.199-.87-.963 0-1.722.418a3 3 0 0 0-1.184 1.219q-.435.801-.435 1.943"/></svg>
