<?xml version="1.0" encoding="UTF-8" standalone="no"?>
<!DOCTYPE svg PUBLIC "-//W3C//DTD SVG 1.1//EN"
 "http://www.w3.org/Graphics/SVG/1.1/DTD/svg11.dtd">
<!-- Generated by graphviz version 12.2.1 (0)
 -->
<!-- Title: components/system/src/system.c Pages: 1 -->
<!--zoomable 168 -->

<svg id="main" version="1.1" xmlns="http://www.w3.org/2000/svg" xmlns:xlink="http://www.w3.org/1999/xlink" xml:space="preserve" onload="init(evt)">

<style type="text/css"><![CDATA[
.node, .edge {opacity: 0.7;}
.node.selected, .edge.selected {opacity: 1;}
.edge:hover path { stroke: red; }
.edge:hover polygon { stroke: red; fill: red; }
]]></style>

<defs>
  <circle id="rim" cx="0" cy="0" r="7"/>
  <circle id="rim2" cx="0" cy="0" r="3.5"/>
  <g id="zoomPlus">
    <use xlink:href="#rim" fill="#404040"><set attributeName="fill" to="#808080" begin="zoomplus.mouseover" end="zoomplus.mouseout"/></use>
    <path d="M-4,0h8M0,-4v8" fill="none" stroke="white" stroke-width="1.5" pointer-events="none"/>
  </g>
  <g id="zoomMin">
    <use xlink:href="#rim" fill="#404040"><set attributeName="fill" to="#808080" begin="zoomminus.mouseover" end="zoomminus.mouseout"/></use>
    <path d="M-4,0h8" fill="none" stroke="white" stroke-width="1.5" pointer-events="none"/>
  </g>
  <g id="arrowUp" transform="translate(30 24)">
    <use xlink:href="#rim"/>
    <path pointer-events="none" fill="none" stroke="white" stroke-width="1.5" d="M0,-3.0v7 M-2.5,-0.5L0,-3.0L2.5,-0.5"/>
  </g>
  <g id="arrowRight" transform="rotate(90) translate(36 -43)">
    <use xlink:href="#rim"/>
    <path pointer-events="none" fill="none" stroke="white" stroke-width="1.5" d="M0,-3.0v7 M-2.5,-0.5L0,-3.0L2.5,-0.5"/>
  </g>
  <g id="arrowDown" transform="rotate(180) translate(-30 -48)">
    <use xlink:href="#rim"/>
    <path pointer-events="none" fill="none" stroke="white" stroke-width="1.5" d="M0,-3.0v7 M-2.5,-0.5L0,-3.0L2.5,-0.5"/>
  </g>
  <g id="arrowLeft" transform="rotate(270) translate(-36 17)">
    <use xlink:href="#rim"/>
    <path pointer-events="none" fill="none" stroke="white" stroke-width="1.5" d="M0,-3.0v7 M-2.5,-0.5L0,-3.0L2.5,-0.5"/>
  </g>
  <g id="resetDef">
    <use xlink:href="#rim2" fill="#404040"><set attributeName="fill" to="#808080" begin="reset.mouseover" end="reset.mouseout"/></use>
  </g>
</defs>
<script type="application/ecmascript">
var viewWidth = 1399;
var viewHeight = 168;
var sectionId = 'dynsection-0';
</script>
<script type="application/ecmascript" xlink:href="svg.min.js"/>
<svg id="graph" class="graph">
<g id="viewport">
<title>components/system/src/system.c</title>
<!-- Node1 -->
<g id="Node000001" class="node">
<title>Node1</title>
<g id="a_Node000001"><a xlink:title=" ">
<polygon fill="#999999" stroke="#666666" points="772.25,-159.75 640,-159.75 640,-126.25 772.25,-126.25 772.25,-159.75"/>
<text text-anchor="start" x="648" y="-146.25" font-family="Helvetica,sans-Serif" font-size="10.00">components/system/src</text>
<text text-anchor="middle" x="706.12" y="-133.5" font-family="Helvetica,sans-Serif" font-size="10.00">/system.c</text>
</a>
</g>
</g>
<!-- Node2 -->
<g id="Node000002" class="node">
<title>Node2</title>
<g id="a_Node000002"><a xlink:href="system_8h.html" target="_top" xlink:title=" ">
<polygon fill="white" stroke="#666666" points="172.62,-83.88 111.62,-83.88 111.62,-63.12 172.62,-63.12 172.62,-83.88"/>
<text text-anchor="middle" x="142.12" y="-70.38" font-family="Helvetica,sans-Serif" font-size="10.00">system.h</text>
</a>
</g>
</g>
<!-- Node1&#45;&gt;Node2 -->
<g id="edge1_Node000001_Node000002" class="edge">
<title>Node1&#45;&gt;Node2</title>
<g id="a_edge1_Node000001_Node000002"><a xlink:title=" ">
<path fill="none" stroke="#63b8ff" d="M639.73,-138.67C542.56,-133.02 356.19,-119.22 200.12,-90.25 194.83,-89.27 189.3,-88.04 183.86,-86.7"/>
<polygon fill="#63b8ff" stroke="#63b8ff" points="184.94,-83.37 174.38,-84.24 183.18,-90.14 184.94,-83.37"/>
</a>
</g>
</g>
<!-- Node6 -->
<g id="Node000006" class="node">
<title>Node6</title>
<g id="a_Node000006"><a xlink:href="logger_8h.html" target="_top" xlink:title="Project&#45;wide logging macros based on ESP&#45;IDF&#39;s logging library.">
<polygon fill="white" stroke="#666666" points="263.62,-83.88 208.62,-83.88 208.62,-63.12 263.62,-63.12 263.62,-83.88"/>
<text text-anchor="middle" x="236.12" y="-70.38" font-family="Helvetica,sans-Serif" font-size="10.00">logger.h</text>
</a>
</g>
</g>
<!-- Node1&#45;&gt;Node6 -->
<g id="edge5_Node000001_Node000006" class="edge">
<title>Node1&#45;&gt;Node6</title>
<g id="a_edge5_Node000001_Node000006"><a xlink:title=" ">
<path fill="none" stroke="#63b8ff" d="M639.74,-139.89C553.81,-135.84 400.04,-124.11 273.12,-90.25 271,-89.68 268.84,-89.02 266.68,-88.29"/>
<polygon fill="#63b8ff" stroke="#63b8ff" points="268.12,-85.09 257.53,-84.77 265.61,-91.62 268.12,-85.09"/>
</a>
</g>
</g>
<!-- Node8 -->
<g id="Node000008" class="node">
<title>Node8</title>
<g id="a_Node000008"><a xlink:title=" ">
<polygon fill="#e0e0e0" stroke="#999999" points="330.62,-83.88 281.62,-83.88 281.62,-63.12 330.62,-63.12 330.62,-83.88"/>
<text text-anchor="middle" x="306.12" y="-70.38" font-family="Helvetica,sans-Serif" font-size="10.00">stdio.h</text>
</a>
</g>
</g>
<!-- Node1&#45;&gt;Node8 -->
<g id="edge7_Node000001_Node000008" class="edge">
<title>Node1&#45;&gt;Node8</title>
<g id="a_edge7_Node000001_Node000008"><a xlink:title=" ">
<path fill="none" stroke="#63b8ff" d="M639.77,-138.47C565.48,-133.18 442.14,-120.37 340.12,-90.25 338.53,-89.78 336.91,-89.24 335.29,-88.66"/>
<polygon fill="#63b8ff" stroke="#63b8ff" points="336.78,-85.49 326.2,-84.92 334.12,-91.96 336.78,-85.49"/>
</a>
</g>
</g>
<!-- Node9 -->
<g id="Node000009" class="node">
<title>Node9</title>
<g id="a_Node000009"><a xlink:title=" ">
<polygon fill="#e0e0e0" stroke="#999999" points="401.5,-83.88 348.75,-83.88 348.75,-63.12 401.5,-63.12 401.5,-83.88"/>
<text text-anchor="middle" x="375.12" y="-70.38" font-family="Helvetica,sans-Serif" font-size="10.00">string.h</text>
</a>
</g>
</g>
<!-- Node1&#45;&gt;Node9 -->
<g id="edge8_Node000001_Node000009" class="edge">
<title>Node1&#45;&gt;Node9</title>
<g id="a_edge8_Node000001_Node000009"><a xlink:title=" ">
<path fill="none" stroke="#63b8ff" d="M639.75,-134.95C579.27,-127.45 487.91,-113.42 411.12,-90.25 409.33,-89.71 407.5,-89.1 405.68,-88.45"/>
<polygon fill="#63b8ff" stroke="#63b8ff" points="407.36,-85.35 396.77,-84.92 404.78,-91.86 407.36,-85.35"/>
</a>
</g>
</g>
<!-- Node10 -->
<g id="Node000010" class="node">
<title>Node10</title>
<g id="a_Node000010"><a xlink:title=" ">
<polygon fill="#e0e0e0" stroke="#999999" points="528.25,-90.25 420,-90.25 420,-56.75 528.25,-56.75 528.25,-90.25"/>
<text text-anchor="start" x="428" y="-76.75" font-family="Helvetica,sans-Serif" font-size="10.00">driver/temperature</text>
<text text-anchor="middle" x="474.12" y="-64" font-family="Helvetica,sans-Serif" font-size="10.00">_sensor.h</text>
</a>
</g>
</g>
<!-- Node1&#45;&gt;Node10 -->
<g id="edge9_Node000001_Node000010" class="edge">
<title>Node1&#45;&gt;Node10</title>
<g id="a_edge9_Node000001_Node000010"><a xlink:title=" ">
<path fill="none" stroke="#63b8ff" d="M650.56,-125.83C617.03,-116.08 574.15,-103.6 539.06,-93.39"/>
<polygon fill="#63b8ff" stroke="#63b8ff" points="540.47,-90.16 529.89,-90.73 538.52,-96.88 540.47,-90.16"/>
</a>
</g>
</g>
<!-- Node11 -->
<g id="Node000011" class="node">
<title>Node11</title>
<g id="a_Node000011"><a xlink:title=" ">
<polygon fill="#e0e0e0" stroke="#999999" points="638,-83.88 546.25,-83.88 546.25,-63.12 638,-63.12 638,-83.88"/>
<text text-anchor="middle" x="592.12" y="-70.38" font-family="Helvetica,sans-Serif" font-size="10.00">esp_chip_info.h</text>
</a>
</g>
</g>
<!-- Node1&#45;&gt;Node11 -->
<g id="edge10_Node000001_Node000011" class="edge">
<title>Node1&#45;&gt;Node11</title>
<g id="a_edge10_Node000001_Node000011"><a xlink:title=" ">
<path fill="none" stroke="#63b8ff" d="M678.82,-125.83C660.54,-115.01 636.6,-100.84 618.51,-90.13"/>
<polygon fill="#63b8ff" stroke="#63b8ff" points="620.32,-87.13 609.93,-85.04 616.75,-93.15 620.32,-87.13"/>
</a>
</g>
</g>
<!-- Node12 -->
<g id="Node000012" class="node">
<title>Node12</title>
<g id="a_Node000012"><a xlink:title=" ">
<polygon fill="#e0e0e0" stroke="#999999" points="755.75,-83.88 656.5,-83.88 656.5,-63.12 755.75,-63.12 755.75,-83.88"/>
<text text-anchor="middle" x="706.12" y="-70.38" font-family="Helvetica,sans-Serif" font-size="10.00">esp_heap_caps.h</text>
</a>
</g>
</g>
<!-- Node1&#45;&gt;Node12 -->
<g id="edge11_Node000001_Node000012" class="edge">
<title>Node1&#45;&gt;Node12</title>
<g id="a_edge11_Node000001_Node000012"><a xlink:title=" ">
<path fill="none" stroke="#63b8ff" d="M706.12,-126C706.12,-116.9 706.12,-105.39 706.12,-95.57"/>
<polygon fill="#63b8ff" stroke="#63b8ff" points="709.63,-95.84 706.13,-85.84 702.63,-95.84 709.63,-95.84"/>
</a>
</g>
</g>
<!-- Node13 -->
<g id="Node000013" class="node">
<title>Node13</title>
<g id="a_Node000013"><a xlink:title=" ">
<polygon fill="#e0e0e0" stroke="#999999" points="842.38,-83.88 773.88,-83.88 773.88,-63.12 842.38,-63.12 842.38,-83.88"/>
<text text-anchor="middle" x="808.12" y="-70.38" font-family="Helvetica,sans-Serif" font-size="10.00">esp_mac.h</text>
</a>
</g>
</g>
<!-- Node1&#45;&gt;Node13 -->
<g id="edge12_Node000001_Node000013" class="edge">
<title>Node1&#45;&gt;Node13</title>
<g id="a_edge12_Node000001_Node000013"><a xlink:title=" ">
<path fill="none" stroke="#63b8ff" d="M730.56,-125.83C746.76,-115.11 767.93,-101.1 784.06,-90.43"/>
<polygon fill="#63b8ff" stroke="#63b8ff" points="785.69,-93.54 792.1,-85.11 781.83,-87.71 785.69,-93.54"/>
</a>
</g>
</g>
<!-- Node14 -->
<g id="Node000014" class="node">
<title>Node14</title>
<g id="a_Node000014"><a xlink:title=" ">
<polygon fill="#e0e0e0" stroke="#999999" points="943.88,-83.88 860.38,-83.88 860.38,-63.12 943.88,-63.12 943.88,-83.88"/>
<text text-anchor="middle" x="902.12" y="-70.38" font-family="Helvetica,sans-Serif" font-size="10.00">esp_system.h</text>
</a>
</g>
</g>
<!-- Node1&#45;&gt;Node14 -->
<g id="edge13_Node000001_Node000014" class="edge">
<title>Node1&#45;&gt;Node14</title>
<g id="a_edge13_Node000001_Node000014"><a xlink:title=" ">
<path fill="none" stroke="#63b8ff" d="M753.07,-125.83C786.6,-114.28 831.2,-98.93 862.85,-88.03"/>
<polygon fill="#63b8ff" stroke="#63b8ff" points="863.72,-91.43 872.04,-84.86 861.44,-84.81 863.72,-91.43"/>
</a>
</g>
</g>
<!-- Node15 -->
<g id="Node000015" class="node">
<title>Node15</title>
<g id="a_Node000015"><a xlink:title=" ">
<polygon fill="#e0e0e0" stroke="#999999" points="1034.62,-83.88 961.62,-83.88 961.62,-63.12 1034.62,-63.12 1034.62,-83.88"/>
<text text-anchor="middle" x="998.12" y="-70.38" font-family="Helvetica,sans-Serif" font-size="10.00">esp_timer.h</text>
</a>
</g>
</g>
<!-- Node1&#45;&gt;Node15 -->
<g id="edge14_Node000001_Node000015" class="edge">
<title>Node1&#45;&gt;Node15</title>
<g id="a_edge14_Node000001_Node000015"><a xlink:title=" ">
<path fill="none" stroke="#63b8ff" d="M772.74,-130.48C822.77,-121.24 892.77,-107.06 953.12,-90.25 955.85,-89.49 958.64,-88.66 961.44,-87.78"/>
<polygon fill="#63b8ff" stroke="#63b8ff" points="962.3,-91.18 970.7,-84.72 960.1,-84.53 962.3,-91.18"/>
</a>
</g>
</g>
<!-- Node16 -->
<g id="Node000016" class="node">
<title>Node16</title>
<g id="a_Node000016"><a xlink:title=" ">
<polygon fill="#e0e0e0" stroke="#999999" points="1165.5,-83.88 1052.75,-83.88 1052.75,-63.12 1165.5,-63.12 1165.5,-83.88"/>
<text text-anchor="middle" x="1109.12" y="-70.38" font-family="Helvetica,sans-Serif" font-size="10.00">freertos/FreeRTOS.h</text>
</a>
</g>
</g>
<!-- Node1&#45;&gt;Node16 -->
<g id="edge15_Node000001_Node000016" class="edge">
<title>Node1&#45;&gt;Node16</title>
<g id="a_edge15_Node000001_Node000016"><a xlink:title=" ">
<path fill="none" stroke="#63b8ff" d="M772.48,-133.55C840.84,-124.45 950.36,-108.75 1044.12,-90.25 1049.33,-89.22 1054.75,-88.06 1060.15,-86.84"/>
<polygon fill="#63b8ff" stroke="#63b8ff" points="1060.67,-90.31 1069.62,-84.64 1059.09,-83.5 1060.67,-90.31"/>
</a>
</g>
</g>
<!-- Node17 -->
<g id="Node000017" class="node">
<title>Node17</title>
<g id="a_Node000017"><a xlink:title=" ">
<polygon fill="#e0e0e0" stroke="#999999" points="1270.75,-83.88 1183.5,-83.88 1183.5,-63.12 1270.75,-63.12 1270.75,-83.88"/>
<text text-anchor="middle" x="1227.12" y="-70.38" font-family="Helvetica,sans-Serif" font-size="10.00">freertos/task.h</text>
</a>
</g>
</g>
<!-- Node1&#45;&gt;Node17 -->
<g id="edge16_Node000001_Node000017" class="edge">
<title>Node1&#45;&gt;Node17</title>
<g id="a_edge16_Node000001_Node000017"><a xlink:title=" ">
<path fill="none" stroke="#63b8ff" d="M772.58,-138.4C863.83,-132.61 1032.71,-118.84 1174.12,-90.25 1178.17,-89.43 1182.36,-88.44 1186.52,-87.37"/>
<polygon fill="#63b8ff" stroke="#63b8ff" points="1187.21,-90.81 1195.91,-84.76 1185.34,-84.06 1187.21,-90.81"/>
</a>
</g>
</g>
<!-- Node18 -->
<g id="Node000018" class="node">
<title>Node18</title>
<g id="a_Node000018"><a xlink:title=" ">
<polygon fill="#e0e0e0" stroke="#999999" points="1391.25,-83.88 1289,-83.88 1289,-63.12 1391.25,-63.12 1391.25,-83.88"/>
<text text-anchor="middle" x="1340.12" y="-70.38" font-family="Helvetica,sans-Serif" font-size="10.00">system_version.h</text>
</a>
</g>
</g>
<!-- Node1&#45;&gt;Node18 -->
<g id="edge17_Node000001_Node000018" class="edge">
<title>Node1&#45;&gt;Node18</title>
<g id="a_edge17_Node000001_Node000018"><a xlink:title=" ">
<path fill="none" stroke="#63b8ff" d="M772.45,-139.61C879.82,-134.95 1098.04,-122.13 1280.12,-90.25 1285.15,-89.37 1290.38,-88.28 1295.55,-87.08"/>
<polygon fill="#63b8ff" stroke="#63b8ff" points="1296.36,-90.48 1305.24,-84.69 1294.69,-83.68 1296.36,-90.48"/>
</a>
</g>
</g>
<!-- Node3 -->
<g id="Node000003" class="node">
<title>Node3</title>
<g id="a_Node000003"><a xlink:title=" ">
<polygon fill="#e0e0e0" stroke="#999999" points="60.25,-20.75 0,-20.75 0,0 60.25,0 60.25,-20.75"/>
<text text-anchor="middle" x="30.12" y="-7.25" font-family="Helvetica,sans-Serif" font-size="10.00">esp_err.h</text>
</a>
</g>
</g>
<!-- Node2&#45;&gt;Node3 -->
<g id="edge2_Node000002_Node000003" class="edge">
<title>Node2&#45;&gt;Node3</title>
<g id="a_edge2_Node000002_Node000003"><a xlink:title=" ">
<path fill="none" stroke="#63b8ff" d="M124.13,-62.68C106.33,-52.97 78.84,-37.96 58.17,-26.68"/>
<polygon fill="#63b8ff" stroke="#63b8ff" points="59.86,-23.61 49.4,-21.9 56.5,-29.76 59.86,-23.61"/>
</a>
</g>
</g>
<!-- Node4 -->
<g id="Node000004" class="node">
<title>Node4</title>
<g id="a_Node000004"><a xlink:title=" ">
<polygon fill="#e0e0e0" stroke="#999999" points="133.62,-20.75 78.62,-20.75 78.62,0 133.62,0 133.62,-20.75"/>
<text text-anchor="middle" x="106.12" y="-7.25" font-family="Helvetica,sans-Serif" font-size="10.00">stddef.h</text>
</a>
</g>
</g>
<!-- Node2&#45;&gt;Node4 -->
<g id="edge3_Node000002_Node000004" class="edge">
<title>Node2&#45;&gt;Node4</title>
<g id="a_edge3_Node000002_Node000004"><a xlink:title=" ">
<path fill="none" stroke="#63b8ff" d="M136.34,-62.68C131.27,-54.07 123.76,-41.31 117.49,-30.67"/>
<polygon fill="#63b8ff" stroke="#63b8ff" points="120.63,-29.11 112.54,-22.27 114.6,-32.67 120.63,-29.11"/>
</a>
</g>
</g>
<!-- Node5 -->
<g id="Node000005" class="node">
<title>Node5</title>
<g id="a_Node000005"><a xlink:title=" ">
<polygon fill="#e0e0e0" stroke="#999999" points="204.5,-20.75 151.75,-20.75 151.75,0 204.5,0 204.5,-20.75"/>
<text text-anchor="middle" x="178.12" y="-7.25" font-family="Helvetica,sans-Serif" font-size="10.00">stdint.h</text>
</a>
</g>
</g>
<!-- Node2&#45;&gt;Node5 -->
<g id="edge4_Node000002_Node000005" class="edge">
<title>Node2&#45;&gt;Node5</title>
<g id="a_edge4_Node000002_Node000005"><a xlink:title=" ">
<path fill="none" stroke="#63b8ff" d="M147.91,-62.68C152.98,-54.07 160.49,-41.31 166.76,-30.67"/>
<polygon fill="#63b8ff" stroke="#63b8ff" points="169.65,-32.67 171.71,-22.27 163.62,-29.11 169.65,-32.67"/>
</a>
</g>
</g>
<!-- Node7 -->
<g id="Node000007" class="node">
<title>Node7</title>
<g id="a_Node000007"><a xlink:title=" ">
<polygon fill="#e0e0e0" stroke="#999999" points="285.38,-20.75 222.88,-20.75 222.88,0 285.38,0 285.38,-20.75"/>
<text text-anchor="middle" x="254.12" y="-7.25" font-family="Helvetica,sans-Serif" font-size="10.00">esp_log.h</text>
</a>
</g>
</g>
<!-- Node6&#45;&gt;Node7 -->
<g id="edge6_Node000006_Node000007" class="edge">
<title>Node6&#45;&gt;Node7</title>
<g id="a_edge6_Node000006_Node000007"><a xlink:title=" ">
<path fill="none" stroke="#63b8ff" d="M239.02,-62.68C241.45,-54.43 245,-42.37 248.05,-32.01"/>
<polygon fill="#63b8ff" stroke="#63b8ff" points="251.4,-33 250.87,-22.42 244.69,-31.03 251.4,-33"/>
</a>
</g>
</g>
</g>
</svg>

<g id="navigator" transform="translate(0 0)" fill="#404254">
  <rect fill="#f2f5e9" fill-opacity="0.5" stroke="#606060" stroke-width=".5" x="0" y="0" width="60" height="60"/>
  <use id="zoomplus" xlink:href="#zoomPlus" x="17" y="9" onmousedown="handleZoom(evt,'in')"/>
  <use id="zoomminus" xlink:href="#zoomMin" x="42" y="9" onmousedown="handleZoom(evt,'out')"/>
  <use id="reset" xlink:href="#resetDef" x="30" y="36" onmousedown="handleReset()"/>
   <use id="arrowup" xlink:href="#arrowUp" x="0" y="0" onmousedown="handlePan(0,-1)"/>
  <use id="arrowright" xlink:href="#arrowRight" x="0" y="0" onmousedown="handlePan(1,0)"/>
  <use id="arrowdown" xlink:href="#arrowDown" x="0" y="0" onmousedown="handlePan(0,1)"/>
  <use id="arrowleft" xlink:href="#arrowLeft" x="0" y="0" onmousedown="handlePan(-1,0)"/>
</g>
<svg viewBox="0 0 15 15" width="100%" height="30px" preserveAspectRatio="xMaxYMin meet">
 <g id="arrow_out" transform="scale(0.3 0.3)">
  <a xlink:href="system_8c__incl_org.svg" target="_base">
   <rect id="button" ry="5" rx="5" y="6" x="6" height="38" width="38"
        fill="#f2f5e9" fill-opacity="0.5" stroke="#606060" stroke-width="1.0"/>
   <path id="arrow"
     d="M 11.500037,31.436501 C 11.940474,20.09759 22.043105,11.32322 32.158766,21.979434 L 37.068811,17.246167 C 37.068811,17.246167 37.088388,32 37.088388,32 L 22.160133,31.978069 C 22.160133,31.978069 26.997745,27.140456 26.997745,27.140456 C 18.528582,18.264221 13.291696,25.230495 11.500037,31.436501 z"
     style="fill:#404040;"/>
  </a>
 </g>
</svg>

<style type='text/css'>
<![CDATA[
[data-mouse-over-selected='false'] { opacity: 0.7; }
[data-mouse-over-selected='true']  { opacity: 1.0; }
]]>
</style>
<script type="application/ecmascript"><![CDATA[
document.addEventListener('DOMContentLoaded', (event) => {
  highlightEdges();
  highlightAdjacentNodes();
});
]]></script>
</svg>
