<svg xmlns="http://www.w3.org/2000/svg" width="512" height="512" fill="none" viewBox="0 0 512 512"><rect width="512" height="512" fill="#022225" rx="128"/><path fill="#087e8b" d="M384.806 144.708v-14.393a14.717 14.717 0 0 0-14.717-14.717h-17.353a170.606 170.606 0 1 0 32.07 28.826zM169.116 294.07a29.68 29.68 0 0 1-27.419-18.321 29.68 29.68 0 0 1 6.433-32.342 29.68 29.68 0 0 1 32.343-6.434 29.68 29.68 0 0 1 9.628 48.404 29.68 29.68 0 0 1-20.985 8.693M256 371.548a29.676 29.676 0 0 1-29.107-35.468 29.67 29.67 0 0 1 8.122-15.195 29.67 29.67 0 0 1 32.342-6.433A29.677 29.677 0 0 1 256 371.548m86.195-77.478a29.676 29.676 0 0 1-29.107-35.468 29.67 29.67 0 0 1 8.122-15.195 29.672 29.672 0 0 1 45.661 4.497 29.676 29.676 0 0 1-24.676 46.166"/><path fill="#087e8b" fill-rule="evenodd" d="M256 56a200 200 0 1 0 200 200 200.24 200.24 0 0 0-58.65-141.35A200.24 200.24 0 0 0 256 56M149.395 415.595A191.9 191.9 0 0 0 256 447.932v-.041a192.14 192.14 0 0 0 135.617-56.274A192.14 192.14 0 0 0 447.891 256a191.891 191.891 0 1 0-298.496 159.595" clip-rule="evenodd"/></svg>