<svg xmlns="http://www.w3.org/2000/svg" width="1280" height="640" fill="none" viewBox="0 0 1280 640"><path fill="#087e8b" d="m210.905 224.4 3.6-2.6q6.801-4 9.6-4 6.2 0 13.4 11.2 4.4 7 4.4 11.2t-2.8 7q-2.6 2.8-6.2 5a478 478 0 0 1-7 4.2q-3.2 2-13.4 5.2t-19.8 3.2q-9.399 0-19.2-2.4-9.6-2.6-20-8.4-10.2-6-18.4-14.4-8.2-8.6-13.6-21.8-5.2-13.4-5.2-29t5.2-28.2q5.2-12.8 13.2-21a76.6 76.6 0 0 1 18.6-14q19.6-10.8 39.4-10.8 9.4 0 19 3 9.8 2.8 14.8 5.8l4.8 2.8q3.6 2.2 5.6 3.6 5.2 4.2 5.2 9.6 0 5.2-4.2 11-7.8 10.8-14 10.8-3.6 0-10.2-4.4-8.4-6.8-22.4-6.8-13 0-25.6 9-6 4.4-10 12.4t-4 18.2q0 10 4 18t10.2 12.6q12.2 8.8 25.4 8.8 6.2 0 11.6-1.6 5.6-1.6 8-3.2m102.542-66.6q20 0 33.2 15.2 13.4 15.2 13.4 37.2v35.2q0 4.6-.4 7-.2 2.2-1.8 5.2-2.6 5.2-15.4 5.2-12.2 0-15.2-5.2-1.6-3-2-5.4-.2-2.4-.2-7.2v-35q0-8.2-4.6-12.8t-11.8-4.6q-7 0-12.4 4.4-5.4 4.2-6.2 9.6v38.8q0 4.6-.4 7-.2 2.2-1.8 5.2-2.6 5.2-15.4 5.2-12.6 0-15.4-5.4-1.4-3-1.8-5.2-.2-2.2-.2-7V125.6q0-4.6.2-6.8.4-2.4 1.8-5.2 2.8-5.4 15.6-5.4 12.6 0 15.2 5.4 1.6 3 1.8 5.4.4 2.2.4 6.8V170q10-12.2 23.4-12.2m131.094 10.8q1.2-11.2 15.8-11.2 7.8 0 11.6 1.2t5.2 4.2q1.6 3 1.8 5.4.4 2.2.4 6.8v70q0 4.6-.4 7-.2 2.2-1.6 5.2-2.8 5.2-13.8 5.2-10.8 0-14.6-2.6-3.6-2.8-4.2-8-7.4 10.6-24.8 10.6-17.2 0-32-15.8t-14.8-36.6q0-21 14.8-36.6 15-15.8 32.8-15.8 6.8 0 12.4 2.4t7.8 4.6q2.2 2 3.6 4m-36.4 41.6q0 6.6 5.2 12 5.2 5.2 12.6 5.2t12.2-5.4q5-5.4 5-11.8 0-6.6-4.8-12.2-4.6-5.6-12.6-5.6-7.8 0-12.8 5.6-4.8 5.6-4.8 12.2M614.6 253.4q-3.8-2.4-3.8-7.6t7.6-15.8q2.2-3.4 7-3.4 5 0 13.4 5 8.4 4.8 15.2 4.8 12.2 0 12.2-4.8 0-3.8-13.4-5.6-12.6-1.8-25-9.4-5.8-3.6-9.6-11.2-3.8-7.8-3.8-18.4 0-31.6 43.4-31.6 14.2 0 29.2 6.8 7 3.2 7 8t-4.4 11.8-9 7q-2.4 0-9-3-6.4-3-14-3-11.8 0-11.8 4.4 0 6 13.6 7.8 13.2 1.4 25.6 7.6 5.799 2.8 9.6 9.8 4 6.8 4 17.2t-4 17.8q-3.801 7.2-10.8 10.8-12.8 6.2-32.2 6.2-19.2 0-37-11.2M729.451 116l37 .2q29.001 0 51 21 22 20.8 22 51.4 0 30.4-21.6 52.2-21.4 21.8-52 21.8h-36.6q-12.2 0-15.2-5-2.4-4.2-2.4-12.8V133.6q0-4.8.2-7 .4-2.2 2-5.2 2.8-5.4 15.6-5.4m37 111.2q14.4 0 26-10.6 11.6-10.8 11.6-27t-11.4-27q-11.2-11-26.4-11h-19.2v75.6zm241.819-105.4q1.605 3 1.8 5.4c.27 1.6.4 3.933.4 7v111c0 9.2-2.53 14.6-7.6 16.2q-3.797 1.2-9.599 1.2-5.8 0-9.2-1t-5.199-2.4-2.8-4q-1-3.4-1-10.4v-67q-5.001 6.2-14.601 19.8-9.6 13.4-12.2 16.8t-3.599 4.8q-1 1.2-5 3.6-3.8 2.2-8.401 2.2-4.4 0-8.2-2-3.6-2.2-5.199-4.2l-1.601-2.2q-4-5-15.8-21.2-11.8-16.4-12.799-17.6v67.4q0 4.6-.401 7-.2 2.2-1.8 5-3 5.4-15.599 5.4-12.2 0-15.2-5.4-1.6-2.8-2-5.2-.201-2.4-.201-7.2v-111q0-4.6.201-6.8.4-2.4 2-5.4 3-5.2 15.599-5.2 5.4 0 9.2 1.4 4 1.2 5.201 2.6l1.2 1.2 45.399 59.6q34-45 45.401-59.4 3.4-5.4 16-5.4 12.793 0 15.598 5.4m108.42 66.8 40.21 44.2c4.53 5.067 6.79 9.333 6.79 12.8s-2.59 7.533-7.79 12.2c-5.07 4.667-9.4 7-13 7q-5.205 0-12.21-8l-38-43.6-38 43.6c-4.8 5.333-8.93 8-12.4 8-3.33 0-7.66-2.333-13-7q-7.8-7.2-7.8-12.2c0-3.333 2.34-7.6 7-12.8l40.2-44.2-40.2-44.2c-4.66-4.933-7-9.133-7-12.6q0-5.2 7.8-12.2c5.2-4.8 9.54-7.2 13-7.2 3.6 0 7.74 2.667 12.4 8l38 43.6 38-43.6q7.2-8 12.21-8c3.46 0 7.8 2.333 13 7s7.79 8.8 7.79 12.4-2.26 7.8-6.79 12.6zm-536.58-5.036v-3.742a3.83 3.83 0 0 0-3.827-3.826h-4.512a44.356 44.356 0 0 0-54.899 69.461 44.356 44.356 0 0 0 60.699-1.307 44.357 44.357 0 0 0 2.539-60.66zm-56.08 38.834a7.716 7.716 0 1 1-.002-15.431 7.716 7.716 0 0 1 .002 15.431m22.59 20.144a7.716 7.716 0 1 1-.002-15.431 7.716 7.716 0 0 1 .002 15.431m22.411-20.144a7.716 7.716 0 1 1-.002-15.431 7.716 7.716 0 0 1 .002 15.431"/><path fill="#087e8b" fill-rule="evenodd" d="M546.62 160.5a52 52 0 1 0 52 52 52.065 52.065 0 0 0-52-52m-27.717 93.495a49.9 49.9 0 0 0 27.717 8.407v-.01a49.956 49.956 0 0 0 49.892-49.892 49.891 49.891 0 1 0-77.609 41.495" clip-rule="evenodd"/><rect width="234" height="51" x="178.5" y="315.3" stroke="#087e8b" stroke-width="3" rx="25.5"/><path fill="#087e8b" d="M201.973 356.16q-1.04 0-1.56-.36a1.5 1.5 0 0 1-.68-.88 4.3 4.3 0 0 1-.16-1.2V330.6q0-.64.12-1.16.16-.56.68-.88.52-.36 1.64-.36l7.52.04q2.92 0 5.36 1 2.48 1 4.28 2.84t2.76 4.4q1 2.52 1 5.56 0 3.12-1 5.72t-2.8 4.48a12.6 12.6 0 0 1-4.28 2.92q-2.44 1-5.44 1zm2.44-4.84h5.12q2.56 0 4.48-1.12a7.8 7.8 0 0 0 2.96-3.2q1.08-2.04 1.08-4.76 0-2.76-1.08-4.8-1.04-2.08-3-3.2-1.92-1.16-4.48-1.16h-5.08zm24.828 4.84q-1.041 0-1.56-.32a1.48 1.48 0 0 1-.68-.88 6 6 0 0 1-.12-1.24v-23.08q0-.64.12-1.16.16-.56.68-.88.52-.36 1.64-.36.84 0 1.24.12.44.08.68.28.24.16.48.44l9.76 13.64h-.92l9.8-13.68a2.2 2.2 0 0 1 .56-.48q.279-.16.72-.24t1.16-.08q1.08 0 1.6.36.52.32.64.88.16.56.16 1.24v23.08q0 .6-.16 1.16-.12.56-.64.88t-1.64.32q-1.08 0-1.6-.36a1.48 1.48 0 0 1-.68-.88 5.7 5.7 0 0 1-.12-1.2v-17.16l-7.28 10.52q-.12.16-.36.44-.24.24-.64.44t-1.08.2q-.64 0-1.04-.2a2.4 2.4 0 0 1-.64-.44l-.4-.48-7.24-10.48v17.24q0 .6-.16 1.16-.12.56-.64.88t-1.64.32m53.092-.44q-.72.6-1.28.8-.52.2-1.04-.08-.48-.28-1.08-.96l-18.88-23.28q-.84-.96-.84-1.72t1.04-1.68q.72-.64 1.24-.8a1.28 1.28 0 0 1 1.08.08q.52.24 1.08.96l18.88 23.32q.92 1 .92 1.76 0 .72-1.12 1.6m-22.04 0q-1.08-.88-1.08-1.6 0-.76.88-1.76l18.88-23.32q.6-.72 1.08-.96.52-.28 1.04-.08.56.16 1.28.8 1.08.92 1.08 1.68t-.88 1.72l-18.88 23.28q-.6.68-1.12.96-.48.28-1.04.08-.52-.2-1.24-.8m27.415-7.92q-.52 0-1.04-.12-.48-.12-.8-.6-.28-.48-.28-1.56 0-1.04.28-1.48.32-.48.8-.6.52-.16 1-.16h9.96q.52 0 1 .16.48.12.76.6.32.44.32 1.52 0 1.04-.32 1.52-.28.48-.76.6t-1.04.12zm18.678 8.4q-1.12 0-1.64-.36-.52-.32-.64-.88a6 6 0 0 1-.12-1.24v-23.08q0-.64.12-1.2.16-.56.64-.88.52-.32 1.68-.32 1.12 0 1.6.32.52.32.64.88.16.56.16 1.24v23.08q0 .68-.16 1.24-.12.52-.64.84-.52.36-1.64.36m8.906-.04q-1.08 0-1.6-.36a1.35 1.35 0 0 1-.6-.84 6 6 0 0 1-.12-1.24v-14.96q0-.64.12-1.16t.64-.8q.52-.32 1.6-.32.96 0 1.44.24t.64.6.16.72q.04.36.08.56l-.16 1.28q.24-.64.8-1.24a6.2 6.2 0 0 1 1.36-1.08 6.7 6.7 0 0 1 1.72-.8 6.2 6.2 0 0 1 1.96-.32q1.88 0 3.36.68a7.14 7.14 0 0 1 2.52 1.92q1.08 1.24 1.64 2.96.56 1.68.56 3.8v7.96q0 .68-.16 1.24a1.35 1.35 0 0 1-.6.84q-.48.32-1.64.32-1.12 0-1.64-.36-.52-.32-.64-.84a6 6 0 0 1-.12-1.24v-7.96q0-1.44-.52-2.48a3.5 3.5 0 0 0-1.44-1.6q-.92-.56-2.36-.56-1.4 0-2.44.6a3.85 3.85 0 0 0-1.6 1.6q-.56 1.04-.56 2.44v8q0 .68-.12 1.24-.12.52-.64.84-.48.32-1.64.32m30.142-.24q-1.96 0-3.52-.72a7.9 7.9 0 0 1-2.6-2.08 10.2 10.2 0 0 1-1.6-3.12q-.52-1.76-.52-3.8.04-2.04.6-3.8.56-1.8 1.6-3.12a7.9 7.9 0 0 1 2.6-2.08q1.52-.76 3.44-.76 1.84 0 3.44.76a9 9 0 0 1 2.88 2.12 10 10 0 0 1 2 3.16q.72 1.76.72 3.8 0 2.08-.72 3.84a10 10 0 0 1-1.96 3.08 9 9 0 0 1-2.88 2 8.6 8.6 0 0 1-3.48.72m-8 8.32q-1.08 0-1.6-.32t-.64-.84a5.4 5.4 0 0 1-.12-1.2v-23q0-.68.12-1.2t.6-.84q.52-.36 1.6-.36 1.04 0 1.64.32t.8 1.08v23.96q.04.68-.12 1.2a1.33 1.33 0 0 1-.64.88q-.52.32-1.64.32m7.36-12.8q1.401 0 2.52-.64a4.85 4.85 0 0 0 1.76-1.84q.68-1.2.68-2.68 0-1.52-.68-2.68a4.57 4.57 0 0 0-1.76-1.8q-1.119-.68-2.52-.68-1.36 0-2.48.68a5.2 5.2 0 0 0-1.8 1.84q-.64 1.12-.64 2.64 0 1.48.64 2.68a5.2 5.2 0 0 0 1.8 1.84 4.9 4.9 0 0 0 2.48.64m21.219 4.72q-1.84 0-3.4-.64a8.3 8.3 0 0 1-2.68-1.92q-1.16-1.24-1.8-2.96t-.64-3.8v-7.96q0-.68.12-1.2.12-.56.64-.88t1.6-.32q1.16 0 1.64.32.52.32.64.88t.12 1.24v7.92q0 1.44.48 2.48.52 1.04 1.48 1.64.96.56 2.36.56 1.44 0 2.44-.56a4.1 4.1 0 0 0 1.6-1.64q.56-1.08.56-2.48v-8q0-.68.12-1.2.12-.56.64-.84.52-.32 1.64-.32t1.6.32.6.88q.16.56.16 1.2v15q0 .6-.16 1.12-.12.52-.64.84-.48.32-1.6.32-.8 0-1.28-.2-.44-.16-.68-.44a2.3 2.3 0 0 1-.28-.64 5 5 0 0 1-.04-.64l.32-1.08q-.24.36-.72.88-.48.48-1.2 1-.68.48-1.6.8a6.2 6.2 0 0 1-2.04.32m23.592.04q-1.96 0-3.36-.4-1.401-.4-2.28-1.24-.88-.84-1.32-2.16-.4-1.36-.4-3.2v-16.96q0-.72.12-1.24a1.36 1.36 0 0 1 .64-.8q.52-.32 1.6-.32 1.12 0 1.6.32.52.32.64.88.16.52.16 1.16v16.8q0 .84.12 1.36.16.52.44.8.32.24.8.36.52.08 1.24.08.76 0 1.28.12.56.12.84.6.28.44.28 1.48 0 1.12-.36 1.64-.32.48-.88.6-.52.12-1.16.12m-9-19.32 4.12.04 5.52-.16q.68 0 1.2.16.56.12.88.64.32.48.32 1.6 0 1.04-.32 1.56-.321.52-.84.68-.52.12-1.2.12l-5.36-.08-4.44.04q-1-.04-1.4-.56-.36-.56-.36-1.8 0-1.16.44-1.68.48-.56 1.44-.56"/><rect width="358" height="51" x="443.5" y="315.3" stroke="#087e8b" stroke-width="3" rx="25.5"/><path fill="#087e8b" d="M489.588 352.8q.4.76.4 1.36a1.37 1.37 0 0 1-.32 1q-.36.4-1.2.84-1.28.6-2 .32-.68-.28-1.28-1.56l-8.92-18.84-8.88 18.84q-.6 1.24-1.32 1.48-.72.28-2-.28-.8-.4-1.2-.84a1.44 1.44 0 0 1-.32-1.04q.08-.64.52-1.52l11-22.92q.32-.64.92-1 .64-.4 1.32-.4.48 0 .88.16t.72.48q.36.32.6.8zm-20.44-3.88 1.92-4.12h10.44l1.92 4.12zm25.683 7.28q-1.08 0-1.6-.36a1.37 1.37 0 0 1-.6-.88 6 6 0 0 1-.12-1.24v-14.84q0-.72.12-1.24.12-.56.6-.84.52-.32 1.64-.32 1.08 0 1.56.28.52.28.64.72.16.4.16.8l-.32.72q.2-.32.56-.76.36-.48.96-.92.6-.48 1.44-.76.84-.32 2-.32.48 0 1 .12.56.08 1.08.28.56.16 1 .44t.68.68q.24.36.24.84 0 1.28-.64 2.16t-1.52.88q-.6 0-.88-.12a2 2 0 0 1-.48-.28q-.16-.16-.52-.28-.32-.12-1.04-.12-.6 0-1.24.2-.6.2-1.12.6a2.95 2.95 0 0 0-.84 1.04q-.32.6-.32 1.4v9.72q0 .68-.12 1.24-.12.52-.64.84t-1.68.32m23.453 0q-1.959 0-3.36-.4t-2.28-1.24-1.32-2.16q-.4-1.36-.4-3.2v-16.96q0-.72.12-1.24.16-.52.64-.8.52-.32 1.6-.32 1.12 0 1.6.32.52.32.64.88.16.52.16 1.16v16.8q0 .84.12 1.36.16.52.44.8.32.24.8.36.52.08 1.24.08.76 0 1.28.12.561.12.84.6.28.44.28 1.48 0 1.12-.36 1.64-.32.48-.88.6-.52.12-1.16.12m-9-19.32 4.12.04 5.52-.16q.681 0 1.2.16.56.12.88.64.32.48.32 1.6 0 1.04-.32 1.56t-.84.68q-.519.12-1.2.12l-5.36-.08-4.44.04q-1-.04-1.4-.56-.36-.56-.36-1.8 0-1.16.44-1.68.48-.56 1.44-.56m15.463 10.92q-.52 0-1.04-.12-.48-.12-.8-.6-.28-.48-.28-1.56 0-1.04.28-1.48.32-.48.8-.6.52-.16 1-.16h9.96q.52 0 1 .16.48.12.76.6.32.44.32 1.52 0 1.04-.32 1.52-.28.48-.76.6t-1.04.12zm18.678 8.36q-1.08 0-1.6-.36a1.53 1.53 0 0 1-.64-.88 5.7 5.7 0 0 1-.12-1.2v-23.2q0-.6.16-1.12t.68-.84q.56-.32 1.64-.32 1.2 0 1.64.28.48.24.88.72l13.36 18.68v-17.4q0-.6.16-1.12t.68-.84 1.6-.32q1.12 0 1.6.36.52.32.64.88.16.56.16 1.24v23.04q0 .64-.2 1.2-.159.52-.72.84-.52.36-1.64.36-.88 0-1.4-.16-.48-.16-.88-.68l-13.56-18.64v17.08q0 .64-.16 1.2-.12.52-.64.84-.52.36-1.64.36m34.933.28q-2.601 0-4.56-.84-1.92-.84-3.24-2.28a10.8 10.8 0 0 1-1.96-3.28 11.5 11.5 0 0 1-.64-3.8q0-2.88 1.32-5.12a9.4 9.4 0 0 1 3.64-3.52q2.36-1.28 5.4-1.28 2.16 0 3.8.68t2.72 1.8q1.119 1.08 1.68 2.4.6 1.32.6 2.56 0 2.12-1.04 3.08-1 .96-2.52.96h-10.56q.039 1.36.84 2.36a5.8 5.8 0 0 0 2.08 1.56q1.28.52 2.6.52 1 0 1.76-.12.8-.12 1.36-.28.56-.2.96-.4.44-.2.8-.36a2.4 2.4 0 0 1 .68-.2q.44-.04.88.2t.72.84q.24.4.32.76.12.32.12.64 0 .8-.96 1.52-.96.68-2.72 1.12-1.72.48-4.08.48m-5.36-11.48h8.2q.68 0 1.04-.2.36-.24.36-.96 0-.92-.56-1.64-.56-.76-1.52-1.16-.96-.44-2.24-.44-1.48 0-2.68.6-1.2.56-1.92 1.56a3.9 3.9 0 0 0-.68 2.24m26.732 11.24q-1.96 0-3.36-.4-1.401-.4-2.28-1.24-.88-.84-1.32-2.16-.4-1.36-.4-3.2v-16.96q0-.72.12-1.24a1.36 1.36 0 0 1 .64-.8q.52-.32 1.6-.32 1.12 0 1.6.32.52.32.64.88.16.52.16 1.16v16.8q0 .84.12 1.36.16.52.44.8.32.24.8.36.52.08 1.24.08.76 0 1.28.12.56.12.84.6.28.44.28 1.48 0 1.12-.36 1.64-.32.48-.88.6-.52.12-1.16.12m-9-19.32 4.12.04 5.52-.16q.68 0 1.2.16.56.12.88.64.32.48.32 1.6 0 1.04-.32 1.56-.321.52-.84.68-.52.12-1.2.12l-5.36-.08-4.44.04q-1-.04-1.4-.56-.36-.56-.36-1.8 0-1.16.44-1.68.48-.56 1.44-.56m15.462 10.92q-.52 0-1.04-.12-.48-.12-.8-.6-.28-.48-.28-1.56 0-1.04.28-1.48.32-.48.8-.6.52-.16 1-.16h9.96q.52 0 1 .16.48.12.76.6.32.44.32 1.52 0 1.04-.32 1.52-.28.48-.76.6t-1.04.12zm18.919 8.36q-1.12 0-1.64-.32a1.33 1.33 0 0 1-.64-.88q-.12-.6-.12-1.24v-23.08q0-.64.12-1.16.16-.56.68-.88.52-.36 1.64-.36h8.48q1.76 0 3.44.6t3 1.8q1.36 1.2 2.12 2.96.8 1.76.8 4.12 0 2.32-.8 4.08a8.3 8.3 0 0 1-2.12 2.92q-1.36 1.2-3.04 1.8-1.64.6-3.44.6h-6.04v6.64q0 .64-.16 1.2-.12.56-.64.88-.48.32-1.64.32m2.44-13.92h6.08q1.24 0 2.24-.48a4.2 4.2 0 0 0 1.68-1.52q.64-1.04.64-2.6 0-1.4-.6-2.4a3.86 3.86 0 0 0-1.6-1.6q-1-.56-2.4-.56h-6.04zm21.225 13.96q-1.08 0-1.6-.36a1.37 1.37 0 0 1-.6-.88 6 6 0 0 1-.12-1.24v-14.84q0-.72.12-1.24.12-.56.6-.84.52-.32 1.64-.32 1.08 0 1.56.28.52.28.64.72.16.4.16.8l-.32.72q.2-.32.56-.76.36-.48.96-.92.6-.48 1.44-.76.84-.32 2-.32.48 0 1 .12.56.08 1.08.28a3.8 3.8 0 0 1 1 .44q.44.28.68.68.24.36.24.84 0 1.28-.64 2.16t-1.52.88q-.6 0-.88-.12a2 2 0 0 1-.48-.28q-.16-.16-.52-.28-.32-.12-1.04-.12-.6 0-1.24.2-.6.2-1.12.6a2.95 2.95 0 0 0-.84 1.04q-.32.6-.32 1.4v9.72q0 .68-.12 1.24-.12.52-.64.84t-1.68.32m22.66.24q-1.92 0-3.76-.72a11.3 11.3 0 0 1-3.28-2.12 10.7 10.7 0 0 1-2.32-3.2q-.84-1.84-.84-4.04 0-2.12.8-3.96a10.4 10.4 0 0 1 2.2-3.24q1.4-1.4 3.2-2.16a9.7 9.7 0 0 1 3.92-.8q2.8 0 5.08 1.36 2.28 1.32 3.64 3.6t1.36 5.16q0 2.28-.84 4.16a10.2 10.2 0 0 1-2.28 3.2q-1.44 1.32-3.24 2.04a9.5 9.5 0 0 1-3.64.72m-.08-4.72q1.32 0 2.52-.64a5.3 5.3 0 0 0 2-1.92q.8-1.24.8-2.92 0-1.56-.72-2.76a4.9 4.9 0 0 0-1.88-1.88q-1.2-.68-2.76-.68-1.48 0-2.68.72a5.1 5.1 0 0 0-1.92 1.92q-.68 1.2-.68 2.72 0 1.68.76 2.92a5.5 5.5 0 0 0 1.96 1.88q1.24.64 2.6.64m22.358 4.48q-1.96 0-3.36-.4t-2.28-1.24-1.32-2.16q-.4-1.36-.4-3.2v-16.96q0-.72.12-1.24.16-.52.64-.8.52-.32 1.6-.32 1.12 0 1.6.32.52.32.64.88.16.52.16 1.16v16.8q0 .84.12 1.36.16.52.44.8.32.24.8.36.52.08 1.24.08.76 0 1.28.12.56.12.84.6.28.44.28 1.48 0 1.12-.36 1.64-.32.48-.88.6-.52.12-1.16.12m-9-19.32 4.12.04 5.52-.16q.68 0 1.2.16.56.12.88.64.32.48.32 1.6 0 1.04-.32 1.56t-.84.68q-.52.12-1.2.12l-5.36-.08-4.44.04q-1-.04-1.4-.56-.36-.56-.36-1.8 0-1.16.44-1.68.48-.56 1.44-.56m24.222 19.56q-1.92 0-3.76-.72a11.3 11.3 0 0 1-3.28-2.12 10.7 10.7 0 0 1-2.32-3.2q-.84-1.84-.84-4.04 0-2.12.8-3.96a10.4 10.4 0 0 1 2.2-3.24q1.4-1.4 3.2-2.16a9.7 9.7 0 0 1 3.92-.8q2.8 0 5.08 1.36 2.28 1.32 3.64 3.6t1.36 5.16q0 2.28-.84 4.16a10.2 10.2 0 0 1-2.28 3.2q-1.44 1.32-3.24 2.04a9.5 9.5 0 0 1-3.64.72m-.08-4.72q1.32 0 2.52-.64a5.3 5.3 0 0 0 2-1.92q.8-1.24.8-2.92 0-1.56-.72-2.76a4.9 4.9 0 0 0-1.88-1.88q-1.2-.68-2.76-.68-1.48 0-2.68.72a5.1 5.1 0 0 0-1.92 1.92q-.68 1.2-.68 2.72 0 1.68.76 2.92a5.5 5.5 0 0 0 1.96 1.88q1.24.64 2.6.64m28.904.16q1.04.88 1.08 1.64.08.76-.8 1.76-.68.76-1.2 1t-1.04 0q-.52-.2-1.24-.8l-7.64-6.44v4.76q0 .64-.16 1.2a1.33 1.33 0 0 1-.64.88q-.48.32-1.6.32t-1.64-.36a1.37 1.37 0 0 1-.6-.88 5.7 5.7 0 0 1-.12-1.2v-23.88q0-.68.12-1.2.16-.56.64-.88.52-.36 1.64-.36t1.6.36q.48.32.6.88.16.52.16 1.24v13.12l5.52-5.36q.64-.6 1.2-.8.56-.24 1.08-.04.56.16 1.16.84 1 1.08.96 1.8-.04.68-1 1.64l-5.4 5zm12.192 4.56q-1.92 0-3.76-.72a11.3 11.3 0 0 1-3.28-2.12 10.7 10.7 0 0 1-2.32-3.2q-.84-1.84-.84-4.04 0-2.12.8-3.96a10.4 10.4 0 0 1 2.2-3.24q1.4-1.4 3.2-2.16a9.7 9.7 0 0 1 3.92-.8q2.8 0 5.08 1.36 2.28 1.32 3.64 3.6t1.36 5.16q0 2.28-.84 4.16a10.2 10.2 0 0 1-2.28 3.2q-1.44 1.32-3.24 2.04a9.5 9.5 0 0 1-3.64.72m-.08-4.72q1.32 0 2.52-.64a5.3 5.3 0 0 0 2-1.92q.8-1.24.8-2.92 0-1.56-.72-2.76a4.9 4.9 0 0 0-1.88-1.88q-1.2-.68-2.76-.68-1.48 0-2.68.72a5.1 5.1 0 0 0-1.92 1.92q-.68 1.2-.68 2.72 0 1.68.76 2.92a5.5 5.5 0 0 0 1.96 1.88 5.6 5.6 0 0 0 2.6.64m29.544 4.44q-1.401 0-2.52-.28a6.3 6.3 0 0 1-1.92-.84 5.5 5.5 0 0 1-1.4-1.44q-.561-.84-.84-1.96a11 11 0 0 1-.28-2.56V329.8q0-.68.12-1.2a1.33 1.33 0 0 1 .64-.88q.52-.32 1.64-.32 1.08 0 1.6.32t.64.88q.16.52.16 1.16v19.44q0 .56.12.96t.36.68q.28.28.68.4.44.12 1 .12.92 0 1.44.24t.76.76.24 1.4q0 .84-.28 1.4-.24.52-.8.76-.52.24-1.36.24m-10.12 0q-1.32 0-2.36-.28-1.041-.24-1.8-.8a4.9 4.9 0 0 1-1.28-1.4q-.48-.84-.72-1.96-.24-1.16-.24-2.64V329.8q0-.68.12-1.2a1.33 1.33 0 0 1 .64-.88q.52-.32 1.6-.32 1.12 0 1.6.32.52.32.64.88.16.52.16 1.16v19.44q0 .76.2 1.24.24.48.6.72.36.2.84.2.759 0 1.2.24t.6.76q.2.52.2 1.4 0 .84-.2 1.4-.2.52-.64.76t-1.16.24"/><rect width="269" height="51" x="832.5" y="315.3" stroke="#087e8b" stroke-width="3" rx="25.5"/><path fill="#087e8b" d="M855.7 356.16q-1.041 0-1.56-.36a1.48 1.48 0 0 1-.68-.88 4.3 4.3 0 0 1-.16-1.2V330.6q0-.64.12-1.16.16-.56.68-.88.52-.36 1.64-.36l7.52.04q2.92 0 5.36 1 2.48 1 4.28 2.84t2.76 4.4q1 2.52 1 5.56 0 3.12-1 5.72t-2.8 4.48a12.6 12.6 0 0 1-4.28 2.92q-2.44 1-5.44 1zm2.44-4.84h5.12q2.56 0 4.48-1.12 1.92-1.16 2.96-3.2 1.08-2.04 1.08-4.76 0-2.76-1.08-4.8-1.041-2.08-3-3.2-1.92-1.16-4.48-1.16h-5.08zm24.827 4.84q-1.04 0-1.56-.32a1.5 1.5 0 0 1-.68-.88 6 6 0 0 1-.12-1.24v-23.08q0-.64.12-1.16a1.5 1.5 0 0 1 .68-.88q.52-.36 1.64-.36.84 0 1.24.12.44.08.68.28.24.16.48.44l9.76 13.64h-.92l9.8-13.68q.28-.32.56-.48t.72-.24a7 7 0 0 1 1.16-.08q1.08 0 1.6.36.52.32.64.88.16.56.16 1.24v23.08q0 .6-.16 1.16a1.33 1.33 0 0 1-.64.88q-.52.32-1.64.32-1.08 0-1.6-.36a1.5 1.5 0 0 1-.68-.88 5.7 5.7 0 0 1-.12-1.2v-17.16l-7.28 10.52q-.12.16-.36.44a2.4 2.4 0 0 1-.64.44q-.399.2-1.08.2-.64 0-1.04-.2a2.5 2.5 0 0 1-.64-.44l-.4-.48-7.24-10.48v17.24q0 .6-.16 1.16a1.33 1.33 0 0 1-.64.88q-.52.32-1.64.32m53.093-.44q-.72.6-1.28.8a1.2 1.2 0 0 1-1.04-.08q-.48-.28-1.08-.96l-18.88-23.28q-.84-.96-.84-1.72t1.04-1.68q.72-.64 1.24-.8a1.28 1.28 0 0 1 1.08.08q.519.24 1.08.96l18.88 23.32q.92 1 .92 1.76 0 .72-1.12 1.6m-22.04 0q-1.08-.88-1.08-1.6 0-.76.88-1.76l18.88-23.32q.6-.72 1.08-.96a1.2 1.2 0 0 1 1.04-.08q.56.16 1.28.8 1.08.92 1.08 1.68t-.88 1.72l-18.88 23.28q-.6.68-1.12.96-.48.28-1.04.08-.52-.2-1.24-.8m27.414-7.92q-.52 0-1.04-.12-.48-.12-.8-.6-.28-.48-.28-1.56 0-1.04.28-1.48.32-.48.8-.6.52-.16 1-.16h9.96q.52 0 1 .16.48.12.76.6.32.44.32 1.52 0 1.04-.32 1.52-.28.48-.76.6t-1.04.12zm28.959 8.72q-2.88 0-5.4-1.08a14.8 14.8 0 0 1-4.4-3.04 14.5 14.5 0 0 1-3-4.48q-1.08-2.56-1.08-5.48 0-3 1.04-5.6 1.08-2.64 2.92-4.6a13.8 13.8 0 0 1 4.32-3.12q2.44-1.12 5.24-1.12 2.919 0 5.4 1.12 2.52 1.08 4.4 3.04a14.6 14.6 0 0 1 2.96 4.56q1.08 2.56 1.08 5.56 0 2.92-1.04 5.52a14.7 14.7 0 0 1-2.92 4.56 14.1 14.1 0 0 1-4.32 3.08q-2.4 1.08-5.2 1.08m-.2-4.88q1.84 0 3.44-.72a8.7 8.7 0 0 0 2.8-2 9.2 9.2 0 0 0 1.92-2.96 9.9 9.9 0 0 0 .68-3.68q0-1.96-.72-3.64a9.1 9.1 0 0 0-1.92-3 8.4 8.4 0 0 0-2.8-2.04q-1.56-.72-3.4-.72-1.8 0-3.4.72a8.8 8.8 0 0 0-2.84 2.04 9.4 9.4 0 0 0-1.88 3 9.8 9.8 0 0 0-.68 3.64q0 1.92.68 3.64a10 10 0 0 0 1.92 3q1.2 1.28 2.76 2 1.6.72 3.44.72m24.781 4.52q-1.84 0-3.4-.64a8.3 8.3 0 0 1-2.68-1.92q-1.16-1.24-1.8-2.96t-.64-3.8v-7.96q0-.68.12-1.2.12-.56.64-.88t1.6-.32q1.16 0 1.64.32.52.32.64.88t.12 1.24v7.92q0 1.44.48 2.48.52 1.04 1.48 1.64.96.56 2.36.56 1.44 0 2.44-.56a4.1 4.1 0 0 0 1.6-1.64c.374-.72.556-1.547.556-2.48v-8q0-.68.12-1.2c.08-.373.3-.653.64-.84.35-.213.9-.32 1.64-.32.75 0 1.28.107 1.6.32q.48.32.6.88c.11.373.16.773.16 1.2v15c0 .4-.05.773-.16 1.12-.08.347-.29.627-.64.84-.32.213-.85.32-1.6.32-.53 0-.96-.067-1.28-.2-.29-.107-.52-.253-.68-.44a2.6 2.6 0 0 1-.28-.64 7 7 0 0 1-.04-.64l.32-1.08q-.241.36-.716.88-.48.48-1.2 1-.68.48-1.6.8a6.2 6.2 0 0 1-2.04.32m23.596.04q-1.965 0-3.36-.4-1.41-.4-2.28-1.24-.885-.84-1.32-2.16c-.27-.907-.4-1.973-.4-3.2v-16.96q0-.72.12-1.24c.1-.347.32-.613.64-.8.34-.213.88-.32 1.6-.32.74 0 1.28.107 1.6.32.34.213.56.507.64.88.1.347.16.733.16 1.16v16.8q0 .84.12 1.36c.1.347.25.613.44.8.21.16.48.28.8.36.34.053.76.08 1.24.08.5 0 .93.04 1.28.12q.555.12.84.6c.18.293.28.787.28 1.48q0 1.12-.36 1.64c-.22.32-.51.52-.88.6-.35.08-.74.12-1.16.12m-9-19.32 4.12.04 5.52-.16q.675 0 1.2.16c.37.08.66.293.88.64.21.32.32.853.32 1.6 0 .693-.11 1.213-.32 1.56q-.33.52-.84.68-.525.12-1.2.12l-5.36-.08-4.44.04c-.67-.027-1.14-.213-1.4-.56q-.36-.56-.36-1.8c0-.773.14-1.333.44-1.68q.48-.56 1.44-.56m25.14 19.04c-1.31 0-2.48-.24-3.52-.72a7.8 7.8 0 0 1-2.6-2.08c-.7-.907-1.23-1.947-1.6-3.12-.35-1.173-.52-2.44-.52-3.8q.03-2.04.6-3.8c.37-1.2.9-2.24 1.6-3.12a7.8 7.8 0 0 1 2.6-2.08c1.01-.507 2.16-.76 3.44-.76 1.22 0 2.37.253 3.44.76a9 9 0 0 1 2.88 2.12c.85.907 1.52 1.96 2 3.16q.72 1.76.72 3.8 0 2.08-.72 3.84c-.48 1.173-1.14 2.2-1.96 3.08a9.1 9.1 0 0 1-2.88 2q-1.65.72-3.48.72m-8 8.32c-.72 0-1.26-.107-1.6-.32-.35-.213-.56-.493-.64-.84a5.4 5.4 0 0 1-.12-1.2v-23q0-.68.12-1.2t.6-.84c.34-.24.88-.36 1.6-.36.69 0 1.24.107 1.64.32s.66.573.8 1.08v23.96q.03.68-.12 1.2c-.08.373-.3.667-.64.88-.35.213-.9.32-1.64.32m7.36-12.8q1.395 0 2.52-.64a4.94 4.94 0 0 0 1.76-1.84c.45-.8.68-1.693.68-2.68 0-1.013-.23-1.907-.68-2.68a4.64 4.64 0 0 0-1.76-1.8q-1.125-.68-2.52-.68c-.91 0-1.74.227-2.48.68a5.1 5.1 0 0 0-1.8 1.84c-.43.747-.64 1.627-.64 2.64 0 .987.21 1.88.64 2.68a5.1 5.1 0 0 0 1.8 1.84c.74.427 1.57.64 2.48.64m21.22 4.72c-1.23 0-2.36-.213-3.4-.64a8.1 8.1 0 0 1-2.68-1.92q-1.17-1.24-1.8-2.96c-.43-1.147-.64-2.413-.64-3.8v-7.96q0-.68.12-1.2c.08-.373.29-.667.64-.88.34-.213.88-.32 1.6-.32.77 0 1.32.107 1.64.32.34.213.56.507.64.88q.12.56.12 1.24v7.92q0 1.44.48 2.48c.34.693.84 1.24 1.48 1.64.64.373 1.42.56 2.36.56.96 0 1.77-.187 2.44-.56.69-.4 1.22-.947 1.6-1.64.37-.72.56-1.547.56-2.48v-8q0-.68.12-1.2c.08-.373.29-.653.64-.84.34-.213.89-.32 1.64-.32.74 0 1.28.107 1.6.32q.48.32.6.88c.1.373.16.773.16 1.2v15c0 .4-.06.773-.16 1.12-.08.347-.3.627-.64.84-.32.213-.86.32-1.6.32-.54 0-.96-.067-1.28-.2-.3-.107-.52-.253-.68-.44a2 2 0 0 1-.28-.64 5 5 0 0 1-.04-.64l.32-1.08q-.24.36-.72.88-.48.48-1.2 1c-.46.32-.99.587-1.6.8q-.93.32-2.04.32m23.59.04q-1.965 0-3.36-.4-1.41-.4-2.28-1.24-.885-.84-1.32-2.16c-.27-.907-.4-1.973-.4-3.2v-16.96q0-.72.12-1.24c.1-.347.32-.613.64-.8.34-.213.88-.32 1.6-.32.74 0 1.28.107 1.6.32.34.213.56.507.64.88.1.347.16.733.16 1.16v16.8q0 .84.12 1.36c.1.347.25.613.44.8.21.16.48.28.8.36.34.053.76.08 1.24.08.5 0 .93.04 1.28.12q.555.12.84.6c.18.293.28.787.28 1.48q0 1.12-.36 1.64c-.22.32-.51.52-.88.6-.35.08-.74.12-1.16.12m-9-19.32 4.12.04 5.52-.16q.675 0 1.2.16c.37.08.66.293.88.64.21.32.32.853.32 1.6 0 .693-.11 1.213-.32 1.56q-.33.52-.84.68-.525.12-1.2.12l-5.36-.08-4.44.04c-.67-.027-1.14-.213-1.4-.56q-.36-.56-.36-1.8c0-.773.14-1.333.44-1.68q.48-.56 1.44-.56"/><rect width="118" height="51" x="341.5" y="397.3" stroke="#087e8b" stroke-width="3" rx="25.5"/><path fill="#087e8b" d="M371.84 438.08q-.8 0-1.28-.28a2.3 2.3 0 0 1-.72-.72 4 4 0 0 1-.28-.68l-7.84-22.96q-.399-1.28-.12-1.92.28-.68 1.64-1.12.92-.32 1.48-.28t.92.48q.4.4.68 1.28l5.76 17.44 5.16-17.28q.12-.4.32-.8.24-.44.72-.72t1.32-.28q.96 0 1.44.32t.68.72q.24.36.32.68l5.16 17.48 5.8-17.52q.28-.92.64-1.36.4-.44 1-.48.6-.08 1.48.24.921.32 1.32.72.4.36.4.96 0 .56-.28 1.44l-7.8 23q-.08.24-.32.64-.2.4-.68.72-.48.28-1.32.28t-1.32-.36-.72-.8a7 7 0 0 1-.32-.64l-5.44-17.6-5.44 17.56q-.08.28-.32.72-.2.44-.68.8-.48.32-1.36.32m30.429.12q-1.08 0-1.6-.36-.52-.32-.64-.84a6 6 0 0 1-.12-1.24v-14.88q0-.64.12-1.16.16-.56.64-.88.52-.32 1.64-.32t1.6.32q.52.32.64.88t.12 1.24v14.84q0 .68-.12 1.24-.12.52-.64.84-.48.32-1.64.32m0-23.56q-1.16 0-1.72-.32a1.65 1.65 0 0 1-.68-.96q-.12-.6-.12-1.32 0-.76.12-1.32.16-.56.72-.88.56-.36 1.72-.36 1.2 0 1.72.36t.68.96q.16.56.16 1.32 0 .68-.16 1.28t-.68.92-1.76.32m9.656 23.56q-1.12 0-1.64-.36a1.33 1.33 0 0 1-.64-.88 6 6 0 0 1-.12-1.24v-23.08q0-1.36.52-1.88.56-.52 2-.52h15.6q.68 0 1.2.16.52.12.84.64.32.48.32 1.64 0 1.12-.36 1.64a1.33 1.33 0 0 1-.88.64q-.52.12-1.2.12h-13.2v6.72h9.08q.68 0 1.16.16.52.12.76.6.28.44.28 1.48 0 .96-.28 1.44-.28.44-.8.56-.48.08-1.16.08h-9.04v9.64q0 .68-.16 1.24-.12.52-.64.84-.52.36-1.64.36m23.899 0q-1.08 0-1.6-.36-.52-.32-.64-.84a6 6 0 0 1-.12-1.24v-14.88q0-.64.12-1.16.16-.56.64-.88.52-.32 1.64-.32t1.6.32q.52.32.64.88t.12 1.24v14.84q0 .68-.12 1.24-.12.52-.64.84-.48.32-1.64.32m0-23.56q-1.16 0-1.72-.32a1.65 1.65 0 0 1-.68-.96q-.12-.6-.12-1.32 0-.76.12-1.32.159-.56.72-.88.56-.36 1.72-.36 1.2 0 1.72.36t.68.96q.16.56.16 1.32 0 .68-.16 1.28t-.68.92-1.76.32"/><rect width="197" height="51" x="490.5" y="397.3" stroke="#087e8b" stroke-width="3" rx="25.5"/><path fill="#087e8b" d="M514.116 438.2q-1.12 0-1.64-.36-.52-.32-.64-.88a6 6 0 0 1-.12-1.24v-23.08q0-1.36.52-1.88.56-.52 2-.52h15.6q.681 0 1.2.16.56.12.88.64.32.48.32 1.64 0 1.12-.36 1.64-.32.52-.88.64-.519.12-1.2.12h-13.24v6.72h9.12q.68 0 1.16.16.48.12.76.56t.28 1.48q0 1-.28 1.48-.28.44-.8.56-.519.08-1.2.08h-9.04v7.2h13.28q.681 0 1.2.16.56.12.88.64t.32 1.64-.36 1.64q-.32.52-.88.64-.519.16-1.2.16zm31.528 0q-1.96 0-3.36-.4-1.401-.4-2.28-1.24-.88-.84-1.32-2.16-.4-1.36-.4-3.2v-16.96q0-.72.12-1.24a1.36 1.36 0 0 1 .64-.8q.52-.32 1.6-.32 1.12 0 1.6.32.52.32.64.88.16.52.16 1.16v16.8q0 .84.12 1.36.16.52.44.8.32.24.8.36.52.08 1.24.08.76 0 1.28.12.56.12.84.6.28.44.28 1.48 0 1.12-.36 1.64-.32.48-.88.6-.52.12-1.16.12m-9-19.32 4.12.04 5.52-.16q.68 0 1.2.16.56.12.88.64.32.48.32 1.6 0 1.04-.32 1.56-.321.52-.84.68-.52.12-1.2.12l-5.36-.08-4.44.04q-1-.04-1.4-.56-.36-.56-.36-1.8 0-1.16.44-1.68.48-.56 1.44-.56m17.182 19.32q-1.12 0-1.64-.36a1.37 1.37 0 0 1-.6-.88 5.7 5.7 0 0 1-.12-1.2v-23.88q0-.68.12-1.2.16-.56.64-.88.52-.32 1.64-.32t1.6.36q.52.32.64.88.16.52.16 1.2v9.04q.8-.92 2.04-1.68 1.28-.8 3.08-.8 2.44 0 4.36 1.2 1.92 1.16 3.04 3.24t1.12 4.88v8q0 .64-.12 1.2-.12.52-.64.84-.48.32-1.6.32t-1.64-.32-.64-.84q-.12-.56-.12-1.28v-7.96q0-1.4-.48-2.44a3.5 3.5 0 0 0-1.44-1.6q-.92-.6-2.32-.6-1.88 0-3.16 1.12-1.28 1.08-1.48 2.8v8.76q0 .64-.16 1.2a1.33 1.33 0 0 1-.64.88q-.48.32-1.64.32m29.157.24q-2.601 0-4.56-.84-1.92-.84-3.24-2.28a10.8 10.8 0 0 1-1.96-3.28 11.5 11.5 0 0 1-.64-3.8q0-2.88 1.32-5.12a9.4 9.4 0 0 1 3.64-3.52q2.36-1.28 5.4-1.28 2.16 0 3.8.68t2.72 1.8q1.119 1.08 1.68 2.4.6 1.32.6 2.56 0 2.12-1.04 3.08-1 .96-2.52.96h-10.56q.039 1.36.84 2.36a5.8 5.8 0 0 0 2.08 1.56q1.28.52 2.6.52 1 0 1.76-.12.8-.12 1.36-.28.56-.2.96-.4.44-.2.8-.36a2.4 2.4 0 0 1 .68-.2q.44-.04.88.2t.72.84q.24.4.32.76.12.32.12.64 0 .8-.96 1.52-.96.68-2.72 1.12-1.72.48-4.08.48m-5.36-11.48h8.2q.68 0 1.04-.2.36-.24.36-.96 0-.92-.56-1.64-.56-.76-1.52-1.16-.96-.44-2.24-.44-1.48 0-2.68.6-1.2.56-1.92 1.56a3.9 3.9 0 0 0-.68 2.24m19.762 11.24q-1.08 0-1.6-.36a1.37 1.37 0 0 1-.6-.88 6 6 0 0 1-.12-1.24v-14.84q0-.72.12-1.24.12-.56.6-.84.52-.32 1.64-.32 1.08 0 1.56.28.52.28.64.72.16.4.16.8l-.32.72a8 8 0 0 1 .56-.76q.36-.48.96-.92.6-.48 1.44-.76.84-.32 2-.32.48 0 1 .12.561.08 1.08.28.56.16 1 .44t.68.68q.24.36.24.84 0 1.28-.64 2.16t-1.52.88q-.6 0-.88-.12a2 2 0 0 1-.48-.28q-.16-.16-.52-.28-.32-.12-1.04-.12-.6 0-1.24.2-.6.2-1.12.6a3 3 0 0 0-.84 1.04q-.32.6-.32 1.4v9.72q0 .68-.12 1.24-.12.52-.64.84-.519.32-1.68.32m16.602-.04q-1.08 0-1.6-.36a1.35 1.35 0 0 1-.6-.84 6 6 0 0 1-.12-1.24v-14.96q0-.64.12-1.16t.64-.8q.52-.32 1.6-.32.96 0 1.44.24t.64.6.16.72q.04.36.08.56l-.16 1.28q.24-.64.8-1.24t1.36-1.08a6.7 6.7 0 0 1 1.72-.8 6.2 6.2 0 0 1 1.96-.32q1.88 0 3.36.68a7.1 7.1 0 0 1 2.52 1.92q1.08 1.24 1.64 2.96.56 1.68.56 3.8v7.96q0 .68-.16 1.24a1.35 1.35 0 0 1-.6.84q-.48.32-1.64.32-1.12 0-1.64-.36-.52-.32-.64-.84a6 6 0 0 1-.12-1.24v-7.96q0-1.44-.52-2.48a3.5 3.5 0 0 0-1.44-1.6q-.92-.56-2.36-.56-1.4 0-2.44.6a3.86 3.86 0 0 0-1.6 1.6q-.56 1.04-.56 2.44v8q0 .68-.12 1.24-.12.52-.64.84-.48.32-1.64.32m29.543.28q-2.601 0-4.56-.84-1.92-.84-3.24-2.28a10.8 10.8 0 0 1-1.96-3.28 11.5 11.5 0 0 1-.64-3.8q0-2.88 1.32-5.12a9.4 9.4 0 0 1 3.64-3.52q2.36-1.28 5.4-1.28 2.16 0 3.8.68t2.72 1.8q1.119 1.08 1.68 2.4.6 1.32.6 2.56 0 2.12-1.04 3.08-1 .96-2.52.96h-10.56q.039 1.36.84 2.36a5.8 5.8 0 0 0 2.08 1.56q1.28.52 2.6.52 1 0 1.76-.12.8-.12 1.36-.28.56-.2.96-.4.44-.2.8-.36a2.4 2.4 0 0 1 .68-.2q.44-.04.88.2t.72.84q.24.4.32.76.12.32.12.64 0 .8-.96 1.52-.96.68-2.72 1.12-1.72.48-4.08.48m-5.36-11.48h8.2q.68 0 1.04-.2.36-.24.36-.96 0-.92-.56-1.64-.56-.76-1.52-1.16-.96-.44-2.24-.44-1.48 0-2.68.6-1.2.56-1.92 1.56a3.9 3.9 0 0 0-.68 2.24m26.732 11.24q-1.96 0-3.36-.4-1.401-.4-2.28-1.24-.88-.84-1.32-2.16-.4-1.36-.4-3.2v-16.96q0-.72.12-1.24a1.36 1.36 0 0 1 .64-.8q.52-.32 1.6-.32 1.12 0 1.6.32.52.32.64.88.16.52.16 1.16v16.8q0 .84.12 1.36.16.52.44.8.32.24.8.36.52.08 1.24.08.76 0 1.28.12.56.12.84.6.28.44.28 1.48 0 1.12-.36 1.64-.32.48-.88.6-.52.12-1.16.12m-9-19.32 4.12.04 5.52-.16q.68 0 1.2.16.56.12.88.64.32.48.32 1.6 0 1.04-.32 1.56-.321.52-.84.68-.52.12-1.2.12l-5.36-.08-4.44.04q-1-.04-1.4-.56-.36-.56-.36-1.8 0-1.16.44-1.68.48-.56 1.44-.56"/><rect width="220" height="51" x="718.5" y="397.3" stroke="#087e8b" stroke-width="3" rx="25.5"/><path fill="#087e8b" d="M742.151 438.2q-1.12 0-1.64-.36-.52-.32-.64-.88a6 6 0 0 1-.12-1.24v-23.08q0-1.36.52-1.88.56-.52 2-.52h15.6q.681 0 1.2.16.56.12.88.64.32.48.32 1.64 0 1.12-.36 1.64-.32.52-.88.64-.519.12-1.2.12h-13.24v6.72h9.12q.68 0 1.16.16.48.12.76.56t.28 1.48q0 1-.28 1.48-.28.44-.8.56-.519.08-1.2.08h-9.04v7.2h13.28q.681 0 1.2.16.56.12.88.64t.32 1.64-.36 1.64q-.32.52-.88.64-.519.16-1.2.16zm30.568.36q-1.8 0-3.28-.44a11.3 11.3 0 0 1-2.56-1.12q-1.08-.68-1.84-1.4t-1.12-1.32q-.52-.72-.68-1.28a1.5 1.5 0 0 1 .08-1.08q.28-.56 1-1.16.72-.64 1.32-.64.64-.04 1.2.36.6.4 1.16 1.12.96 1.28 2.16 1.84 1.2.52 2.4.52 1.56 0 2.72-.4 1.16-.44 1.8-1.28.68-.84.68-2.16 0-1.08-.68-1.76-.64-.72-1.72-1.2a16 16 0 0 0-2.44-.92 65 65 0 0 1-2.68-.96 19 19 0 0 1-1.92-.76q-.96-.48-1.8-1.08a8 8 0 0 1-1.44-1.4q-.6-.84-.96-1.92t-.36-2.52q0-2.28 1.12-4 1.12-1.76 3.12-2.76 2-1.04 4.56-1.04 1.64 0 2.92.32 1.32.28 2.24.76.96.44 1.56.92.64.44.92.76.92.92 1 1.56.12.6-.72 1.64-.84 1.08-1.64 1.2-.76.08-1.72-.64a6.6 6.6 0 0 0-1.28-1.08 4.4 4.4 0 0 0-1.44-.64q-.76-.2-1.88-.2-.8 0-1.56.24a3.2 3.2 0 0 0-1.24.64q-.52.4-.84 1-.28.6-.28 1.36 0 1.04.56 1.72.6.64 1.6 1.08 1 .4 2.24.76t2.52.76q1.32.44 2.6 1.04t2.28 1.52q1 .88 1.6 2.24.6 1.32.6 3.24 0 2.2-.84 3.84a7.4 7.4 0 0 1-2.28 2.68 9.9 9.9 0 0 1-3.2 1.52 12.5 12.5 0 0 1-3.56.52m15.872-.4q-1.12 0-1.64-.32a1.33 1.33 0 0 1-.64-.88q-.12-.6-.12-1.24v-23.08q0-.64.12-1.16.16-.56.68-.88.52-.36 1.64-.36h8.48q1.76 0 3.44.6t3 1.8q1.36 1.2 2.12 2.96.8 1.76.8 4.12 0 2.32-.8 4.08a8.3 8.3 0 0 1-2.12 2.92q-1.36 1.2-3.04 1.8-1.64.6-3.44.6h-6.04v6.64q0 .64-.16 1.2a1.33 1.33 0 0 1-.64.88q-.48.32-1.64.32m2.44-13.92h6.08q1.24 0 2.24-.48a4.2 4.2 0 0 0 1.68-1.52q.64-1.04.64-2.6 0-1.4-.6-2.4a3.86 3.86 0 0 0-1.6-1.6q-1-.56-2.4-.56h-6.04zm19.305 5.56q-.52 0-1.04-.12-.48-.12-.8-.6-.28-.48-.28-1.56 0-1.04.28-1.48.32-.48.8-.6.52-.16 1-.16h9.96q.52 0 1 .16.48.12.76.6.32.44.32 1.52 0 1.04-.32 1.52-.28.48-.76.6t-1.04.12zm18.679 8.36q-1.08 0-1.6-.36a1.53 1.53 0 0 1-.64-.88 5.7 5.7 0 0 1-.12-1.2v-23.2q0-.6.16-1.12t.68-.84q.56-.32 1.64-.32 1.2 0 1.64.28.48.24.88.72l13.36 18.68v-17.4q0-.6.16-1.12t.68-.84 1.6-.32q1.12 0 1.6.36.52.32.64.88.16.56.16 1.24v23.04q0 .64-.2 1.2-.16.52-.72.84-.52.36-1.64.36-.88 0-1.4-.16-.48-.16-.88-.68l-13.56-18.64v17.08q0 .64-.16 1.2-.12.52-.64.84-.52.36-1.64.36m38.093.36q-2.88 0-5.4-1.08a14.8 14.8 0 0 1-4.4-3.04 14.5 14.5 0 0 1-3-4.48q-1.08-2.56-1.08-5.48 0-3 1.04-5.6 1.08-2.64 2.92-4.6a13.8 13.8 0 0 1 4.32-3.12q2.44-1.12 5.24-1.12 2.919 0 5.4 1.12 2.52 1.08 4.4 3.04a14.6 14.6 0 0 1 2.96 4.56q1.08 2.56 1.08 5.56 0 2.92-1.04 5.52a14.7 14.7 0 0 1-2.92 4.56 14.1 14.1 0 0 1-4.32 3.08q-2.4 1.08-5.2 1.08m-.2-4.88q1.84 0 3.44-.72a8.7 8.7 0 0 0 2.8-2 9.2 9.2 0 0 0 1.92-2.96 9.9 9.9 0 0 0 .68-3.68q0-1.96-.72-3.64a9.1 9.1 0 0 0-1.92-3 8.4 8.4 0 0 0-2.8-2.04q-1.56-.72-3.4-.72-1.8 0-3.4.72a8.8 8.8 0 0 0-2.84 2.04 9.4 9.4 0 0 0-1.88 3 9.8 9.8 0 0 0-.68 3.64q0 1.92.68 3.64a10 10 0 0 0 1.92 3q1.2 1.28 2.76 2 1.6.72 3.44.72m25.901 4.44q-.8 0-1.28-.28a2.3 2.3 0 0 1-.72-.72 4 4 0 0 1-.28-.68l-7.84-22.96q-.399-1.28-.12-1.92.28-.68 1.64-1.12.92-.32 1.48-.28t.92.48q.4.4.68 1.28l5.76 17.44 5.16-17.28q.12-.4.32-.8.24-.44.72-.72t1.32-.28q.96 0 1.44.32t.68.72q.24.36.32.68l5.16 17.48 5.8-17.52q.28-.92.64-1.36.4-.44 1-.48.6-.08 1.48.24.921.32 1.32.72.4.36.4.96 0 .56-.28 1.44l-7.8 23q-.08.24-.32.64-.2.4-.68.72-.48.28-1.32.28t-1.32-.36-.72-.8a7 7 0 0 1-.32-.64l-5.44-17.6-5.44 17.56q-.08.28-.32.72-.2.44-.68.8-.48.32-1.36.32"/><rect width="377" height="51" x="451.5" y="479.3" stroke="#087e8b" stroke-width="3" rx="25.5"/><path fill="#087e8b" d="M481.811 520.24q-1.32 0-1.84-.52-.52-.56-.52-1.92v-23.2q0-1.32.52-1.84t1.88-.52q1.32 0 1.84.56.52.52.52 1.88v23.16q0 1.32-.52 1.88-.52.52-1.88.52m-6.16-17.56q-.92.84-1.64.84-.72-.04-1.6-1-.84-.92-.8-1.72.08-.8 1.12-1.72l6.84-6.04q.92-.8 1.64-.72.76.04 1.6.96.88.92.8 1.72t-1.16 1.72zm21.988 17.8q-2.36 0-4.12-.76-1.76-.8-2.96-2.16-1.2-1.4-1.92-3.2a18.4 18.4 0 0 1-1.04-3.92 28 28 0 0 1-.32-4.28q0-2.08.32-4.12a19.3 19.3 0 0 1 1-3.84 11.2 11.2 0 0 1 1.92-3.24 8.3 8.3 0 0 1 2.92-2.24q1.76-.84 4.12-.84 2.28 0 3.96.8a8.1 8.1 0 0 1 2.88 2.2q1.2 1.4 1.92 3.24t1.04 3.92q.32 2.04.32 4.16 0 2.16-.32 4.24a18.4 18.4 0 0 1-1.04 3.92q-.72 1.8-1.92 3.2a8.45 8.45 0 0 1-2.84 2.16q-1.68.76-3.92.76m-.2-4.88q1.64 0 2.64-.68a4.96 4.96 0 0 0 1.56-1.84q.6-1.12.84-2.4t.28-2.4q.08-1.16.08-1.88v-.24q0-3-.6-5.12t-1.8-3.2q-1.16-1.12-2.92-1.12-1.84 0-3.04 1.12-1.2 1.08-1.8 3.2-.56 2.08-.56 5.16 0 3 .6 5.12.6 2.08 1.76 3.2 1.2 1.08 2.96 1.08m23.403 4.88q-2.36 0-4.12-.76-1.76-.8-2.96-2.16-1.2-1.4-1.92-3.2a18.4 18.4 0 0 1-1.04-3.92 28 28 0 0 1-.32-4.28q0-2.08.32-4.12a19.3 19.3 0 0 1 1-3.84 11.2 11.2 0 0 1 1.92-3.24 8.3 8.3 0 0 1 2.92-2.24q1.76-.84 4.12-.84 2.28 0 3.96.8a8.1 8.1 0 0 1 2.88 2.2q1.2 1.4 1.92 3.24t1.04 3.92q.32 2.04.32 4.16 0 2.16-.32 4.24a18.4 18.4 0 0 1-1.04 3.92q-.72 1.8-1.92 3.2a8.45 8.45 0 0 1-2.84 2.16q-1.68.76-3.92.76m-.2-4.88q1.64 0 2.64-.68a4.96 4.96 0 0 0 1.56-1.84q.6-1.12.84-2.4t.28-2.4q.08-1.16.08-1.88v-.24q0-3-.6-5.12t-1.8-3.2q-1.16-1.12-2.92-1.12-1.84 0-3.04 1.12-1.2 1.08-1.8 3.2-.56 2.08-.56 5.16 0 3 .6 5.12.6 2.08 1.76 3.2 1.2 1.08 2.96 1.08m19.843 5.72a2.1 2.1 0 0 1-.68-.56q-.24-.28-.24-.72.04-.44.36-1l14.36-27.08q.32-.56.6-.84.32-.28.72-.28t.88.28q.52.28.72.6.24.32.16.72-.04.4-.36.96l-14.4 27.16q-.28.56-.6.8a.87.87 0 0 1-.68.2q-.36 0-.84-.24m-.04-14.36q-3.16 0-5.08-2-1.88-2.04-1.88-5.36 0-3.36 1.88-5.4t5.04-2.04q3.2 0 5.04 2 1.88 2 1.88 5.4 0 3.44-1.84 5.44-1.84 1.96-5.04 1.96m-.04-3.68q1.6 0 2.48-1 .92-1 .92-2.8 0-1.76-.88-2.68-.88-.96-2.52-.96t-2.56.96q-.88.96-.88 2.72 0 1.8.88 2.8.92.96 2.56.96m16.28 16.96q-3.12 0-5.04-2.04t-1.92-5.36q0-3.36 1.88-5.36 1.92-2.04 5.08-2.04t5 2q1.88 1.96 1.88 5.36 0 3.48-1.84 5.48-1.84 1.96-5.04 1.96m0-3.68q1.6 0 2.48-1t.88-2.8q0-1.76-.88-2.68-.88-.96-2.48-.96-1.64 0-2.56.96-.88.96-.88 2.72 0 1.8.88 2.8.92.96 2.56.96m32.626 3.96q-2.88 0-5.4-1.08a14.8 14.8 0 0 1-4.4-3.04 14.5 14.5 0 0 1-3-4.48q-1.08-2.56-1.08-5.48 0-3 1.04-5.6 1.08-2.64 2.92-4.6a13.8 13.8 0 0 1 4.32-3.12q2.44-1.12 5.24-1.12 2.919 0 5.4 1.12 2.52 1.08 4.4 3.04a14.6 14.6 0 0 1 2.96 4.56q1.08 2.56 1.08 5.56 0 2.92-1.04 5.52a14.7 14.7 0 0 1-2.92 4.56 14.1 14.1 0 0 1-4.32 3.08q-2.4 1.08-5.2 1.08m-.2-4.88q1.84 0 3.44-.72a8.7 8.7 0 0 0 2.8-2 9.2 9.2 0 0 0 1.92-2.96 9.9 9.9 0 0 0 .68-3.68q0-1.96-.72-3.64a9.1 9.1 0 0 0-1.92-3 8.4 8.4 0 0 0-2.8-2.04q-1.56-.72-3.4-.72-1.8 0-3.4.72a8.8 8.8 0 0 0-2.84 2.04 9.4 9.4 0 0 0-1.88 3 9.8 9.8 0 0 0-.68 3.64q0 1.92.68 3.64a10 10 0 0 0 1.92 3q1.2 1.28 2.76 2 1.6.72 3.44.72m26.741 4.28q-1.96 0-3.52-.72a7.9 7.9 0 0 1-2.6-2.08 10.2 10.2 0 0 1-1.6-3.12q-.52-1.76-.52-3.8.04-2.04.6-3.8.56-1.8 1.6-3.12a7.9 7.9 0 0 1 2.6-2.08q1.52-.76 3.44-.76 1.84 0 3.44.76a9 9 0 0 1 2.88 2.12 10 10 0 0 1 2 3.16q.72 1.76.72 3.8 0 2.08-.72 3.84a10 10 0 0 1-1.96 3.08 9 9 0 0 1-2.88 2 8.6 8.6 0 0 1-3.48.72m-8 8.32q-1.08 0-1.6-.32t-.64-.84a5.4 5.4 0 0 1-.12-1.2v-23q0-.68.12-1.2t.6-.84q.52-.36 1.6-.36 1.04 0 1.64.32t.8 1.08v23.96q.04.68-.12 1.2a1.33 1.33 0 0 1-.64.88q-.52.32-1.64.32m7.36-12.8q1.401 0 2.52-.64a4.85 4.85 0 0 0 1.76-1.84q.68-1.2.68-2.68 0-1.52-.68-2.68a4.57 4.57 0 0 0-1.76-1.8q-1.119-.68-2.52-.68-1.36 0-2.48.68a5.2 5.2 0 0 0-1.8 1.84q-.64 1.12-.64 2.64 0 1.48.64 2.68a5.2 5.2 0 0 0 1.8 1.84 4.9 4.9 0 0 0 2.48.64m22.579 5q-2.6 0-4.56-.84-1.92-.84-3.24-2.28a10.9 10.9 0 0 1-1.96-3.28 11.5 11.5 0 0 1-.64-3.8q0-2.88 1.32-5.12a9.43 9.43 0 0 1 3.64-3.52q2.361-1.28 5.4-1.28 2.16 0 3.8.68t2.72 1.8q1.12 1.08 1.68 2.4.6 1.32.6 2.56 0 2.12-1.04 3.08-.999.96-2.52.96h-10.56q.04 1.36.84 2.36a5.8 5.8 0 0 0 2.08 1.56 6.9 6.9 0 0 0 2.6.52q1 0 1.76-.12.8-.12 1.36-.28.561-.2.96-.4l.8-.36a2.4 2.4 0 0 1 .68-.2q.44-.04.88.2.441.24.72.84.24.4.32.76.12.32.12.64 0 .8-.96 1.52-.96.68-2.72 1.12-1.719.48-4.08.48m-5.36-11.48h8.2q.68 0 1.04-.2.36-.24.36-.96 0-.92-.56-1.64-.56-.76-1.52-1.16-.96-.44-2.24-.44-1.48 0-2.68.6-1.2.56-1.92 1.56a3.9 3.9 0 0 0-.68 2.24m19.763 11.2q-1.08 0-1.6-.36a1.35 1.35 0 0 1-.6-.84 6 6 0 0 1-.12-1.24v-14.96q0-.64.12-1.16t.64-.8q.52-.32 1.6-.32.96 0 1.44.24t.64.6.16.72q.04.36.08.56l-.16 1.28q.24-.64.8-1.24t1.36-1.08a6.7 6.7 0 0 1 1.72-.8 6.2 6.2 0 0 1 1.96-.32q1.88 0 3.36.68a7.1 7.1 0 0 1 2.52 1.92q1.08 1.24 1.64 2.96.56 1.68.56 3.8v7.96q0 .68-.16 1.24a1.35 1.35 0 0 1-.6.84q-.48.32-1.64.32-1.12 0-1.64-.36-.52-.32-.64-.84a6 6 0 0 1-.12-1.24v-7.96q0-1.44-.52-2.48a3.5 3.5 0 0 0-1.44-1.6q-.92-.56-2.36-.56-1.4 0-2.44.6a3.86 3.86 0 0 0-1.6 1.6q-.56 1.04-.56 2.44v8q0 .68-.12 1.24-.12.52-.64.84-.48.32-1.64.32m20.463-8.36q-.52 0-1.04-.12-.48-.12-.8-.6-.28-.48-.28-1.56 0-1.04.28-1.48.32-.48.8-.6.52-.16 1-.16h9.96q.52 0 1 .16.48.12.76.6.32.44.32 1.52 0 1.04-.32 1.52-.28.48-.76.6t-1.04.12zm25.038 8.76q-1.8 0-3.28-.44a11.3 11.3 0 0 1-2.56-1.12q-1.08-.68-1.84-1.4t-1.12-1.32q-.52-.72-.68-1.28a1.5 1.5 0 0 1 .08-1.08q.28-.56 1-1.16.72-.64 1.32-.64.64-.04 1.2.36.6.4 1.16 1.12.96 1.28 2.16 1.84 1.2.52 2.4.52 1.56 0 2.72-.4 1.161-.44 1.8-1.28.68-.84.68-2.16 0-1.08-.68-1.76-.64-.72-1.72-1.2a16 16 0 0 0-2.44-.92 65 65 0 0 1-2.68-.96 19 19 0 0 1-1.92-.76q-.96-.48-1.8-1.08a8 8 0 0 1-1.44-1.4q-.6-.84-.96-1.92t-.36-2.52q0-2.28 1.12-4 1.12-1.76 3.12-2.76 2.001-1.04 4.56-1.04 1.64 0 2.92.32 1.32.28 2.24.76.96.44 1.56.92.64.44.92.76.92.92 1 1.56.12.6-.72 1.64-.84 1.08-1.64 1.2-.76.08-1.72-.64a6.6 6.6 0 0 0-1.28-1.08 4.4 4.4 0 0 0-1.44-.64q-.76-.2-1.88-.2-.8 0-1.56.24a3.2 3.2 0 0 0-1.24.64q-.519.4-.84 1-.28.6-.28 1.36 0 1.04.56 1.72.6.64 1.6 1.08 1 .4 2.24.76t2.52.76q1.32.44 2.6 1.04t2.28 1.52q1 .88 1.6 2.24.6 1.32.6 3.24 0 2.2-.84 3.84a7.4 7.4 0 0 1-2.28 2.68 9.8 9.8 0 0 1-3.2 1.52 12.5 12.5 0 0 1-3.56.52m22.433-.12q-1.92 0-3.76-.72a11.3 11.3 0 0 1-3.28-2.12 10.7 10.7 0 0 1-2.32-3.2q-.84-1.84-.84-4.04 0-2.12.8-3.96a10.4 10.4 0 0 1 2.2-3.24q1.4-1.4 3.2-2.16a9.7 9.7 0 0 1 3.92-.8q2.8 0 5.08 1.36 2.28 1.32 3.64 3.6t1.36 5.16q0 2.28-.84 4.16a10.2 10.2 0 0 1-2.28 3.2q-1.44 1.32-3.24 2.04a9.5 9.5 0 0 1-3.64.72m-.08-4.72q1.32 0 2.52-.64a5.3 5.3 0 0 0 2-1.92q.8-1.24.8-2.92 0-1.56-.72-2.76a4.9 4.9 0 0 0-1.88-1.88q-1.2-.68-2.76-.68-1.48 0-2.68.72a5.1 5.1 0 0 0-1.92 1.92q-.68 1.2-.68 2.72 0 1.68.76 2.92.76 1.2 1.96 1.88 1.24.64 2.6.64m21.383 4.44q-1.84 0-3.4-.64a8.3 8.3 0 0 1-2.68-1.92q-1.16-1.24-1.8-2.96t-.64-3.8v-7.96q0-.68.12-1.2.12-.56.64-.88t1.6-.32q1.16 0 1.64.32.52.32.64.88t.12 1.24v7.92q0 1.44.48 2.48.52 1.04 1.48 1.64.96.56 2.36.56 1.44 0 2.44-.56a4.1 4.1 0 0 0 1.6-1.64q.56-1.08.56-2.48v-8q0-.68.12-1.2.12-.56.64-.84.52-.32 1.64-.32t1.6.32.6.88q.16.56.16 1.2v15q0 .6-.16 1.12-.12.52-.64.84-.48.32-1.6.32-.8 0-1.28-.2-.44-.16-.68-.44a2.3 2.3 0 0 1-.28-.64 5 5 0 0 1-.04-.64l.32-1.08q-.24.36-.72.88-.48.48-1.2 1-.68.48-1.6.8a6.2 6.2 0 0 1-2.04.32m16.232.04q-1.08 0-1.6-.36a1.37 1.37 0 0 1-.6-.88 6 6 0 0 1-.12-1.24v-14.84q0-.72.12-1.24.12-.56.6-.84.52-.32 1.64-.32 1.08 0 1.56.28.52.28.64.72.16.4.16.8l-.32.72q.2-.32.56-.76.36-.48.96-.92.6-.48 1.44-.76.84-.32 2-.32.48 0 1 .12.56.08 1.08.28.56.16 1 .44t.68.68q.24.36.24.84 0 1.28-.64 2.16t-1.52.88q-.6 0-.88-.12a2 2 0 0 1-.48-.28q-.16-.16-.52-.28-.32-.12-1.04-.12-.6 0-1.24.2-.6.2-1.12.6a2.95 2.95 0 0 0-.84 1.04q-.32.6-.32 1.4v9.72q0 .68-.12 1.24-.12.52-.64.84t-1.68.32m21.73.08q-1.92 0-3.76-.64a10.8 10.8 0 0 1-3.28-1.96q-1.44-1.28-2.32-3.12-.84-1.88-.84-4.24t.84-4.2q.88-1.84 2.32-3.12t3.24-1.96 3.72-.68q1.4 0 2.64.4 1.28.4 2.2.96t1.32 1.12q.52.48.88.92t.24 1.08q-.12.4-.36.76-.24.32-.6.68-.96 1.08-1.88.8a21 21 0 0 1-1.04-.6 14 14 0 0 0-1.08-.6 5.8 5.8 0 0 0-1.08-.52 3.7 3.7 0 0 0-1.24-.2q-1.52 0-2.72.68a4.8 4.8 0 0 0-1.84 1.8q-.64 1.16-.64 2.68t.64 2.72a5.1 5.1 0 0 0 1.84 1.84q1.16.64 2.64.64.72 0 1.36-.16a6.2 6.2 0 0 0 1.2-.48q.52-.32.84-.64.44-.28.8-.52t.76-.24q.48 0 .92.36.48.32 1.04 1.04.52.6.56 1.16.08.56-.24 1.08-.28.52-.96.96-.48.48-1.44 1-.92.48-2.16.84-1.2.36-2.52.36m20.273.16q-2.6 0-4.56-.84-1.92-.84-3.24-2.28a10.9 10.9 0 0 1-1.96-3.28 11.5 11.5 0 0 1-.64-3.8q0-2.88 1.32-5.12a9.43 9.43 0 0 1 3.64-3.52q2.361-1.28 5.4-1.28 2.16 0 3.8.68t2.72 1.8q1.12 1.08 1.68 2.4.6 1.32.6 2.56 0 2.12-1.04 3.08-.999.96-2.52.96h-10.56q.04 1.36.84 2.36a5.8 5.8 0 0 0 2.08 1.56 6.9 6.9 0 0 0 2.6.52q1 0 1.76-.12.8-.12 1.36-.28.561-.2.96-.4l.8-.36a2.4 2.4 0 0 1 .68-.2q.44-.04.88.2.441.24.72.84.24.4.32.76.12.32.12.64 0 .8-.96 1.52-.96.68-2.72 1.12-1.719.48-4.08.48m-5.36-11.48h8.2q.68 0 1.04-.2.36-.24.36-.96 0-.92-.56-1.64-.56-.76-1.52-1.16-.96-.44-2.24-.44-1.48 0-2.68.6-1.2.56-1.92 1.56a3.9 3.9 0 0 0-.68 2.24"/></svg>