<?xml version="1.0" encoding="UTF-8" standalone="no"?>
<!DOCTYPE svg PUBLIC "-//W3C//DTD SVG 1.1//EN"
 "http://www.w3.org/Graphics/SVG/1.1/DTD/svg11.dtd">
<!-- Generated by graphviz version 12.2.1 (0)
 -->
<!-- Title: components/config/include/config.h Pages: 1 -->
<!--zoomable 181 -->

<svg id="main" version="1.1" xmlns="http://www.w3.org/2000/svg" xmlns:xlink="http://www.w3.org/1999/xlink" xml:space="preserve" onload="init(evt)">

<style type="text/css"><![CDATA[
.node, .edge {opacity: 0.7;}
.node.selected, .edge.selected {opacity: 1;}
.edge:hover path { stroke: red; }
.edge:hover polygon { stroke: red; fill: red; }
]]></style>

<defs>
  <circle id="rim" cx="0" cy="0" r="7"/>
  <circle id="rim2" cx="0" cy="0" r="3.5"/>
  <g id="zoomPlus">
    <use xlink:href="#rim" fill="#404040"><set attributeName="fill" to="#808080" begin="zoomplus.mouseover" end="zoomplus.mouseout"/></use>
    <path d="M-4,0h8M0,-4v8" fill="none" stroke="white" stroke-width="1.5" pointer-events="none"/>
  </g>
  <g id="zoomMin">
    <use xlink:href="#rim" fill="#404040"><set attributeName="fill" to="#808080" begin="zoomminus.mouseover" end="zoomminus.mouseout"/></use>
    <path d="M-4,0h8" fill="none" stroke="white" stroke-width="1.5" pointer-events="none"/>
  </g>
  <g id="arrowUp" transform="translate(30 24)">
    <use xlink:href="#rim"/>
    <path pointer-events="none" fill="none" stroke="white" stroke-width="1.5" d="M0,-3.0v7 M-2.5,-0.5L0,-3.0L2.5,-0.5"/>
  </g>
  <g id="arrowRight" transform="rotate(90) translate(36 -43)">
    <use xlink:href="#rim"/>
    <path pointer-events="none" fill="none" stroke="white" stroke-width="1.5" d="M0,-3.0v7 M-2.5,-0.5L0,-3.0L2.5,-0.5"/>
  </g>
  <g id="arrowDown" transform="rotate(180) translate(-30 -48)">
    <use xlink:href="#rim"/>
    <path pointer-events="none" fill="none" stroke="white" stroke-width="1.5" d="M0,-3.0v7 M-2.5,-0.5L0,-3.0L2.5,-0.5"/>
  </g>
  <g id="arrowLeft" transform="rotate(270) translate(-36 17)">
    <use xlink:href="#rim"/>
    <path pointer-events="none" fill="none" stroke="white" stroke-width="1.5" d="M0,-3.0v7 M-2.5,-0.5L0,-3.0L2.5,-0.5"/>
  </g>
  <g id="resetDef">
    <use xlink:href="#rim2" fill="#404040"><set attributeName="fill" to="#808080" begin="reset.mouseover" end="reset.mouseout"/></use>
  </g>
</defs>
<script type="application/ecmascript">
var viewWidth = 646;
var viewHeight = 181;
var sectionId = 'dynsection-1';
</script>
<script type="application/ecmascript" xlink:href="svg.min.js"/>
<svg id="graph" class="graph">
<g id="viewport">
<title>components/config/include/config.h</title>
<!-- Node1 -->
<g id="Node000001" class="node">
<title>Node1</title>
<g id="a_Node000001"><a xlink:title="Thread&#45;safe configuration component utilizing NVS for ESP32.">
<polygon fill="#999999" stroke="#666666" points="349.75,-172.5 203.25,-172.5 203.25,-139 349.75,-139 349.75,-172.5"/>
<text text-anchor="start" x="211.25" y="-159" font-family="Helvetica,sans-Serif" font-size="10.00">components/config/include</text>
<text text-anchor="middle" x="276.5" y="-146.25" font-family="Helvetica,sans-Serif" font-size="10.00">/config.h</text>
</a>
</g>
</g>
<!-- Node2 -->
<g id="Node000002" class="node">
<title>Node2</title>
<g id="a_Node000002"><a xlink:href="button__actions_8c.html" target="_top" xlink:title="Dynamic hardware button execution mapped directly to app configuration.">
<polygon fill="white" stroke="#666666" points="151,-103 0,-103 0,-69.5 151,-69.5 151,-103"/>
<text text-anchor="start" x="8" y="-89.5" font-family="Helvetica,sans-Serif" font-size="10.00">components/button_actions</text>
<text text-anchor="middle" x="75.5" y="-76.75" font-family="Helvetica,sans-Serif" font-size="10.00">/src/button_actions.c</text>
</a>
</g>
</g>
<!-- Node1&#45;&gt;Node2 -->
<g id="edge1_Node000001_Node000002" class="edge">
<title>Node1&#45;&gt;Node2</title>
<g id="a_edge1_Node000001_Node000002"><a xlink:title=" ">
<path fill="none" stroke="#63b8ff" d="M217.63,-134.98C187.72,-124.94 151.83,-112.88 123.6,-103.4"/>
<polygon fill="#63b8ff" stroke="#63b8ff" points="216.33,-138.23 226.92,-138.1 218.56,-131.6 216.33,-138.23"/>
</a>
</g>
</g>
<!-- Node3 -->
<g id="Node000003" class="node">
<title>Node3</title>
<g id="a_Node000003"><a xlink:href="config_8c.html" target="_top" xlink:title="Thread&#45;safe configuration component utilizing NVS for ESP32. Implements the private storage structure...">
<polygon fill="white" stroke="#666666" points="242.25,-33.5 116.75,-33.5 116.75,0 242.25,0 242.25,-33.5"/>
<text text-anchor="start" x="124.75" y="-20" font-family="Helvetica,sans-Serif" font-size="10.00">components/config/src</text>
<text text-anchor="middle" x="179.5" y="-7.25" font-family="Helvetica,sans-Serif" font-size="10.00">/config.c</text>
</a>
</g>
</g>
<!-- Node1&#45;&gt;Node3 -->
<g id="edge2_Node000001_Node000003" class="edge">
<title>Node1&#45;&gt;Node3</title>
<g id="a_edge2_Node000001_Node000003"><a xlink:title=" ">
<path fill="none" stroke="#63b8ff" d="M230.75,-132.68C218.66,-124.84 206.71,-114.94 198.5,-103 184.16,-82.13 180.44,-52.21 179.59,-33.93"/>
<polygon fill="#63b8ff" stroke="#63b8ff" points="228.75,-135.55 239.12,-137.73 232.37,-129.56 228.75,-135.55"/>
</a>
</g>
</g>
<!-- Node4 -->
<g id="Node000004" class="node">
<title>Node4</title>
<g id="a_Node000004"><a xlink:href="mac_8h.html" target="_top" xlink:title="MAC address retrieval for different connection types.">
<polygon fill="white" stroke="#666666" points="345.62,-103 207.38,-103 207.38,-69.5 345.62,-69.5 345.62,-103"/>
<text text-anchor="start" x="215.38" y="-89.5" font-family="Helvetica,sans-Serif" font-size="10.00">components/mac/include</text>
<text text-anchor="middle" x="276.5" y="-76.75" font-family="Helvetica,sans-Serif" font-size="10.00">/mac.h</text>
</a>
</g>
</g>
<!-- Node1&#45;&gt;Node4 -->
<g id="edge3_Node000001_Node000004" class="edge">
<title>Node1&#45;&gt;Node4</title>
<g id="a_edge3_Node000001_Node000004"><a xlink:title=" ">
<path fill="none" stroke="#63b8ff" d="M276.5,-127.31C276.5,-119.09 276.5,-110.34 276.5,-103.13"/>
<polygon fill="#63b8ff" stroke="#63b8ff" points="273,-127.24 276.5,-137.24 280,-127.24 273,-127.24"/>
</a>
</g>
</g>
<!-- Node6 -->
<g id="Node000006" class="node">
<title>Node6</title>
<g id="a_Node000006"><a xlink:href="config__routes_8c.html" target="_top" xlink:title="Implementation of the web server configuration routes.">
<polygon fill="white" stroke="#666666" points="499.12,-103 363.88,-103 363.88,-69.5 499.12,-69.5 499.12,-103"/>
<text text-anchor="start" x="371.88" y="-89.5" font-family="Helvetica,sans-Serif" font-size="10.00">components/web_server</text>
<text text-anchor="middle" x="431.5" y="-76.75" font-family="Helvetica,sans-Serif" font-size="10.00">/src/config_routes.c</text>
</a>
</g>
</g>
<!-- Node1&#45;&gt;Node6 -->
<g id="edge6_Node000001_Node000006" class="edge">
<title>Node1&#45;&gt;Node6</title>
<g id="a_edge6_Node000001_Node000006"><a xlink:title=" ">
<path fill="none" stroke="#63b8ff" d="M324.03,-134.05C346.66,-124.2 373.31,-112.59 394.41,-103.4"/>
<polygon fill="#63b8ff" stroke="#63b8ff" points="322.78,-130.78 315.01,-137.98 325.58,-137.19 322.78,-130.78"/>
</a>
</g>
</g>
<!-- Node7 -->
<g id="Node000007" class="node">
<title>Node7</title>
<g id="a_Node000007"><a xlink:href="dmx-interface_8c.html" target="_top" xlink:title=" ">
<polygon fill="white" stroke="#666666" points="638,-96.62 517,-96.62 517,-75.88 638,-75.88 638,-96.62"/>
<text text-anchor="middle" x="577.5" y="-83.12" font-family="Helvetica,sans-Serif" font-size="10.00">main/dmx&#45;interface.c</text>
</a>
</g>
</g>
<!-- Node1&#45;&gt;Node7 -->
<g id="edge7_Node000001_Node000007" class="edge">
<title>Node1&#45;&gt;Node7</title>
<g id="a_edge7_Node000001_Node000007"><a xlink:title=" ">
<path fill="none" stroke="#63b8ff" d="M360.9,-136.03C404.91,-126.24 459.62,-114.03 508.5,-103 516.89,-101.11 525.85,-99.07 534.44,-97.11"/>
<polygon fill="#63b8ff" stroke="#63b8ff" points="360.14,-132.61 351.14,-138.2 361.66,-139.44 360.14,-132.61"/>
</a>
</g>
</g>
<!-- Node4&#45;&gt;Node3 -->
<g id="edge4_Node000004_Node000003" class="edge">
<title>Node4&#45;&gt;Node3</title>
<g id="a_edge4_Node000004_Node000003"><a xlink:title=" ">
<path fill="none" stroke="#63b8ff" d="M244.44,-62.94C230.78,-53.44 215.16,-42.56 202.66,-33.87"/>
<polygon fill="#63b8ff" stroke="#63b8ff" points="242.06,-65.55 252.27,-68.39 246.06,-59.8 242.06,-65.55"/>
</a>
</g>
</g>
<!-- Node5 -->
<g id="Node000005" class="node">
<title>Node5</title>
<g id="a_Node000005"><a xlink:href="mac_8c.html" target="_top" xlink:title="Implementation of MAC address retrieval for different connection types.">
<polygon fill="white" stroke="#666666" points="377.12,-33.5 259.88,-33.5 259.88,0 377.12,0 377.12,-33.5"/>
<text text-anchor="start" x="267.88" y="-20" font-family="Helvetica,sans-Serif" font-size="10.00">components/mac/src</text>
<text text-anchor="middle" x="318.5" y="-7.25" font-family="Helvetica,sans-Serif" font-size="10.00">/mac.c</text>
</a>
</g>
</g>
<!-- Node4&#45;&gt;Node5 -->
<g id="edge5_Node000004_Node000005" class="edge">
<title>Node4&#45;&gt;Node5</title>
<g id="a_edge5_Node000004_Node000005"><a xlink:title=" ">
<path fill="none" stroke="#63b8ff" d="M292.51,-59.53C297.93,-50.82 303.82,-41.35 308.62,-33.63"/>
<polygon fill="#63b8ff" stroke="#63b8ff" points="289.56,-57.63 287.25,-67.97 295.51,-61.33 289.56,-57.63"/>
</a>
</g>
</g>
</g>
</svg>

<g id="navigator" transform="translate(0 0)" fill="#404254">
  <rect fill="#f2f5e9" fill-opacity="0.5" stroke="#606060" stroke-width=".5" x="0" y="0" width="60" height="60"/>
  <use id="zoomplus" xlink:href="#zoomPlus" x="17" y="9" onmousedown="handleZoom(evt,'in')"/>
  <use id="zoomminus" xlink:href="#zoomMin" x="42" y="9" onmousedown="handleZoom(evt,'out')"/>
  <use id="reset" xlink:href="#resetDef" x="30" y="36" onmousedown="handleReset()"/>
   <use id="arrowup" xlink:href="#arrowUp" x="0" y="0" onmousedown="handlePan(0,-1)"/>
  <use id="arrowright" xlink:href="#arrowRight" x="0" y="0" onmousedown="handlePan(1,0)"/>
  <use id="arrowdown" xlink:href="#arrowDown" x="0" y="0" onmousedown="handlePan(0,1)"/>
  <use id="arrowleft" xlink:href="#arrowLeft" x="0" y="0" onmousedown="handlePan(-1,0)"/>
</g>
<svg viewBox="0 0 15 15" width="100%" height="30px" preserveAspectRatio="xMaxYMin meet">
 <g id="arrow_out" transform="scale(0.3 0.3)">
  <a xlink:href="config_8h__dep__incl_org.svg" target="_base">
   <rect id="button" ry="5" rx="5" y="6" x="6" height="38" width="38"
        fill="#f2f5e9" fill-opacity="0.5" stroke="#606060" stroke-width="1.0"/>
   <path id="arrow"
     d="M 11.500037,31.436501 C 11.940474,20.09759 22.043105,11.32322 32.158766,21.979434 L 37.068811,17.246167 C 37.068811,17.246167 37.088388,32 37.088388,32 L 22.160133,31.978069 C 22.160133,31.978069 26.997745,27.140456 26.997745,27.140456 C 18.528582,18.264221 13.291696,25.230495 11.500037,31.436501 z"
     style="fill:#404040;"/>
  </a>
 </g>
</svg>

<style type='text/css'>
<![CDATA[
[data-mouse-over-selected='false'] { opacity: 0.7; }
[data-mouse-over-selected='true']  { opacity: 1.0; }
]]>
</style>
<script type="application/ecmascript"><![CDATA[
document.addEventListener('DOMContentLoaded', (event) => {
  highlightEdges();
  highlightAdjacentNodes();
});
]]></script>
</svg>
