<?xml version="1.0" encoding="UTF-8" standalone="no"?>
<!DOCTYPE svg PUBLIC "-//W3C//DTD SVG 1.1//EN"
 "http://www.w3.org/Graphics/SVG/1.1/DTD/svg11.dtd">
<!-- Generated by graphviz version 12.2.1 (0)
 -->
<!-- Title: components/config/include/config.h Pages: 1 -->
<svg width="302pt" height="98pt"
 viewBox="0.00 0.00 301.50 98.25" xmlns="http://www.w3.org/2000/svg" xmlns:xlink="http://www.w3.org/1999/xlink">

<svg id="main" version="1.1" xmlns="http://www.w3.org/2000/svg" xmlns:xlink="http://www.w3.org/1999/xlink" xml:space="preserve">

<style type="text/css"><![CDATA[
.node, .edge {opacity: 0.7;}
.node.selected, .edge.selected {opacity: 1;}
.edge:hover path { stroke: red; }
.edge:hover polygon { stroke: red; fill: red; }
]]></style>
<script type="application/ecmascript" xlink:href="svg.min.js"/>
<svg id="graph" class="graph">
<g id="graph0" class="graph" transform="scale(1 1) rotate(0) translate(4 94.25)">
<title>components/config/include/config.h</title>
<!-- Node1 -->
<g id="Node000001" class="node">
<title>Node1</title>
<g id="a_Node000001"><a xlink:title="Thread&#45;safe configuration component utilizing NVS for ESP32.">
<polygon fill="#999999" stroke="#666666" points="224.38,-90.25 77.88,-90.25 77.88,-56.75 224.38,-56.75 224.38,-90.25"/>
<text text-anchor="start" x="85.88" y="-76.75" font-family="Helvetica,sans-Serif" font-size="10.00">components/config/include</text>
<text text-anchor="middle" x="151.12" y="-64" font-family="Helvetica,sans-Serif" font-size="10.00">/config.h</text>
</a>
</g>
</g>
<!-- Node2 -->
<g id="Node000002" class="node">
<title>Node2</title>
<g id="a_Node000002"><a xlink:title=" ">
<polygon fill="#e0e0e0" stroke="#999999" points="60.25,-20.75 0,-20.75 0,0 60.25,0 60.25,-20.75"/>
<text text-anchor="middle" x="30.12" y="-7.25" font-family="Helvetica,sans-Serif" font-size="10.00">esp_err.h</text>
</a>
</g>
</g>
<!-- Node1&#45;&gt;Node2 -->
<g id="edge1_Node000001_Node000002" class="edge">
<title>Node1&#45;&gt;Node2</title>
<g id="a_edge1_Node000001_Node000002"><a xlink:title=" ">
<path fill="none" stroke="#63b8ff" d="M119.02,-56.28C100.61,-46.98 77.67,-35.39 59.7,-26.31"/>
<polygon fill="#63b8ff" stroke="#63b8ff" points="61.36,-23.23 50.86,-21.85 58.2,-29.48 61.36,-23.23"/>
</a>
</g>
</g>
<!-- Node3 -->
<g id="Node000003" class="node">
<title>Node3</title>
<g id="a_Node000003"><a xlink:title=" ">
<polygon fill="#e0e0e0" stroke="#999999" points="143.5,-20.75 78.75,-20.75 78.75,0 143.5,0 143.5,-20.75"/>
<text text-anchor="middle" x="111.12" y="-7.25" font-family="Helvetica,sans-Serif" font-size="10.00">esp_wifi.h</text>
</a>
</g>
</g>
<!-- Node1&#45;&gt;Node3 -->
<g id="edge2_Node000001_Node000003" class="edge">
<title>Node1&#45;&gt;Node3</title>
<g id="a_edge2_Node000001_Node000003"><a xlink:title=" ">
<path fill="none" stroke="#63b8ff" d="M140.62,-56.44C135.47,-48.58 129.24,-39.06 123.83,-30.79"/>
<polygon fill="#63b8ff" stroke="#63b8ff" points="126.8,-28.93 118.39,-22.48 120.94,-32.77 126.8,-28.93"/>
</a>
</g>
</g>
<!-- Node4 -->
<g id="Node000004" class="node">
<title>Node4</title>
<g id="a_Node000004"><a xlink:title=" ">
<polygon fill="#e0e0e0" stroke="#999999" points="222.62,-20.75 161.62,-20.75 161.62,0 222.62,0 222.62,-20.75"/>
<text text-anchor="middle" x="192.12" y="-7.25" font-family="Helvetica,sans-Serif" font-size="10.00">stdbool.h</text>
</a>
</g>
</g>
<!-- Node1&#45;&gt;Node4 -->
<g id="edge3_Node000001_Node000004" class="edge">
<title>Node1&#45;&gt;Node4</title>
<g id="a_edge3_Node000001_Node000004"><a xlink:title=" ">
<path fill="none" stroke="#63b8ff" d="M161.9,-56.44C167.23,-48.49 173.7,-38.84 179.29,-30.52"/>
<polygon fill="#63b8ff" stroke="#63b8ff" points="182.02,-32.73 184.68,-22.47 176.2,-28.83 182.02,-32.73"/>
</a>
</g>
</g>
<!-- Node5 -->
<g id="Node000005" class="node">
<title>Node5</title>
<g id="a_Node000005"><a xlink:title=" ">
<polygon fill="#e0e0e0" stroke="#999999" points="293.5,-20.75 240.75,-20.75 240.75,0 293.5,0 293.5,-20.75"/>
<text text-anchor="middle" x="267.12" y="-7.25" font-family="Helvetica,sans-Serif" font-size="10.00">stdint.h</text>
</a>
</g>
</g>
<!-- Node1&#45;&gt;Node5 -->
<g id="edge4_Node000001_Node000005" class="edge">
<title>Node1&#45;&gt;Node5</title>
<g id="a_edge4_Node000001_Node000005"><a xlink:title=" ">
<path fill="none" stroke="#63b8ff" d="M181.91,-56.28C199.47,-47.02 221.34,-35.5 238.53,-26.44"/>
<polygon fill="#63b8ff" stroke="#63b8ff" points="239.99,-29.63 247.21,-21.87 236.73,-23.44 239.99,-29.63"/>
</a>
</g>
</g>
</g>
</svg>
</svg>

<style type='text/css'>
<![CDATA[
[data-mouse-over-selected='false'] { opacity: 0.7; }
[data-mouse-over-selected='true']  { opacity: 1.0; }
]]>
</style>
<script type="application/ecmascript"><![CDATA[
document.addEventListener('DOMContentLoaded', (event) => {
  highlightEdges();
  highlightAdjacentNodes();
});
]]></script>
</svg>
