<?xml version="1.0" encoding="UTF-8" standalone="no"?>
<!DOCTYPE svg PUBLIC "-//W3C//DTD SVG 1.1//EN"
 "http://www.w3.org/Graphics/SVG/1.1/DTD/svg11.dtd">
<!-- Generated by graphviz version 12.2.1 (0)
 -->
<!-- Title: components/logger/include/logger.h Pages: 1 -->
<!--zoomable 181 -->

<svg id="main" version="1.1" xmlns="http://www.w3.org/2000/svg" xmlns:xlink="http://www.w3.org/1999/xlink" xml:space="preserve" onload="init(evt)">

<style type="text/css"><![CDATA[
.node, .edge {opacity: 0.7;}
.node.selected, .edge.selected {opacity: 1;}
.edge:hover path { stroke: red; }
.edge:hover polygon { stroke: red; fill: red; }
]]></style>

<defs>
  <circle id="rim" cx="0" cy="0" r="7"/>
  <circle id="rim2" cx="0" cy="0" r="3.5"/>
  <g id="zoomPlus">
    <use xlink:href="#rim" fill="#404040"><set attributeName="fill" to="#808080" begin="zoomplus.mouseover" end="zoomplus.mouseout"/></use>
    <path d="M-4,0h8M0,-4v8" fill="none" stroke="white" stroke-width="1.5" pointer-events="none"/>
  </g>
  <g id="zoomMin">
    <use xlink:href="#rim" fill="#404040"><set attributeName="fill" to="#808080" begin="zoomminus.mouseover" end="zoomminus.mouseout"/></use>
    <path d="M-4,0h8" fill="none" stroke="white" stroke-width="1.5" pointer-events="none"/>
  </g>
  <g id="arrowUp" transform="translate(30 24)">
    <use xlink:href="#rim"/>
    <path pointer-events="none" fill="none" stroke="white" stroke-width="1.5" d="M0,-3.0v7 M-2.5,-0.5L0,-3.0L2.5,-0.5"/>
  </g>
  <g id="arrowRight" transform="rotate(90) translate(36 -43)">
    <use xlink:href="#rim"/>
    <path pointer-events="none" fill="none" stroke="white" stroke-width="1.5" d="M0,-3.0v7 M-2.5,-0.5L0,-3.0L2.5,-0.5"/>
  </g>
  <g id="arrowDown" transform="rotate(180) translate(-30 -48)">
    <use xlink:href="#rim"/>
    <path pointer-events="none" fill="none" stroke="white" stroke-width="1.5" d="M0,-3.0v7 M-2.5,-0.5L0,-3.0L2.5,-0.5"/>
  </g>
  <g id="arrowLeft" transform="rotate(270) translate(-36 17)">
    <use xlink:href="#rim"/>
    <path pointer-events="none" fill="none" stroke="white" stroke-width="1.5" d="M0,-3.0v7 M-2.5,-0.5L0,-3.0L2.5,-0.5"/>
  </g>
  <g id="resetDef">
    <use xlink:href="#rim2" fill="#404040"><set attributeName="fill" to="#808080" begin="reset.mouseover" end="reset.mouseout"/></use>
  </g>
</defs>
<script type="application/ecmascript">
var viewWidth = 1623;
var viewHeight = 181;
var sectionId = 'dynsection-1';
</script>
<script type="application/ecmascript" xlink:href="svg.min.js"/>
<svg id="graph" class="graph">
<g id="viewport">
<title>components/logger/include/logger.h</title>
<!-- Node1 -->
<g id="Node000001" class="node">
<title>Node1</title>
<g id="a_Node000001"><a xlink:title="Project&#45;wide logging macros based on ESP&#45;IDF&#39;s logging library.">
<polygon fill="#999999" stroke="#666666" points="786.5,-172.5 638.5,-172.5 638.5,-139 786.5,-139 786.5,-172.5"/>
<text text-anchor="start" x="646.5" y="-159" font-family="Helvetica,sans-Serif" font-size="10.00">components/logger/include</text>
<text text-anchor="middle" x="712.5" y="-146.25" font-family="Helvetica,sans-Serif" font-size="10.00">/logger.h</text>
</a>
</g>
</g>
<!-- Node2 -->
<g id="Node000002" class="node">
<title>Node2</title>
<g id="a_Node000002"><a xlink:href="button__actions_8c.html" target="_top" xlink:title="Dynamic hardware button execution mapped directly to app configuration.">
<polygon fill="white" stroke="#666666" points="151,-33.5 0,-33.5 0,0 151,0 151,-33.5"/>
<text text-anchor="start" x="8" y="-20" font-family="Helvetica,sans-Serif" font-size="10.00">components/button_actions</text>
<text text-anchor="middle" x="75.5" y="-7.25" font-family="Helvetica,sans-Serif" font-size="10.00">/src/button_actions.c</text>
</a>
</g>
</g>
<!-- Node1&#45;&gt;Node2 -->
<g id="edge1_Node000001_Node000002" class="edge">
<title>Node1&#45;&gt;Node2</title>
<g id="a_edge1_Node000001_Node000002"><a xlink:title=" ">
<path fill="none" stroke="#63b8ff" d="M627.18,-149.69C508.88,-141.98 301.46,-125.75 229.5,-103 179.09,-87.07 126.48,-53.74 97.67,-33.8"/>
<polygon fill="#63b8ff" stroke="#63b8ff" points="626.63,-153.16 636.84,-150.31 627.08,-146.18 626.63,-153.16"/>
</a>
</g>
</g>
<!-- Node3 -->
<g id="Node000003" class="node">
<title>Node3</title>
<g id="a_Node000003"><a xlink:href="config_8c.html" target="_top" xlink:title="Thread&#45;safe configuration component utilizing NVS for ESP32. Implements the private storage structure...">
<polygon fill="white" stroke="#666666" points="294.25,-33.5 168.75,-33.5 168.75,0 294.25,0 294.25,-33.5"/>
<text text-anchor="start" x="176.75" y="-20" font-family="Helvetica,sans-Serif" font-size="10.00">components/config/src</text>
<text text-anchor="middle" x="231.5" y="-7.25" font-family="Helvetica,sans-Serif" font-size="10.00">/config.c</text>
</a>
</g>
</g>
<!-- Node1&#45;&gt;Node3 -->
<g id="edge2_Node000001_Node000003" class="edge">
<title>Node1&#45;&gt;Node3</title>
<g id="a_edge2_Node000001_Node000003"><a xlink:title=" ">
<path fill="none" stroke="#63b8ff" d="M626.88,-150.48C501.01,-143.42 277.9,-127.6 250.5,-103 231.2,-85.68 229.21,-53.46 230.01,-33.98"/>
<polygon fill="#63b8ff" stroke="#63b8ff" points="626.31,-153.96 636.49,-151.02 626.7,-146.97 626.31,-153.96"/>
</a>
</g>
</g>
<!-- Node4 -->
<g id="Node000004" class="node">
<title>Node4</title>
<g id="a_Node000004"><a xlink:href="led_8h.html" target="_top" xlink:title="LED control component with flexible blinking and breathing modes.">
<polygon fill="white" stroke="#666666" points="391.62,-103 259.38,-103 259.38,-69.5 391.62,-69.5 391.62,-103"/>
<text text-anchor="start" x="267.38" y="-89.5" font-family="Helvetica,sans-Serif" font-size="10.00">components/led/include</text>
<text text-anchor="middle" x="325.5" y="-76.75" font-family="Helvetica,sans-Serif" font-size="10.00">/led.h</text>
</a>
</g>
</g>
<!-- Node1&#45;&gt;Node4 -->
<g id="edge3_Node000001_Node000004" class="edge">
<title>Node1&#45;&gt;Node4</title>
<g id="a_edge3_Node000001_Node000004"><a xlink:title=" ">
<path fill="none" stroke="#63b8ff" d="M627.04,-140.99C565.39,-130.9 480.21,-116.65 405.5,-103 401.04,-102.19 396.45,-101.33 391.83,-100.45"/>
<polygon fill="#63b8ff" stroke="#63b8ff" points="626.34,-144.42 636.78,-142.58 627.47,-137.51 626.34,-144.42"/>
</a>
</g>
</g>
<!-- Node6 -->
<g id="Node000006" class="node">
<title>Node6</title>
<g id="a_Node000006"><a xlink:href="dmx-interface_8c.html" target="_top" xlink:title=" ">
<polygon fill="white" stroke="#666666" points="562,-27.12 441,-27.12 441,-6.38 562,-6.38 562,-27.12"/>
<text text-anchor="middle" x="501.5" y="-13.62" font-family="Helvetica,sans-Serif" font-size="10.00">main/dmx&#45;interface.c</text>
</a>
</g>
</g>
<!-- Node1&#45;&gt;Node6 -->
<g id="edge16_Node000001_Node000006" class="edge">
<title>Node1&#45;&gt;Node6</title>
<g id="a_edge16_Node000001_Node000006"><a xlink:title=" ">
<path fill="none" stroke="#63b8ff" d="M627.02,-150.24C555.75,-144.48 462.18,-131.57 438.5,-103 416.66,-76.65 459.81,-43.58 485.05,-27.47"/>
<polygon fill="#63b8ff" stroke="#63b8ff" points="626.5,-153.71 636.74,-150.99 627.04,-146.73 626.5,-153.71"/>
</a>
</g>
</g>
<!-- Node7 -->
<g id="Node000007" class="node">
<title>Node7</title>
<g id="a_Node000007"><a xlink:href="mac_8c.html" target="_top" xlink:title="Implementation of MAC address retrieval for different connection types.">
<polygon fill="white" stroke="#666666" points="565.12,-103 447.88,-103 447.88,-69.5 565.12,-69.5 565.12,-103"/>
<text text-anchor="start" x="455.88" y="-89.5" font-family="Helvetica,sans-Serif" font-size="10.00">components/mac/src</text>
<text text-anchor="middle" x="506.5" y="-76.75" font-family="Helvetica,sans-Serif" font-size="10.00">/mac.c</text>
</a>
</g>
</g>
<!-- Node1&#45;&gt;Node7 -->
<g id="edge8_Node000001_Node000007" class="edge">
<title>Node1&#45;&gt;Node7</title>
<g id="a_edge8_Node000001_Node000007"><a xlink:title=" ">
<path fill="none" stroke="#63b8ff" d="M652.57,-135.11C621.83,-125.04 584.86,-112.92 555.8,-103.4"/>
<polygon fill="#63b8ff" stroke="#63b8ff" points="651.13,-138.32 661.72,-138.11 653.31,-131.67 651.13,-138.32"/>
</a>
</g>
</g>
<!-- Node8 -->
<g id="Node000008" class="node">
<title>Node8</title>
<g id="a_Node000008"><a xlink:href="storage_8c.html" target="_top" xlink:title=" ">
<polygon fill="white" stroke="#666666" points="699.38,-103 583.62,-103 583.62,-69.5 699.38,-69.5 699.38,-103"/>
<text text-anchor="start" x="591.62" y="-89.5" font-family="Helvetica,sans-Serif" font-size="10.00">components/storage</text>
<text text-anchor="middle" x="641.5" y="-76.75" font-family="Helvetica,sans-Serif" font-size="10.00">/src/storage.c</text>
</a>
</g>
</g>
<!-- Node1&#45;&gt;Node8 -->
<g id="edge9_Node000001_Node000008" class="edge">
<title>Node1&#45;&gt;Node8</title>
<g id="a_edge9_Node000001_Node000008"><a xlink:title=" ">
<path fill="none" stroke="#63b8ff" d="M687.52,-131C677.81,-121.77 666.94,-111.44 658.21,-103.13"/>
<polygon fill="#63b8ff" stroke="#63b8ff" points="684.92,-133.36 694.58,-137.71 689.74,-128.28 684.92,-133.36"/>
</a>
</g>
</g>
<!-- Node9 -->
<g id="Node000009" class="node">
<title>Node9</title>
<g id="a_Node000009"><a xlink:href="system_8c.html" target="_top" xlink:title=" ">
<polygon fill="white" stroke="#666666" points="849.62,-103 717.38,-103 717.38,-69.5 849.62,-69.5 849.62,-103"/>
<text text-anchor="start" x="725.38" y="-89.5" font-family="Helvetica,sans-Serif" font-size="10.00">components/system/src</text>
<text text-anchor="middle" x="783.5" y="-76.75" font-family="Helvetica,sans-Serif" font-size="10.00">/system.c</text>
</a>
</g>
</g>
<!-- Node1&#45;&gt;Node9 -->
<g id="edge10_Node000001_Node000009" class="edge">
<title>Node1&#45;&gt;Node9</title>
<g id="a_edge10_Node000001_Node000009"><a xlink:title=" ">
<path fill="none" stroke="#63b8ff" d="M737.48,-131C747.19,-121.77 758.06,-111.44 766.79,-103.13"/>
<polygon fill="#63b8ff" stroke="#63b8ff" points="735.26,-128.28 730.42,-137.71 740.08,-133.36 735.26,-128.28"/>
</a>
</g>
</g>
<!-- Node10 -->
<g id="Node000010" class="node">
<title>Node10</title>
<g id="a_Node000010"><a xlink:href="config__routes_8c.html" target="_top" xlink:title="Implementation of the web server configuration routes.">
<polygon fill="white" stroke="#666666" points="1003.12,-103 867.88,-103 867.88,-69.5 1003.12,-69.5 1003.12,-103"/>
<text text-anchor="start" x="875.88" y="-89.5" font-family="Helvetica,sans-Serif" font-size="10.00">components/web_server</text>
<text text-anchor="middle" x="935.5" y="-76.75" font-family="Helvetica,sans-Serif" font-size="10.00">/src/config_routes.c</text>
</a>
</g>
</g>
<!-- Node1&#45;&gt;Node10 -->
<g id="edge11_Node000001_Node000010" class="edge">
<title>Node1&#45;&gt;Node10</title>
<g id="a_edge11_Node000001_Node000010"><a xlink:title=" ">
<path fill="none" stroke="#63b8ff" d="M776.51,-135.38C809.95,-125.25 850.4,-113.01 882.14,-103.4"/>
<polygon fill="#63b8ff" stroke="#63b8ff" points="775.92,-131.9 767.36,-138.14 777.95,-138.6 775.92,-131.9"/>
</a>
</g>
</g>
<!-- Node11 -->
<g id="Node000011" class="node">
<title>Node11</title>
<g id="a_Node000011"><a xlink:href="json__processor_8c.html" target="_top" xlink:title=" ">
<polygon fill="white" stroke="#666666" points="1156.12,-103 1020.88,-103 1020.88,-69.5 1156.12,-69.5 1156.12,-103"/>
<text text-anchor="start" x="1028.88" y="-89.5" font-family="Helvetica,sans-Serif" font-size="10.00">components/web_server</text>
<text text-anchor="middle" x="1088.5" y="-76.75" font-family="Helvetica,sans-Serif" font-size="10.00">/src/json_processor.c</text>
</a>
</g>
</g>
<!-- Node1&#45;&gt;Node11 -->
<g id="edge12_Node000001_Node000011" class="edge">
<title>Node1&#45;&gt;Node11</title>
<g id="a_edge12_Node000001_Node000011"><a xlink:title=" ">
<path fill="none" stroke="#63b8ff" d="M798.24,-140.74C858.31,-130.74 940.43,-116.68 1012.5,-103 1015.15,-102.5 1017.85,-101.98 1020.57,-101.45"/>
<polygon fill="#63b8ff" stroke="#63b8ff" points="797.69,-137.29 788.4,-142.38 798.84,-144.19 797.69,-137.29"/>
</a>
</g>
</g>
<!-- Node12 -->
<g id="Node000012" class="node">
<title>Node12</title>
<g id="a_Node000012"><a xlink:href="web__server_8c.html" target="_top" xlink:title=" ">
<polygon fill="white" stroke="#666666" points="1309.12,-103 1173.88,-103 1173.88,-69.5 1309.12,-69.5 1309.12,-103"/>
<text text-anchor="start" x="1181.88" y="-89.5" font-family="Helvetica,sans-Serif" font-size="10.00">components/web_server</text>
<text text-anchor="middle" x="1241.5" y="-76.75" font-family="Helvetica,sans-Serif" font-size="10.00">/src/web_server.c</text>
</a>
</g>
</g>
<!-- Node1&#45;&gt;Node12 -->
<g id="edge13_Node000001_Node000012" class="edge">
<title>Node1&#45;&gt;Node12</title>
<g id="a_edge13_Node000001_Node000012"><a xlink:title=" ">
<path fill="none" stroke="#63b8ff" d="M798.33,-147.28C889.67,-138.79 1038.27,-123.41 1165.5,-103 1168.16,-102.57 1170.87,-102.12 1173.6,-101.64"/>
<polygon fill="#63b8ff" stroke="#63b8ff" points="798.08,-143.79 788.44,-148.19 798.72,-150.76 798.08,-143.79"/>
</a>
</g>
</g>
<!-- Node13 -->
<g id="Node000013" class="node">
<title>Node13</title>
<g id="a_Node000013"><a xlink:href="web__server__util_8c.html" target="_top" xlink:title="Utility functions for the web server component.">
<polygon fill="white" stroke="#666666" points="1462.12,-103 1326.88,-103 1326.88,-69.5 1462.12,-69.5 1462.12,-103"/>
<text text-anchor="start" x="1334.88" y="-89.5" font-family="Helvetica,sans-Serif" font-size="10.00">components/web_server</text>
<text text-anchor="middle" x="1394.5" y="-76.75" font-family="Helvetica,sans-Serif" font-size="10.00">/src/web_server_util.c</text>
</a>
</g>
</g>
<!-- Node1&#45;&gt;Node13 -->
<g id="edge14_Node000001_Node000013" class="edge">
<title>Node1&#45;&gt;Node13</title>
<g id="a_edge14_Node000001_Node000013"><a xlink:title=" ">
<path fill="none" stroke="#63b8ff" d="M798.42,-150.64C916.2,-144.28 1134.21,-129.87 1318.5,-103 1321.17,-102.61 1323.88,-102.19 1326.62,-101.74"/>
<polygon fill="#63b8ff" stroke="#63b8ff" points="798.3,-147.14 788.5,-151.17 798.68,-154.13 798.3,-147.14"/>
</a>
</g>
</g>
<!-- Node14 -->
<g id="Node000014" class="node">
<title>Node14</title>
<g id="a_Node000014"><a xlink:href="wifi_8c.html" target="_top" xlink:title=" ">
<polygon fill="white" stroke="#666666" points="1615.12,-103 1479.88,-103 1479.88,-69.5 1615.12,-69.5 1615.12,-103"/>
<text text-anchor="start" x="1487.88" y="-89.5" font-family="Helvetica,sans-Serif" font-size="10.00">components/web_server</text>
<text text-anchor="middle" x="1547.5" y="-76.75" font-family="Helvetica,sans-Serif" font-size="10.00">/src/wifi.c</text>
</a>
</g>
</g>
<!-- Node1&#45;&gt;Node14 -->
<g id="edge15_Node000001_Node000014" class="edge">
<title>Node1&#45;&gt;Node14</title>
<g id="a_edge15_Node000001_Node000014"><a xlink:title=" ">
<path fill="none" stroke="#63b8ff" d="M798.03,-152.71C938.98,-148.51 1228.64,-136.29 1471.5,-103 1474.17,-102.63 1476.89,-102.23 1479.63,-101.79"/>
<polygon fill="#63b8ff" stroke="#63b8ff" points="798.32,-149.2 788.42,-152.99 798.52,-156.2 798.32,-149.2"/>
</a>
</g>
</g>
<!-- Node4&#45;&gt;Node2 -->
<g id="edge4_Node000004_Node000002" class="edge">
<title>Node4&#45;&gt;Node2</title>
<g id="a_edge4_Node000004_Node000002"><a xlink:title=" ">
<path fill="none" stroke="#63b8ff" d="M254.72,-66.14C217.04,-55.97 171.21,-43.59 135.33,-33.9"/>
<polygon fill="#63b8ff" stroke="#63b8ff" points="253.59,-69.46 264.16,-68.69 255.42,-62.7 253.59,-69.46"/>
</a>
</g>
</g>
<!-- Node4&#45;&gt;Node3 -->
<g id="edge5_Node000004_Node000003" class="edge">
<title>Node4&#45;&gt;Node3</title>
<g id="a_edge5_Node000004_Node000003"><a xlink:title=" ">
<path fill="none" stroke="#63b8ff" d="M294.05,-62.66C280.91,-53.23 265.94,-42.48 253.94,-33.87"/>
<polygon fill="#63b8ff" stroke="#63b8ff" points="291.83,-65.38 301.99,-68.37 295.91,-59.69 291.83,-65.38"/>
</a>
</g>
</g>
<!-- Node5 -->
<g id="Node000005" class="node">
<title>Node5</title>
<g id="a_Node000005"><a xlink:href="led_8c.html" target="_top" xlink:title="Implementation of LEDC&#45;driven status LED with dynamic generator.">
<polygon fill="white" stroke="#666666" points="423.12,-33.5 311.88,-33.5 311.88,0 423.12,0 423.12,-33.5"/>
<text text-anchor="start" x="319.88" y="-20" font-family="Helvetica,sans-Serif" font-size="10.00">components/led/src</text>
<text text-anchor="middle" x="367.5" y="-7.25" font-family="Helvetica,sans-Serif" font-size="10.00">/led.c</text>
</a>
</g>
</g>
<!-- Node4&#45;&gt;Node5 -->
<g id="edge6_Node000004_Node000005" class="edge">
<title>Node4&#45;&gt;Node5</title>
<g id="a_edge6_Node000004_Node000005"><a xlink:title=" ">
<path fill="none" stroke="#63b8ff" d="M341.51,-59.53C346.93,-50.82 352.82,-41.35 357.62,-33.63"/>
<polygon fill="#63b8ff" stroke="#63b8ff" points="338.56,-57.63 336.25,-67.97 344.51,-61.33 338.56,-57.63"/>
</a>
</g>
</g>
<!-- Node4&#45;&gt;Node6 -->
<g id="edge7_Node000004_Node000006" class="edge">
<title>Node4&#45;&gt;Node6</title>
<g id="a_edge7_Node000004_Node000006"><a xlink:title=" ">
<path fill="none" stroke="#63b8ff" d="M378.27,-65.01C410.49,-52.65 450.28,-37.4 475.77,-27.62"/>
<polygon fill="#63b8ff" stroke="#63b8ff" points="377.15,-61.69 369.07,-68.54 379.66,-68.23 377.15,-61.69"/>
</a>
</g>
</g>
</g>
</svg>

<g id="navigator" transform="translate(0 0)" fill="#404254">
  <rect fill="#f2f5e9" fill-opacity="0.5" stroke="#606060" stroke-width=".5" x="0" y="0" width="60" height="60"/>
  <use id="zoomplus" xlink:href="#zoomPlus" x="17" y="9" onmousedown="handleZoom(evt,'in')"/>
  <use id="zoomminus" xlink:href="#zoomMin" x="42" y="9" onmousedown="handleZoom(evt,'out')"/>
  <use id="reset" xlink:href="#resetDef" x="30" y="36" onmousedown="handleReset()"/>
   <use id="arrowup" xlink:href="#arrowUp" x="0" y="0" onmousedown="handlePan(0,-1)"/>
  <use id="arrowright" xlink:href="#arrowRight" x="0" y="0" onmousedown="handlePan(1,0)"/>
  <use id="arrowdown" xlink:href="#arrowDown" x="0" y="0" onmousedown="handlePan(0,1)"/>
  <use id="arrowleft" xlink:href="#arrowLeft" x="0" y="0" onmousedown="handlePan(-1,0)"/>
</g>
<svg viewBox="0 0 15 15" width="100%" height="30px" preserveAspectRatio="xMaxYMin meet">
 <g id="arrow_out" transform="scale(0.3 0.3)">
  <a xlink:href="logger_8h__dep__incl_org.svg" target="_base">
   <rect id="button" ry="5" rx="5" y="6" x="6" height="38" width="38"
        fill="#f2f5e9" fill-opacity="0.5" stroke="#606060" stroke-width="1.0"/>
   <path id="arrow"
     d="M 11.500037,31.436501 C 11.940474,20.09759 22.043105,11.32322 32.158766,21.979434 L 37.068811,17.246167 C 37.068811,17.246167 37.088388,32 37.088388,32 L 22.160133,31.978069 C 22.160133,31.978069 26.997745,27.140456 26.997745,27.140456 C 18.528582,18.264221 13.291696,25.230495 11.500037,31.436501 z"
     style="fill:#404040;"/>
  </a>
 </g>
</svg>

<style type='text/css'>
<![CDATA[
[data-mouse-over-selected='false'] { opacity: 0.7; }
[data-mouse-over-selected='true']  { opacity: 1.0; }
]]>
</style>
<script type="application/ecmascript"><![CDATA[
document.addEventListener('DOMContentLoaded', (event) => {
  highlightEdges();
  highlightAdjacentNodes();
});
]]></script>
</svg>
