<?xml version="1.0" encoding="UTF-8" standalone="no"?>
<!DOCTYPE svg PUBLIC "-//W3C//DTD SVG 1.1//EN"
 "http://www.w3.org/Graphics/SVG/1.1/DTD/svg11.dtd">
<!-- Generated by graphviz version 12.2.1 (0)
 -->
<!-- Title: validate_object Pages: 1 -->
<svg width="327pt" height="146pt"
 viewBox="0.00 0.00 326.75 145.75" xmlns="http://www.w3.org/2000/svg" xmlns:xlink="http://www.w3.org/1999/xlink">

<svg id="main" version="1.1" xmlns="http://www.w3.org/2000/svg" xmlns:xlink="http://www.w3.org/1999/xlink" xml:space="preserve">

<style type="text/css"><![CDATA[
.node, .edge {opacity: 0.7;}
.node.selected, .edge.selected {opacity: 1;}
.edge:hover path { stroke: red; }
.edge:hover polygon { stroke: red; fill: red; }
]]></style>
<script type="application/ecmascript" xlink:href="svg.min.js"/>
<svg id="graph" class="graph">
<g id="graph0" class="graph" transform="scale(1 1) rotate(0) translate(4 141.75)">
<title>validate_object</title>
<!-- Node1 -->
<g id="Node000001" class="node">
<title>Node1</title>
<g id="a_Node000001"><a xlink:title="Validate an object against the specified rules.">
<polygon fill="#999999" stroke="#666666" points="91,-98.75 0,-98.75 0,-78 91,-78 91,-98.75"/>
<text text-anchor="middle" x="45.5" y="-85.25" font-family="Helvetica,sans-Serif" font-size="10.00">validate_object</text>
</a>
</g>
</g>
<!-- Node2 -->
<g id="Node000002" class="node">
<title>Node2</title>
<g id="a_Node000002"><a xlink:href="json__processor_8c.html#a18fa9d8aaabcbad8fc925217cb1c4434" target="_top" xlink:title="Validate a JSON value against the specified processor.">
<polygon fill="white" stroke="#666666" points="182.75,-98.75 127,-98.75 127,-78 182.75,-78 182.75,-98.75"/>
<text text-anchor="middle" x="154.88" y="-85.25" font-family="Helvetica,sans-Serif" font-size="10.00">validate</text>
</a>
</g>
</g>
<!-- Node1&#45;&gt;Node2 -->
<g id="edge1_Node000001_Node000002" class="edge">
<title>Node1&#45;&gt;Node2</title>
<g id="a_edge1_Node000001_Node000002"><a xlink:title=" ">
<path fill="none" stroke="#63b8ff" d="M91.41,-81.71C99.35,-81.56 107.55,-81.61 115.3,-81.87"/>
<polygon fill="#63b8ff" stroke="#63b8ff" points="114.94,-85.36 125.09,-82.34 115.27,-78.36 114.94,-85.36"/>
</a>
</g>
</g>
<!-- Node2&#45;&gt;Node1 -->
<g id="edge6_Node000002_Node000001" class="edge">
<title>Node2&#45;&gt;Node1</title>
<g id="a_edge6_Node000002_Node000001"><a xlink:title=" ">
<path fill="none" stroke="#63b8ff" d="M126.61,-94.34C119.26,-94.81 111.03,-95.07 102.72,-95.12"/>
<polygon fill="#63b8ff" stroke="#63b8ff" points="102.95,-91.62 92.93,-95.05 102.9,-98.62 102.95,-91.62"/>
</a>
</g>
</g>
<!-- Node3 -->
<g id="Node000003" class="node">
<title>Node3</title>
<g id="a_Node000003"><a xlink:href="json__processor_8c.html#a26db040b6f7e243d4c0398a01ca6f59d" target="_top" xlink:title="Validate an array against the specified rules.">
<polygon fill="white" stroke="#666666" points="312,-137.75 225.5,-137.75 225.5,-117 312,-117 312,-137.75"/>
<text text-anchor="middle" x="268.75" y="-124.25" font-family="Helvetica,sans-Serif" font-size="10.00">validate_array</text>
</a>
</g>
</g>
<!-- Node2&#45;&gt;Node3 -->
<g id="edge2_Node000002_Node000003" class="edge">
<title>Node2&#45;&gt;Node3</title>
<g id="a_edge2_Node000002_Node000003"><a xlink:title=" ">
<path fill="none" stroke="#63b8ff" d="M183.24,-92.02C200.81,-96.99 223.53,-104.92 240.98,-112.18"/>
<polygon fill="#63b8ff" stroke="#63b8ff" points="239.12,-115.19 249.69,-115.98 241.92,-108.78 239.12,-115.19"/>
</a>
</g>
</g>
<!-- Node4 -->
<g id="Node000004" class="node">
<title>Node4</title>
<g id="a_Node000004"><a xlink:href="json__processor_8c.html#a556cb36db80168fafc9b0179e1d4f9c8" target="_top" xlink:title="Validate a boolean value against the specified rules.">
<polygon fill="white" stroke="#666666" points="318.75,-98.75 218.75,-98.75 218.75,-78 318.75,-78 318.75,-98.75"/>
<text text-anchor="middle" x="268.75" y="-85.25" font-family="Helvetica,sans-Serif" font-size="10.00">validate_boolean</text>
</a>
</g>
</g>
<!-- Node2&#45;&gt;Node4 -->
<g id="edge4_Node000002_Node000004" class="edge">
<title>Node2&#45;&gt;Node4</title>
<g id="a_edge4_Node000002_Node000004"><a xlink:title=" ">
<path fill="none" stroke="#63b8ff" d="M183.24,-88.38C190.54,-88.38 198.72,-88.38 207.04,-88.38"/>
<polygon fill="#63b8ff" stroke="#63b8ff" points="206.89,-91.88 216.89,-88.38 206.89,-84.88 206.89,-91.88"/>
</a>
</g>
</g>
<!-- Node5 -->
<g id="Node000005" class="node">
<title>Node5</title>
<g id="a_Node000005"><a xlink:href="json__processor_8c.html#aded4a089b92d327b98e2a6351a04f14f" target="_top" xlink:title="Validate a number value against the specified rules.">
<polygon fill="white" stroke="#666666" points="318,-59.75 219.5,-59.75 219.5,-39 318,-39 318,-59.75"/>
<text text-anchor="middle" x="268.75" y="-46.25" font-family="Helvetica,sans-Serif" font-size="10.00">validate_number</text>
</a>
</g>
</g>
<!-- Node2&#45;&gt;Node5 -->
<g id="edge5_Node000002_Node000005" class="edge">
<title>Node2&#45;&gt;Node5</title>
<g id="a_edge5_Node000002_Node000005"><a xlink:title=" ">
<path fill="none" stroke="#63b8ff" d="M183.24,-78.83C196.13,-74.34 211.78,-68.89 226.1,-63.9"/>
<polygon fill="#63b8ff" stroke="#63b8ff" points="227,-67.29 235.29,-60.69 224.69,-60.68 227,-67.29"/>
</a>
</g>
</g>
<!-- Node6 -->
<g id="Node000006" class="node">
<title>Node6</title>
<g id="a_Node000006"><a xlink:href="json__processor_8c.html#a2ee9216e3611025ff4fad91f31ea0697" target="_top" xlink:title="Validate a string value against the specified rules.">
<polygon fill="white" stroke="#666666" points="313.12,-20.75 224.38,-20.75 224.38,0 313.12,0 313.12,-20.75"/>
<text text-anchor="middle" x="268.75" y="-7.25" font-family="Helvetica,sans-Serif" font-size="10.00">validate_string</text>
</a>
</g>
</g>
<!-- Node2&#45;&gt;Node6 -->
<g id="edge7_Node000002_Node000006" class="edge">
<title>Node2&#45;&gt;Node6</title>
<g id="a_edge7_Node000002_Node000006"><a xlink:title=" ">
<path fill="none" stroke="#63b8ff" d="M165.18,-77.72C176.71,-65.05 197.44,-43.92 218.75,-30.38 221.12,-28.87 223.63,-27.43 226.21,-26.07"/>
<polygon fill="#63b8ff" stroke="#63b8ff" points="227.45,-29.36 234.97,-21.89 224.43,-23.04 227.45,-29.36"/>
</a>
</g>
</g>
<!-- Node3&#45;&gt;Node2 -->
<g id="edge3_Node000003_Node000002" class="edge">
<title>Node3&#45;&gt;Node2</title>
<g id="a_edge3_Node000003_Node000002"><a xlink:title=" ">
<path fill="none" stroke="#63b8ff" d="M225.07,-119.07C210.84,-114.49 195.39,-108.86 182.71,-103.59"/>
<polygon fill="#63b8ff" stroke="#63b8ff" points="184.33,-100.48 173.77,-99.69 181.54,-106.9 184.33,-100.48"/>
</a>
</g>
</g>
</g>
</svg>
</svg>

<style type='text/css'>
<![CDATA[
[data-mouse-over-selected='false'] { opacity: 0.7; }
[data-mouse-over-selected='true']  { opacity: 1.0; }
]]>
</style>
<script type="application/ecmascript"><![CDATA[
document.addEventListener('DOMContentLoaded', (event) => {
  highlightEdges();
  highlightAdjacentNodes();
});
]]></script>
</svg>
