<?xml version="1.0" encoding="UTF-8" standalone="no"?>
<!DOCTYPE svg PUBLIC "-//W3C//DTD SVG 1.1//EN"
 "http://www.w3.org/Graphics/SVG/1.1/DTD/svg11.dtd">
<!-- Generated by graphviz version 12.2.1 (0)
 -->
<!-- Title: components/config/include/config.h Pages: 1 -->
<svg width="292pt" height="98pt"
 viewBox="0.00 0.00 291.50 98.25" xmlns="http://www.w3.org/2000/svg" xmlns:xlink="http://www.w3.org/1999/xlink">
<g id="graph0" class="graph" transform="scale(1 1) rotate(0) translate(4 94.25)">
<title>components/config/include/config.h</title>
<!-- Node1 -->
<g id="Node000001" class="node">
<title>Node1</title>
<g id="a_Node000001"><a xlink:title="Configuration management component utilizing NVS. Provides an abstraction layer to read,...">
<polygon fill="#999999" stroke="#666666" points="220.38,-90.25 73.88,-90.25 73.88,-56.75 220.38,-56.75 220.38,-90.25"/>
<text text-anchor="start" x="81.88" y="-76.75" font-family="Helvetica,sans-Serif" font-size="10.00">components/config/include</text>
<text text-anchor="middle" x="147.12" y="-64" font-family="Helvetica,sans-Serif" font-size="10.00">/config.h</text>
</a>
</g>
</g>
<!-- Node2 -->
<g id="Node000002" class="node">
<title>Node2</title>
<g id="a_Node000002"><a xlink:title=" ">
<polygon fill="#e0e0e0" stroke="#999999" points="60.25,-20.75 0,-20.75 0,0 60.25,0 60.25,-20.75"/>
<text text-anchor="middle" x="30.12" y="-7.25" font-family="Helvetica,sans-Serif" font-size="10.00">esp_err.h</text>
</a>
</g>
</g>
<!-- Node1&#45;&gt;Node2 -->
<g id="edge1_Node000001_Node000002" class="edge">
<title>Node1&#45;&gt;Node2</title>
<g id="a_edge1_Node000001_Node000002"><a xlink:title=" ">
<path fill="none" stroke="#63b8ff" d="M116.08,-56.28C98.36,-47.02 76.3,-35.5 58.97,-26.44"/>
<polygon fill="#63b8ff" stroke="#63b8ff" points="60.69,-23.39 50.21,-21.87 57.45,-29.6 60.69,-23.39"/>
</a>
</g>
</g>
<!-- Node3 -->
<g id="Node000003" class="node">
<title>Node3</title>
<g id="a_Node000003"><a xlink:title=" ">
<polygon fill="#e0e0e0" stroke="#999999" points="139.62,-20.75 78.62,-20.75 78.62,0 139.62,0 139.62,-20.75"/>
<text text-anchor="middle" x="109.12" y="-7.25" font-family="Helvetica,sans-Serif" font-size="10.00">stdbool.h</text>
</a>
</g>
</g>
<!-- Node1&#45;&gt;Node3 -->
<g id="edge2_Node000001_Node000003" class="edge">
<title>Node1&#45;&gt;Node3</title>
<g id="a_edge2_Node000001_Node000003"><a xlink:title=" ">
<path fill="none" stroke="#63b8ff" d="M137.14,-56.44C132.26,-48.58 126.33,-39.06 121.2,-30.79"/>
<polygon fill="#63b8ff" stroke="#63b8ff" points="124.29,-29.15 116.04,-22.5 118.35,-32.84 124.29,-29.15"/>
</a>
</g>
</g>
<!-- Node4 -->
<g id="Node000004" class="node">
<title>Node4</title>
<g id="a_Node000004"><a xlink:title=" ">
<polygon fill="#e0e0e0" stroke="#999999" points="212.62,-20.75 157.62,-20.75 157.62,0 212.62,0 212.62,-20.75"/>
<text text-anchor="middle" x="185.12" y="-7.25" font-family="Helvetica,sans-Serif" font-size="10.00">stddef.h</text>
</a>
</g>
</g>
<!-- Node1&#45;&gt;Node4 -->
<g id="edge3_Node000001_Node000004" class="edge">
<title>Node1&#45;&gt;Node4</title>
<g id="a_edge3_Node000001_Node000004"><a xlink:title=" ">
<path fill="none" stroke="#63b8ff" d="M157.11,-56.44C161.99,-48.58 167.92,-39.06 173.05,-30.79"/>
<polygon fill="#63b8ff" stroke="#63b8ff" points="175.9,-32.84 178.21,-22.5 169.96,-29.15 175.9,-32.84"/>
</a>
</g>
</g>
<!-- Node5 -->
<g id="Node000005" class="node">
<title>Node5</title>
<g id="a_Node000005"><a xlink:title=" ">
<polygon fill="#e0e0e0" stroke="#999999" points="283.5,-20.75 230.75,-20.75 230.75,0 283.5,0 283.5,-20.75"/>
<text text-anchor="middle" x="257.12" y="-7.25" font-family="Helvetica,sans-Serif" font-size="10.00">stdint.h</text>
</a>
</g>
</g>
<!-- Node1&#45;&gt;Node5 -->
<g id="edge4_Node000001_Node000005" class="edge">
<title>Node1&#45;&gt;Node5</title>
<g id="a_edge4_Node000001_Node000005"><a xlink:title=" ">
<path fill="none" stroke="#63b8ff" d="M176.31,-56.28C192.81,-47.11 213.32,-35.72 229.55,-26.7"/>
<polygon fill="#63b8ff" stroke="#63b8ff" points="231.14,-29.82 238.18,-21.9 227.74,-23.7 231.14,-29.82"/>
</a>
</g>
</g>
</g>
</svg>
