**ABCDEFGHIJKLMNOPQRSTUVWXYZabcdefghijklmnopqrstuvwxyz**************************
**PARASOLID !"#$%&'()*+,-./:;<=>?@[\]^_`{|}~0123456789**************************
**PART1;
MC=unknown;
MC_MODEL=unknown;
MC_ID=unknown;
OS=unknown;
OS_RELEASE=unknown;
FRU=Parasolid 36.0.180;
APPL=Onshape;
SITE=unknown;
USER=unknown;
FORMAT=text;
GUISE=transmit;
KEY=BTGapi::writeModels_.xmt;
FILE=BTGapi::writeModels_.xmt;
DATE=2024-11-10T10:50:09 (UTC);
**PART2;
SCH=SCH_3600180_36001;
USFLD_SIZE=0;
**PART3;
**END_OF_HEADER*****************************************************************
T51 : TRANSMIT FILE created by modeller version 360018023 SCH_3600180_36001_1300
6231 0 12 36 CCCI7 lattice222 0 CCCI4 mesh1006 0 I8 polyline1008 0 CCCCCCCDI5 ow
ner1040 0 CCCI16 boundary_lattice222 0 CCCI13 boundary_mesh1006 0 I17 boundary_p
olyline1008 0 CCCA16 index_map_offset0 0 1 dA9 index_map82 0 A17 node_id_index_m
ap82 0 A20 schema_embedding_map82 0 A5 child12 0 A14 lowest_node_id0 0 1 dA16 me
sh_offset_data206 0 Z1 1573 2 3 0 0 0 0 0 0 0 1e3 1e-8 0 4 5 1 0 1 2 6 0 7 8 9 0
 0 10 11 12 0 0 0 0 0 0 0 81 255 1 2 1541 13 1 14 0 0 0 15 70 11 CI9 list_type0
 0 1 uI10 notransmit0 0 1 lCCCDCCDI12 finger_index0 0 1 dI12 finger_block1012 0
 CZ3 0 4 T1 0 0 6 20 1 16 16 13 255 6 137 0 1 0 17 0 0 18 0 51 255 7 1069 19 17
 20 0 0 +-.03660863291007095 -.0422896536765676 .002 0 0 -1 .000707106781186545
 -1 0 0 31 255 8 1056 0 11 21 0 0 --.03660863291007095 -.0422896536765676 0 0 0
 1 1 0 0 .000707106781186545 29 255 9 1395 0 12 22 0 -.00696573969125748 .014753
23954224586 0 19 9 CCCCCCI5 frame230 0 CA5 owner12 0 Z10 48 0 1 18 0 23 0 V0 16
 255 11 1054 24 ?25 0 26 8 0 0 1 18 255 12 1393 27 28 0 29 9 ?1 81 1 27 1532 30
 12 0 0 31 32 33 17 255 28 0 34 35 36 12 37 38 0 39 -18 29 1389 40 36 12 41 22 ?
1 81 1 40 1530 30 29 0 0 42 31 43 17 36 0 34 28 44 29 45 46 0 37 -18 41 1382 31
 44 29 47 48 ?1 29 22 1391 0 29 48 9 -.00696573969125748 .01675323954224585 0 29
 48 1384 0 41 49 22 .0380342603087425 .01675323954224585 0 29 49 1179 0 47 50 48
 .0380342603087425 -.03874676045775415 0 18 47 1177 51 52 41 53 49 ?1 29 50 1043
 0 53 54 49 -.0373157396912575 -.0422896536765676 0 18 53 1040 55 25 47 56 50 ?1
 29 54 1039 0 56 57 50 -.0373157396912575 -.0422896536765676 .002 18 56 1036 58
 59 53 60 54 ?1 29 57 1030 0 60 61 54 -.03660863291007095 -.04299676045775415 .0
02 18 60 1027 62 63 56 64 57 ?1 29 61 1026 0 64 65 57 -.03660863291007095 -.0429
9676045775415 0 18 64 1023 66 67 60 68 61 ?1 29 65 868 0 68 69 61 -.006965739691
25748 -.04299676045775415 0 18 68 864 70 71 64 72 65 ?1 29 69 863 0 72 73 65 -.0
232657396912575 -.04299676045775415 0 18 72 859 74 75 68 76 69 ?1 29 73 756 0 76
 77 69 .0706842603087425 .0182961327610593 0 18 76 753 78 79 72 80 73 ?1 29 77 7
52 0 80 81 73 .0706842603087425 .0182961327610593 .002 18 80 749 82 83 76 84 77
 ?1 29 81 743 0 84 85 77 .069977153527556 .01900323954224585 .002 18 84 740 86 8
7 80 88 81 ?1 29 85 739 0 88 89 81 .069977153527556 .01900323954224585 0 18 88 7
36 90 91 84 92 85 ?1 29 89 685 0 92 93 85 .069977153527556 -.04299676045775415 .
002 18 92 682 94 95 88 96 89 ?1 29 93 681 0 96 97 89 .069977153527556 -.04299676
045775415 0 18 96 678 98 99 92 100 93 ?1 29 97 672 0 100 101 93 .070684260308742
5 -.0422896536765676 .002 18 100 669 102 103 96 104 97 ?1 29 101 668 0 104 105 9
7 .0706842603087425 -.0422896536765676 0 18 104 665 106 107 100 108 101 ?1 29 10
5 614 0 108 109 101 -.03660863291007095 .01900323954224585 .002 18 108 611 110 1
11 104 112 105 ?1 29 109 610 0 112 113 105 -.03660863291007095 .0190032395422458
5 0 18 112 607 114 115 108 116 109 ?1 29 113 601 0 116 117 109 -.037315739691257
5 .0182961327610593 .002 18 116 598 118 119 112 120 113 ?1 29 117 597 0 120 121
 113 -.0373157396912575 .0182961327610593 0 18 120 594 122 123 116 124 117 ?1 29
 121 996 0 125 126 117 -.0232657396912575 -.03999676045775415 0 18 125 938 127 1
28 129 130 121 ?1 29 126 998 0 124 131 121 -.00696573969125748 -.042996760457754
15 -.0125 18 124 942 132 133 120 134 126 ?1 29 131 999 0 134 135 126 -.006965739
69125748 -.03999676045775415 -.0125 18 134 948 136 137 124 138 131 ?1 29 135 100
0 0 138 139 131 -.0232657396912575 -.03999676045775415 -.0125 18 138 946 140 141
 134 129 135 ?1 29 139 1001 0 129 142 135 -.0232657396912575 -.04299676045775415
 -.0125 18 129 934 143 144 138 125 139 ?1 29 142 1347 0 130 145 139 -.0069657396
9125748 -.03999676045775415 0 18 130 1281 146 147 125 148 142 ?1 29 145 1348 0 1
48 149 142 -.00696573969125748 -.03999676045775415 -.002 18 148 1288 150 151 130
 152 145 ?1 29 149 1349 0 153 154 145 .0380342603087425 -.04074676045775415 0 18
 153 1286 155 156 157 158 149 ?1 29 154 1351 0 158 159 149 -.00696573969125748 -
.03874676045775415 0 18 158 1282 160 161 153 162 154 ?1 29 159 1352 0 162 163 15
4 -.00696573969125748 -.04074676045775415 0 18 162 1289 164 165 158 166 159 ?1 2
9 163 1353 0 152 167 159 .0380342603087425 -.04074676045775415 -.002 18 152 1291
 168 169 148 170 163 ?1 29 167 1354 0 170 171 163 .0380342603087425 -.0387467604
5775415 -.002 18 170 1297 172 173 152 174 167 ?1 29 171 1355 0 174 175 167 -.006
96573969125748 -.03874676045775415 -.002 18 174 1295 176 177 170 157 171 ?1 29 1
75 1356 0 157 178 171 -.00696573969125748 -.04074676045775415 -.002 18 157 1284
 179 180 174 153 175 ?1 29 178 1517 0 181 182 175 .0380342603087425 .01475323954
224586 0 18 181 1459 32 35 183 0 178 ?1 29 182 1521 0 166 184 178 .0380342603087
425 .01475323954224586 -.0015 18 166 1471 185 186 162 187 182 ?1 29 184 1522 0 1
87 188 182 .0380342603087425 .01675323954224585 -.0015 18 187 1469 189 190 166 1
91 184 ?1 29 188 1523 0 191 192 184 -.00696573969125748 .01675323954224585 -.001
5 18 191 1467 193 194 187 183 188 ?1 29 192 1524 0 183 0 188 -.00696573969125748
 .01475323954224586 -.0015 18 183 1457 195 196 191 181 192 ?1 81 1 195 1458 30 1
83 0 0 197 193 198 17 196 0 199 200 201 183 39 202 0 203 -15 255 199 1476 0 201
 204 0 17 200 0 199 205 196 166 206 207 0 0 +17 201 0 199 196 205 12 35 208 0 0
 -17 39 0 209 37 203 12 196 202 0 201 +16 202 1424 210 ?39 211 212 213 0 0 1 17
 203 0 209 39 214 183 194 215 0 206 -15 209 1480 0 37 216 0 17 214 0 209 203 37
 191 217 212 0 218 -17 194 0 219 190 206 191 203 215 0 214 +16 215 1443 220 ?194
 221 207 222 0 0 1 17 206 0 219 194 186 183 200 207 0 0 -15 219 1492 0 206 223 0
 17 186 0 219 206 190 166 224 225 0 226 +16 207 1413 227 ?200 215 228 229 0 0 1
 81 1 227 1415 30 207 0 0 230 231 232 16 228 1435 233 ?234 207 46 235 0 0 1 30 2
55 229 1516 0 207 0 222 0 +.0155342603087425 .01475323954224586 -.0015 1 0 0 30
 222 1515 0 215 229 236 0 +-.00696573969125748 .01575323954224585 -.0015 0 1 0 3
0 236 1514 0 221 222 237 0 +.0155342603087425 .01675323954224585 -.0015 1 0 0 16
 221 1446 238 ?190 225 215 236 0 0 1 30 237 1513 0 225 236 239 0 +.0380342603087
425 .01575323954224585 -.0015 0 -1 0 16 225 1449 197 ?186 240 221 237 0 0 1 30 2
39 1512 0 208 237 241 0 +.0155342603087425 .01475323954224586 0 1 0 0 16 208 145
2 242 ?35 38 0 239 0 0 1 30 241 1511 0 38 239 243 0 +-.00696573969125748 .015753
23954224585 0 0 1 0 16 38 1419 244 ?37 46 208 241 0 0 1 30 243 1510 0 46 241 235
 0 +.0155342603087425 .01675323954224585 0 1 0 0 16 46 1427 245 ?45 228 38 243 0
 0 1 30 235 1509 0 228 243 246 0 +.0380342603087425 .01575323954224585 0 0 -1 0
 30 246 1508 0 240 235 247 0 +.0380342603087425 .01475323954224586 -.0015 0 0 1
 16 240 1416 231 ?205 248 225 246 0 0 1 30 247 1507 0 248 246 249 0 +.0380342603
087425 .01675323954224585 -.0015 0 0 1 16 248 1440 250 ?251 212 240 247 0 0 1 30
 249 1506 0 212 247 213 0 +-.00696573969125748 .01675323954224585 -.0015 0 0 1 1
6 212 1432 252 ?217 202 248 249 0 0 1 30 213 1505 0 202 249 253 0 +-.00696573969
125748 .01475323954224586 -.0015 0 0 1 30 253 1346 0 254 213 255 0 +.01553426030
87425 -.04074676045775415 -.002 1 0 0 16 254 1230 256 ?257 258 259 253 0 0 1 30
 255 1345 0 260 253 261 0 +-.00696573969125748 -.04149676045775415 -.002 0 1 0 1
6 260 1260 262 ?263 264 258 255 258 258 1 30 261 1344 0 264 255 265 0 +.01553426
03087425 -.03874676045775415 -.002 1 0 0 16 264 1268 266 ?173 267 260 261 0 0 1
 30 265 1343 0 267 261 268 0 +.0380342603087425 -.03974676045775415 -.002 0 1 0
 16 267 1254 269 ?270 271 264 265 0 0 1 30 268 1342 0 211 265 272 0 +.0155342603
087425 -.04074676045775415 0 1 0 0 16 211 1271 273 ?274 275 202 268 0 0 1 30 272
 1341 0 275 268 276 0 +-.00696573969125748 -.04149676045775415 0 0 1 0 16 275 12
41 277 ?161 278 211 272 0 0 1 30 276 1340 0 278 272 279 0 +.0155342603087425 -.0
3874676045775415 0 1 0 0 16 278 1246 280 ?52 259 275 276 0 0 1 30 279 1339 0 259
 276 281 0 +.0380342603087425 -.03974676045775415 0 0 1 0 16 259 1276 282 ?283 2
54 278 279 0 0 1 30 281 1338 0 271 279 284 0 +.0380342603087425 -.04074676045775
415 -.002 0 0 1 16 271 1233 285 ?156 286 267 281 0 0 1 30 284 1337 0 286 281 287
 0 +.0380342603087425 -.03874676045775415 -.002 0 0 1 16 286 1257 288 ?289 290 2
71 284 0 0 1 30 287 1336 0 290 284 291 0 +-.00696573969125748 -.0387467604577541
5 -.002 0 0 1 16 290 1251 292 ?293 294 286 287 0 0 1 30 291 1335 0 294 287 295 0
 +-.00696573969125748 -.04074676045775415 -.002 0 0 1 16 294 1236 296 ?297 298 2
90 291 0 0 1 30 295 993 0 299 291 300 0 +.0166842603087425 -.04299676045775415 -
.0125 1 0 0 16 299 890 301 ?302 303 304 295 0 0 1 30 300 992 0 303 295 305 0 +-.
0232657396912575 -.04149676045775415 -.0125 0 1 0 16 303 918 306 ?141 307 299 30
0 0 0 1 30 305 991 0 307 300 308 0 +-.0151157396912575 -.03999676045775415 -.012
5 1 0 0 16 307 921 309 ?137 310 303 305 0 0 1 30 308 990 0 310 305 311 0 +-.0069
6573969125748 -.04149676045775415 -.0125 0 1 0 16 310 912 312 ?313 314 307 308 0
 0 1 30 311 988 0 298 308 315 0 +-.0232657396912575 -.04149676045775415 0 0 1 0
 16 298 896 316 ?317 318 294 311 0 0 1 30 315 987 0 318 311 319 0 +-.01511573969
12575 -.03999676045775415 0 1 0 0 16 318 904 320 ?321 304 298 315 0 0 1 30 319 9
86 0 304 315 322 0 +-.00696573969125748 -.04149676045775415 0 0 1 0 16 304 929 3
23 ?324 299 318 319 0 0 1 30 322 985 0 314 319 325 0 +-.00696573969125748 -.0429
9676045775415 -.0125 0 0 1 16 314 893 326 ?327 328 310 322 0 0 1 30 325 984 0 32
9 322 330 0 +-.00696573969125748 -.03999676045775415 -.0125 0 0 1 16 329 915 331
 ?332 333 328 325 328 328 1 30 330 983 0 333 325 334 0 +-.0232657396912575 -.039
99676045775415 -.0125 0 0 1 16 333 909 335 ?336 337 329 330 0 0 1 30 334 982 0 3
37 330 338 0 +-.0232657396912575 -.04299676045775415 -.0125 0 0 1 16 337 901 339
 ?340 341 333 334 0 0 1 30 338 9 0 342 334 343 0 +.0166842603087425 .01900323954
224585 .002 1 0 0 16 342 612 344 ?345 346 347 338 0 0 1 30 343 14 0 346 338 348
 0 +-.0373157396912575 -.01199676045775414 .002 0 -1 0 16 346 599 349 ?350 351 3
42 343 0 0 1 30 348 19 0 351 343 352 0 +.0166842603087425 -.04299676045775415 .0
02 1 0 0 16 351 1028 353 ?95 354 346 348 0 0 1 30 352 24 0 354 348 355 0 +.07068
42603087425 -.01199676045775414 .002 0 -1 0 16 354 750 356 ?103 357 351 352 0 0
 1 30 355 112 0 358 352 359 0 +.0166842603087425 .01900323954224585 0 1 0 0 16 3
58 608 360 ?361 362 363 355 0 0 1 30 359 111 0 362 355 364 0 +-.0373157396912575
 -.01199676045775414 0 0 -1 0 16 362 595 365 ?366 367 358 359 0 0 1 30 364 110 0
 368 359 369 0 +.0166842603087425 -.04299676045775415 0 1 0 0 16 368 1024 370 ?7
5 347 367 364 367 367 1 30 369 109 0 347 364 371 0 +.0706842603087425 -.01199676
045775414 0 0 -1 0 16 347 754 372 ?107 342 368 369 0 0 1 31 371 202 0 341 369 37
3 0 +-.0333157396912575 .01350323954224586 0 0 0 1 1 0 0 .0015 16 341 362 374 ?3
75 376 337 371 0 0 1 31 373 209 0 376 371 377 0 +.0576842603087425 -.03799676045
775415 0 0 0 1 1 0 0 .0015 16 376 332 378 ?379 380 341 373 0 0 1 31 377 216 0 38
0 373 381 0 +.0576842603087425 .01400323954224584 0 0 0 1 1 0 0 .0015 16 380 302
 382 ?383 363 376 377 0 0 1 31 381 223 0 363 377 384 0 +-.0333157396912575 -.037
49676045775415 0 0 0 1 1 0 0 .0015 16 363 272 385 ?386 358 380 381 0 0 1 31 384
 459 0 357 381 387 0 +.0576842603087425 -.03799676045775415 5e-4 0 0 1 1 0 0 .00
15 16 357 456 388 ?389 390 354 384 0 0 1 31 387 465 0 390 384 391 0 --.033315739
6912575 .01350323954224586 .002 0 0 1 1 0 0 .003 16 390 462 392 ?393 394 357 387
 0 0 1 31 391 471 0 394 387 395 0 --.0333157396912575 -.03749676045775415 .002 0
 0 1 1 0 0 .003 16 394 468 396 ?397 398 390 391 0 0 1 31 395 477 0 398 391 399 0
 -.0576842603087425 .01400323954224584 .002 0 0 1 1 0 0 .003 16 398 474 400 ?401
 402 394 395 0 0 1 31 399 483 0 402 395 403 0 -.0576842603087425 -.0379967604577
5415 .002 0 0 1 1 0 0 .003 16 402 480 404 ?405 406 398 399 0 0 1 31 403 489 0 40
6 399 407 0 +.0576842603087425 .01400323954224584 5e-4 0 0 1 1 0 0 .0015 16 406
 486 408 ?409 410 402 403 0 0 1 31 407 495 0 410 403 411 0 +-.0333157396912575 -
.03749676045775415 5e-4 0 0 1 1 0 0 .0015 16 410 492 412 ?413 414 406 407 0 0 1
 31 411 501 0 414 407 415 0 +-.0333157396912575 .01350323954224586 5e-4 0 0 1 1
 0 0 .0015 16 414 498 416 ?417 418 410 411 0 0 1 30 415 604 0 418 411 419 0 --.0
373157396912575 .0182961327610593 .002 0 0 1 16 418 602 420 ?421 422 414 415 0 0
 1 30 419 617 0 422 415 423 0 +-.03660863291007095 .01900323954224585 .002 0 0 1
 16 422 615 424 ?425 426 418 419 0 0 1 31 423 622 0 426 419 427 0 +-.03660863291
007095 .0182961327610593 .002 0 0 1 1 0 0 .000707106781186545 16 426 620 428 ?11
9 429 422 423 0 0 1 31 427 627 0 429 423 430 0 --.03660863291007095 .01829613276
10593 0 0 0 1 1 0 0 .000707106781186545 16 429 625 431 ?115 432 426 427 0 0 1 30
 430 675 0 432 427 433 0 -.0706842603087425 -.0422896536765676 .002 0 0 1 16 432
 673 434 ?435 436 429 430 0 0 1 30 433 688 0 436 430 437 0 +.069977153527556 -.0
4299676045775415 .002 0 0 1 16 436 686 438 ?439 440 432 433 0 0 1 31 437 693 0 4
40 433 441 0 +.069977153527556 -.0422896536765676 .002 0 0 1 1 0 0 .000707106781
186545 16 440 691 442 ?443 444 436 437 0 0 1 31 441 698 0 444 437 445 0 -.069977
153527556 -.0422896536765676 0 0 0 1 1 0 0 .000707106781186545 16 444 696 446 ?4
47 448 440 441 0 0 1 30 445 746 0 448 441 449 0 +.069977153527556 .0190032395422
4585 .002 0 0 -1 16 448 744 450 ?451 452 444 445 0 0 1 30 449 759 0 452 445 453
 0 -.0706842603087425 .0182961327610593 .002 0 0 -1 16 452 757 454 ?455 456 448
 449 0 0 1 31 453 764 0 456 449 457 0 +.069977153527556 .0182961327610593 .002 0
 0 1 1 0 0 .000707106781186545 16 456 762 458 ?87 459 452 453 0 0 1 31 457 769 0
 459 453 460 0 -.069977153527556 .0182961327610593 0 0 0 1 1 0 0 .00070710678118
6545 16 459 767 461 ?79 462 456 457 0 0 1 30 460 1033 0 462 457 463 0 +-.0366086
3291007095 -.04299676045775415 .002 0 0 -1 16 462 1031 464 ?465 466 459 460 0 0
 1 30 463 1046 0 466 460 21 0 --.0373157396912575 -.0422896536765676 .002 0 0 -1
 16 466 1044 467 ?468 26 462 463 0 0 1 31 21 1051 0 26 463 8 0 +-.03660863291007
095 -.0422896536765676 .002 0 0 1 1 0 0 .000707106781186545 16 26 1049 469 ?63 1
1 466 21 0 0 1 81 1 469 1081 30 26 0 0 467 464 470 17 63 0 471 95 350 60 59 26 0
 472 +15 471 6 0 350 473 0 17 95 0 471 443 63 92 474 351 0 475 +17 350 0 471 63
 119 56 476 346 0 0 +17 59 0 477 478 472 56 63 26 0 468 -17 472 0 477 59 67 60 4
65 462 0 474 -15 477 1032 0 472 17 0 17 67 0 477 472 478 64 25 11 0 465 -17 465
 0 479 75 474 64 472 462 0 480 +17 474 0 479 465 439 60 95 351 0 0 -15 479 123 0
 474 481 0 17 439 0 479 474 99 92 482 436 0 0 +17 99 0 479 439 327 96 71 367 0 4
47 +17 482 0 483 484 475 96 439 436 0 0 -15 483 674 0 485 486 0 17 484 0 483 485
 482 104 447 444 0 435 -17 475 0 483 482 485 92 443 440 0 439 -17 485 0 483 475
 484 100 435 432 0 0 -17 443 0 471 487 95 100 475 440 0 485 +17 487 0 471 87 443
 80 103 354 0 0 -17 87 0 471 488 487 84 83 456 0 489 +17 103 0 490 435 455 100 4
87 354 0 443 +15 490 121 0 491 492 0 17 435 0 490 491 103 104 485 432 0 0 +17 45
5 0 490 103 491 80 493 452 0 487 +17 491 0 490 455 435 76 107 347 0 0 -17 493 0
 494 91 83 76 455 452 0 491 -15 494 745 0 489 495 0 17 91 0 494 489 493 88 79 45
9 0 451 -17 83 0 494 493 489 80 87 456 0 455 -17 489 0 494 83 91 84 451 448 0 34
5 -17 451 0 496 497 345 88 489 448 0 361 +17 345 0 496 451 425 84 488 342 0 0 +1
5 496 127 0 345 498 0 17 425 0 496 345 497 108 499 422 0 488 +17 488 0 471 119 8
7 108 345 342 0 0 -17 119 0 471 350 488 116 111 426 0 500 +17 111 0 501 499 500
 108 119 426 0 425 -17 500 0 501 111 123 116 421 418 0 476 -15 501 603 0 500 502
 0 17 123 0 501 500 499 120 115 429 0 421 -17 421 0 503 366 476 120 500 418 0 50
4 +17 476 0 503 421 468 116 350 346 0 0 -15 503 125 0 366 505 0 17 468 0 503 476
 366 56 478 466 0 350 +17 366 0 503 468 421 53 504 362 0 0 +17 478 0 477 67 59 5
3 468 466 0 366 -17 504 0 506 115 25 120 366 362 0 0 -15 506 75 0 324 507 0 17 1
15 0 506 361 504 112 123 429 0 499 +17 25 0 506 504 480 53 67 11 0 478 +17 480 0
 506 25 508 64 75 368 0 0 -17 508 0 506 480 128 72 317 298 0 340 -17 75 0 479 14
4 465 72 480 368 0 508 +17 144 0 479 302 75 129 340 337 0 509 -17 302 0 479 327
 144 124 510 299 0 511 +17 340 0 512 317 509 72 144 337 0 0 +17 509 0 512 340 51
3 129 141 303 0 510 -15 512 957 0 317 514 0 17 513 0 512 509 317 138 336 333 0 5
15 -17 141 0 516 137 510 138 509 303 0 513 +17 510 0 516 141 511 129 302 299 0 0
 -15 516 969 0 510 517 0 17 511 0 516 510 137 124 313 310 0 0 -17 137 0 516 511
 141 134 515 307 0 518 +17 313 0 519 332 133 134 511 310 0 0 +15 519 1200 0 520
 521 0 17 332 0 519 520 313 148 518 329 0 0 +17 133 0 519 313 522 124 327 314 0
 302 -17 522 0 519 133 297 68 324 304 0 0 -17 327 0 479 99 302 68 133 314 0 522
 +17 297 0 519 522 520 162 180 294 0 324 +17 324 0 506 274 71 162 522 304 0 0 +1
7 274 0 506 283 324 153 165 211 0 0 +17 71 0 506 324 447 68 99 367 0 327 -17 447
 0 506 71 107 96 484 444 0 482 +16 367 865 523 ?99 368 362 364 368 368 1 81 1 52
3 1021 30 367 0 0 316 58 524 80 7 CCCCCDI12 legal_owners0 17 1 lCZ1 30 525 526 9
000 0 0 0 0 3 6 0 0 0 FFTFTFTTFFFFFFFFF1 81 1 316 1016 30 298 0 0 320 523 527 81
 1 58 1076 30 56 0 0 523 55 528 82 255 3 524 18 4 1 81 1 55 1077 30 53 0 0 58 62
 529 82 3 528 19 0 0 81 1 62 1078 30 60 0 0 55 66 530 82 3 529 19 1 0 81 1 66 10
79 30 64 0 0 62 467 531 82 3 530 19 2 0 81 1 467 1080 30 466 0 0 66 469 532 82 3
 531 19 3 0 82 3 532 19 0 1 81 1 320 1015 30 318 0 0 127 316 533 82 3 527 18 1 1
 81 1 127 1013 30 125 0 0 70 320 534 82 3 533 18 0 1 81 1 70 1012 30 68 0 0 74 1
27 535 82 3 534 18 2 0 81 1 74 1011 30 72 0 0 536 70 537 82 3 535 18 1 0 81 1 53
6 968 30 517 0 538 539 74 540 82 3 537 18 0 0 14 255 517 966 538 ?541 521 516 6
 542 +0 0 541 521 23 81 1 538 1563 543 517 536 0 544 545 546 81 1 539 960 30 547
 0 548 549 536 550 82 3 540 17 2 2 14 547 958 548 ?521 514 551 6 552 -0 0 521 51
4 23 81 1 548 1561 543 547 539 0 553 544 554 81 1 549 956 30 514 0 553 136 539 5
55 82 3 550 17 3 2 14 514 954 553 ?547 556 512 6 557 -0 0 547 556 23 81 1 553 15
60 543 514 549 0 558 548 559 81 1 136 949 30 134 0 0 140 549 560 82 3 555 17 4 2
 81 1 140 947 30 138 0 0 132 136 561 82 3 560 17 7 0 81 1 132 943 30 124 0 0 143
 140 562 82 3 561 17 5 0 81 1 143 935 30 129 0 0 309 132 563 82 3 562 17 3 0 81
 1 309 923 30 307 0 0 306 143 564 82 3 563 17 1 0 81 1 306 920 30 303 0 0 312 30
9 565 82 3 564 17 7 1 81 1 312 914 30 310 0 0 335 306 566 82 3 565 17 9 1 81 1 3
35 911 30 333 0 0 339 312 567 82 3 566 17 11 1 81 1 339 903 30 337 0 0 326 335 5
68 82 3 567 17 2 1 81 1 326 895 30 314 0 0 301 339 569 82 3 568 17 0 1 81 1 301
 892 30 299 0 0 570 326 571 82 3 569 17 1 1 81 1 570 803 30 492 0 572 573 301 57
4 82 3 571 17 5 1 14 492 122 572 ?473 481 490 6 575 +0 0 473 481 23 81 1 572 154
9 543 492 570 0 576 577 578 81 1 573 802 30 498 0 579 580 570 581 82 3 574 14 2
 2 14 498 128 579 ?505 502 496 6 582 +0 0 505 502 23 81 1 579 1546 543 498 573 0
 583 584 585 81 1 580 801 30 495 0 586 356 573 587 82 3 581 14 1 2 14 495 779 58
6 ?486 17 494 6 20 +0 0 486 17 23 81 1 586 1543 543 495 580 0 588 589 590 81 1 3
56 800 30 354 0 0 372 580 591 82 3 587 14 0 2 81 1 372 799 30 347 0 0 344 356 59
2 82 3 591 14 7 1 81 1 344 798 30 342 0 0 360 372 593 82 3 592 14 6 1 81 1 360 7
97 30 358 0 0 458 344 594 82 3 593 14 5 1 81 1 458 796 30 456 0 0 461 360 595 82
 3 594 14 4 1 81 1 461 795 30 459 0 0 454 458 596 82 3 595 14 3 1 81 1 454 794 3
0 452 0 0 450 461 597 82 3 596 14 2 1 81 1 450 793 30 448 0 0 82 454 598 82 3 59
7 14 1 1 81 1 82 792 30 80 0 0 78 450 599 82 3 598 14 0 1 81 1 78 791 30 76 0 0
 86 82 600 82 3 599 14 3 0 81 1 86 790 30 84 0 0 90 78 601 82 3 600 14 2 0 81 1
 90 789 30 88 0 0 602 86 603 82 3 601 14 1 0 81 1 602 730 30 486 0 589 442 90 60
4 82 3 603 14 0 0 14 486 708 589 ?502 495 483 6 605 +0 0 502 495 23 81 1 589 154
4 543 486 602 0 586 583 606 81 1 442 725 30 440 0 0 446 602 607 82 3 604 13 0 2
 81 1 446 724 30 444 0 0 434 442 608 82 3 607 13 3 1 81 1 434 723 30 432 0 0 438
 446 609 82 3 608 13 2 1 81 1 438 722 30 436 0 0 102 434 610 82 3 609 13 1 1 81
 1 102 721 30 100 0 0 106 438 611 82 3 610 13 0 1 81 1 106 720 30 104 0 0 94 102
 612 82 3 611 13 3 0 81 1 94 719 30 92 0 0 98 106 613 82 3 612 13 2 0 81 1 98 71
8 30 96 0 0 614 94 615 82 3 613 13 1 0 81 1 614 659 30 502 0 583 428 98 616 82 3
 615 13 0 0 14 502 637 583 ?498 486 501 6 617 +0 0 498 486 23 81 1 583 1545 543
 502 614 0 589 579 618 81 1 428 654 30 426 0 0 431 614 619 82 3 616 12 0 2 81 1
 431 653 30 429 0 0 420 428 620 82 3 619 12 3 1 81 1 420 652 30 418 0 0 424 431
 621 82 3 620 12 2 1 81 1 424 651 30 422 0 0 118 420 622 82 3 621 12 1 1 81 1 11
8 650 30 116 0 0 122 424 623 82 3 622 12 0 1 81 1 122 649 30 120 0 0 110 118 624
 82 3 623 12 3 0 81 1 110 648 30 108 0 0 114 122 625 82 3 624 12 2 0 81 1 114 64
7 30 112 0 0 626 110 627 82 3 625 12 1 0 81 1 626 591 30 628 0 629 630 114 631 8
2 3 627 12 0 0 14 628 348 629 ?632 633 634 6 635 -0 0 632 633 23 81 1 629 1553 5
43 628 626 0 636 637 638 81 1 630 590 30 632 0 637 639 626 640 82 3 631 11 7 2 1
4 632 318 637 ?641 628 642 6 643 -0 0 641 628 23 81 1 637 1554 543 632 630 0 629
 644 645 81 1 639 589 30 641 0 644 646 630 647 82 3 640 11 6 2 14 641 288 644 ?6
48 632 649 6 650 -0 0 648 632 23 81 1 644 1555 543 641 639 0 637 651 652 81 1 64
6 588 30 633 0 636 653 639 654 82 3 647 11 5 2 14 633 378 636 ?628 507 655 6 656
 -0 0 628 507 23 81 1 636 1552 543 633 646 0 657 629 658 81 1 653 587 30 648 0 6
51 659 646 660 82 3 654 11 4 2 14 648 513 651 ?661 641 662 6 663 +0 0 661 641 23
 81 1 651 1556 543 648 653 0 644 664 665 81 1 659 586 30 661 0 664 666 653 667 8
2 3 660 11 3 2 14 661 527 664 ?668 648 669 6 670 +0 0 668 648 23 81 1 664 1557 5
43 661 659 0 651 671 672 81 1 666 585 30 668 0 671 673 659 674 82 3 667 11 2 2 1
4 668 541 671 ?556 661 675 6 676 +0 0 556 661 23 81 1 671 1558 543 668 666 0 664
 558 677 81 1 673 584 30 556 0 558 404 666 678 82 3 674 11 1 2 14 556 555 558 ?5
14 668 679 6 680 +0 0 514 668 23 81 1 558 1559 543 556 673 0 671 553 681 81 1 40
4 583 30 402 0 0 388 673 682 82 3 678 11 0 2 81 1 388 582 30 357 0 0 400 404 683
 82 3 682 11 7 1 81 1 400 581 30 398 0 0 408 388 684 82 3 683 11 6 1 81 1 408 58
0 30 406 0 0 396 400 685 82 3 684 11 5 1 81 1 396 579 30 394 0 0 412 408 686 82
 3 685 11 4 1 81 1 412 578 30 410 0 0 392 396 687 82 3 686 11 3 1 81 1 392 577 3
0 390 0 0 416 412 688 82 3 687 11 2 1 81 1 416 576 30 414 0 0 378 392 689 82 3 6
88 11 1 1 81 1 378 429 30 376 0 0 382 416 690 82 3 689 11 0 1 81 1 382 428 30 38
0 0 0 385 378 691 82 3 690 10 3 1 81 1 385 427 30 363 0 0 374 382 692 82 3 691 1
0 2 1 81 1 374 426 30 341 0 0 0 385 693 82 3 692 10 1 1 82 3 693 10 0 1 80 1 543
 0 694 8001 0 0 0 0 3 5 0 0 0 FFFFTFTFFFFFFFFFF2 83 255 3 681 .615686274509804 .
811764705882353 .929411764705882 79 255 15 694 SDL/TYSA_COLOUR15 679 556 0 695 5
56 696 52 255 680 562 697 556 676 617 0 --.0333157396912575 .01350323954224586 5
e-4 0 0 1 .0015 .707106781186548 .707106781186547 1 0 0 13 23 49 0 0 0 0 0 0 10
 17 14 17 1066 588 ?495 0 477 6 7 +0 0 495 0 23 81 1 588 1542 543 17 698 0 0 586
 699 81 1 698 1088 30 17 0 588 370 700 701 83 3 699 .615686274509804 .8117647058
82353 .929411764705882 81 1 370 1087 30 368 0 0 353 698 702 81 1 700 1089 30 505
 0 584 698 703 704 82 3 701 19 0 2 14 505 126 584 ?481 498 503 6 705 -0 0 481 49
8 23 81 1 584 1547 543 505 700 0 579 576 706 81 1 703 1090 30 473 0 577 700 707
 708 82 3 704 19 1 2 14 473 1 577 ?507 492 709 6 710 +0 0 507 492 23 81 1 577 15
50 543 473 703 0 572 657 711 81 1 707 1091 30 481 0 576 703 256 712 82 3 708 19
 2 2 14 481 124 576 ?492 505 479 6 713 -0 0 492 505 23 81 1 576 1548 543 481 707
 0 584 572 714 81 1 256 1232 30 254 0 0 707 285 715 82 3 712 19 3 2 81 1 285 123
5 30 271 0 0 256 292 716 82 3 715 22 5 1 81 1 292 1253 30 290 0 0 285 269 717 82
 3 716 22 1 1 81 1 269 1256 30 267 0 0 292 288 718 82 3 717 22 2 1 81 1 288 1259
 30 286 0 0 269 266 719 82 3 718 22 11 1 81 1 266 1270 30 264 0 0 288 168 720 82
 3 719 22 3 1 81 1 168 1292 30 152 0 0 266 176 721 82 3 720 22 7 1 81 1 176 1296
 30 174 0 0 168 172 722 82 3 721 22 3 0 81 1 172 1298 30 170 0 0 176 723 724 82
 3 722 22 5 0 81 1 723 1305 30 725 0 726 172 727 728 82 3 724 22 7 0 14 725 1303
 726 ?729 541 730 6 731 +0 0 729 541 23 81 1 726 1565 543 725 723 0 545 732 733
 81 1 727 1313 30 729 0 732 723 734 735 82 3 728 22 0 2 14 729 1311 732 ?736 725
 737 6 738 -0 0 736 725 23 81 1 732 1566 543 729 727 0 726 739 740 81 1 734 1317
 30 736 0 739 727 741 742 82 3 735 22 3 2 14 736 1315 739 ?743 729 744 6 745 +0
 0 743 729 23 81 1 739 1567 543 736 734 0 732 746 747 81 1 741 1321 30 743 0 746
 734 150 748 82 3 742 22 5 2 14 743 1319 746 ?204 736 749 6 750 +0 0 204 736 23
 81 1 746 1568 543 743 741 0 739 751 752 81 1 150 1361 30 148 0 0 741 146 753 82
 3 748 22 2 2 81 1 146 1362 30 130 0 0 150 164 754 82 3 753 23 0 0 81 1 164 1363
 30 162 0 0 146 179 755 82 3 754 23 1 0 81 1 179 1364 30 157 0 0 164 155 756 82
 3 755 23 2 0 81 1 155 1365 30 153 0 0 179 160 757 82 3 756 23 3 0 81 1 160 1366
 30 158 0 0 155 51 758 82 3 757 23 4 0 81 1 51 1367 30 47 0 0 160 759 760 82 3 7
58 23 5 0 81 1 759 1368 30 328 0 0 51 296 761 82 3 760 23 6 0 16 328 1192 759 ?1
47 329 314 325 329 329 1 81 1 296 1369 30 294 0 0 759 262 762 82 3 761 23 0 1 81
 1 262 1370 30 260 0 0 296 273 763 82 3 762 23 1 1 81 1 273 1371 30 211 0 0 262
 280 764 82 3 763 23 2 1 81 1 280 1372 30 278 0 0 273 277 765 82 3 764 23 3 1 81
 1 277 1373 30 275 0 0 280 282 766 82 3 765 23 4 1 81 1 282 1374 30 259 0 0 277
 331 767 82 3 766 23 5 1 81 1 331 1375 30 329 0 0 282 323 768 82 3 767 23 6 1 81
 1 323 1376 30 304 0 0 331 769 770 82 3 768 23 7 1 81 1 769 1377 30 258 0 0 323
 771 772 82 3 770 23 8 1 16 258 1265 769 ?177 260 254 255 260 260 1 81 1 771 137
8 30 521 0 544 769 230 773 82 3 772 23 9 1 14 521 962 544 ?517 547 519 6 774 +0
 0 517 547 23 81 1 544 1562 543 521 771 0 548 538 775 81 1 230 1380 30 541 0 545
 771 227 776 82 3 773 23 0 2 14 541 1307 545 ?725 517 777 6 778 -0 0 725 517 23
 81 1 545 1564 543 541 230 0 538 726 779 82 3 776 23 2 2 83 3 779 .6156862745098
04 .811764705882353 .929411764705882 15 777 1302 0 151 541 0 50 255 778 1330 0 5
41 738 731 0 +-.00696573969125748 -.04149676045775415 -.002 1 0 0 0 0 -1 50 738
 1331 0 729 745 778 0 +.0155342603087425 -.03874676045775415 -.002 0 -1 0 0 0 -1
 50 731 1329 0 725 778 542 0 +.0155342603087425 -.04074676045775415 -.002 0 -1 0
 0 0 -1 50 542 981 0 517 731 774 0 +.0166842603087425 -.01199676045775414 -.0125
 0 0 -1 1 0 0 50 774 979 0 521 542 552 0 +-.00696573969125748 -.0414967604577541
5 -.0125 1 0 0 0 0 -1 50 552 978 0 547 774 557 0 +-.0151157396912575 -.039996760
45775415 -.0125 0 -1 0 0 0 -1 50 557 977 0 514 552 635 0 +-.0232657396912575 -.0
4149676045775415 -.0125 1 0 0 0 0 -1 51 635 408 0 628 557 650 0 +.05768426030874
25 -.03799676045775415 -.023 0 0 1 .0015 1 0 0 51 650 405 0 641 635 643 0 +-.033
3157396912575 -.03749676045775415 -.023 0 0 1 .0015 1 0 0 51 643 402 0 632 650 6
56 0 +.0576842603087425 .01400323954224584 -.023 0 0 1 .0015 1 0 0 51 656 399 0
 633 643 710 0 +-.0333157396912575 .01350323954224586 -.023 0 0 1 .0015 1 0 0 50
 710 3 0 473 656 780 0 +.0166842603087425 -.01199676045775414 .002 0 0 1 1 0 0 5
0 780 108 0 507 710 575 0 +.0166842603087425 -.01199676045775414 0 0 0 1 1 0 0 1
4 507 68 657 ?633 473 34 6 780 -0 0 633 473 23 50 575 129 0 492 780 713 0 +.0706
842603087425 -.01199676045775414 .002 1 0 0 0 0 -1 50 713 130 0 481 575 705 0 +.
0166842603087425 -.04299676045775415 .002 0 1 0 0 0 1 50 705 131 0 505 713 582 0
 +-.0373157396912575 -.01199676045775414 .002 1 0 0 0 0 -1 50 582 132 0 498 705
 663 0 +.0166842603087425 .01900323954224585 .002 0 1 0 0 0 1 52 663 520 781 648
 582 670 0 -.0576842603087425 -.03799676045775415 5e-4 0 0 1 .0015 .707106781186
548 .707106781186548 1 0 0 81 2 781 521 782 663 0 0 0 783 784 785 52 670 534 783
 661 663 676 0 -.0576842603087425 .01400323954224584 5e-4 0 0 1 .0015 .707106781
186548 .707106781186547 1 0 0 81 2 783 535 782 670 0 0 781 786 787 788 52 676 54
8 786 668 670 680 0 --.0333157396912575 -.03749676045775415 5e-4 0 0 1 .0015 .70
7106781186548 .707106781186548 1 0 0 81 2 786 549 782 676 0 0 783 697 789 790 80
 2 782 791 792 8044 0 0 0 0 3 5 0 0 0 FFFFTFFFTTFFFFFFF3 2 81 2 697 563 782 680
 0 0 786 793 794 795 84 255 6 789 BAAAAB83 3 790 0 .0015 .0015 81 2 793 641 782
 617 0 0 697 796 797 798 84 6 794 BAAAAB83 3 795 867361737988403e-33 .0015 .0015
 51 617 640 793 502 680 605 0 +-.03660863291007095 .0182961327610593 .002 0 0 -1
 .000707106781186545 -1 0 0 81 2 796 712 782 605 0 0 793 799 800 801 84 6 797 EA
IBAB83 3 798 0 1.570796326794895 .001 51 605 711 796 486 617 20 0 +.069977153527
556 -.0422896536765676 .002 0 0 -1 .000707106781186545 -1 0 0 81 2 799 783 782 2
0 0 0 796 19 802 803 84 6 800 EAIBAB83 3 801 3.141592653589795 4.71238898038469
 .001 51 20 782 799 495 605 7 0 +.069977153527556 .0182961327610593 .002 0 0 -1
 .000707106781186545 -1 0 0 81 2 19 1070 782 7 0 0 799 0 804 805 84 6 802 EAIBAB
83 3 803 1.570796326794895 3.141592653589795 .001 84 6 804 EAIBAB83 3 805 4.7123
8898038469 6.28318530717959 .001 79 17 792 SDL/TYSA_BLEND_ID84 6 787 BAAAAB83 3
 788 1734723475976805e-33 .0015 .0015 84 6 784 BAAAAB83 3 785 0 .0015 .0015 81 1
 657 1551 543 507 806 0 577 636 807 15 34 1383 0 28 507 808 15 808 221 0 386 507
 809 17 386 0 808 386 386 0 810 363 0 0 +15 809 214 0 383 507 811 17 383 0 809 3
83 383 0 812 380 0 0 +15 811 207 0 379 507 813 17 379 0 811 379 379 0 814 376 0
 0 +15 813 200 0 375 507 506 17 375 0 813 375 375 0 815 341 0 0 +17 815 0 816 81
5 815 0 375 341 0 0 -15 816 377 0 815 633 0 17 814 0 817 814 814 0 379 376 0 0 -
15 817 347 0 814 628 0 17 812 0 818 812 812 0 383 380 0 0 -15 818 317 0 812 632
 0 17 810 0 819 810 810 0 386 363 0 0 -15 819 287 0 810 641 0 81 1 806 1538 30 5
07 0 657 233 0 820 83 3 807 .615686274509804 .811764705882353 .929411764705882 8
1 1 233 1537 30 228 0 0 242 806 821 82 3 820 25 0 2 81 1 242 1536 30 208 0 0 245
 233 822 82 3 821 25 3 1 81 1 245 1535 30 46 0 0 244 242 823 82 3 822 25 2 1 81
 1 244 1534 30 38 0 0 32 245 824 82 3 823 25 1 1 81 1 32 1533 30 181 0 0 27 244
 825 82 3 824 25 0 1 82 3 825 25 3 0 50 745 1332 0 736 750 738 0 +.0380342603087
425 -.03974676045775415 -.002 1 0 0 0 0 -1 50 750 1334 0 743 826 745 0 +.0166842
603087425 -.01199676045775414 -.002 0 0 -1 1 0 0 50 826 1499 0 204 827 750 0 +.0
155342603087425 .01475323954224586 -.0015 0 -1 0 0 0 -1 14 204 1473 751 ?216 743
 199 6 826 +0 0 216 743 23 50 827 1500 0 216 828 826 0 +-.00696573969125748 .015
75323954224585 -.0015 1 0 0 0 0 -1 14 216 1477 829 ?830 204 209 6 827 -0 0 830 2
04 23 50 828 1501 0 830 831 827 0 +.0155342603087425 .01675323954224585 -.0015 0
 -1 0 0 0 -1 14 830 1481 832 ?833 216 834 6 828 -0 0 833 216 23 50 831 1502 0 83
3 835 828 0 +.0380342603087425 .01575323954224585 -.0015 -1 0 0 0 0 1 14 833 148
5 836 ?223 830 837 6 831 -0 0 223 830 23 50 835 1504 0 223 0 831 0 +.01668426030
87425 -.01199676045775414 -.0015 0 0 -1 1 0 0 14 223 1489 838 ?0 833 219 6 835 +
0 0 0 833 23 81 1 838 1573 543 223 839 0 836 0 840 81 1 839 1491 30 223 0 838 84
1 42 842 81 1 836 1572 543 833 841 0 832 838 843 83 3 840 .615686274509804 .8117
64705882353 .929411764705882 81 1 841 1487 30 833 0 836 844 839 845 81 1 832 157
1 543 830 844 0 829 836 846 83 3 843 .615686274509804 .811764705882353 .92941176
4705882 81 1 844 1483 30 830 0 832 847 841 848 81 1 829 1570 543 216 847 0 751 8
32 849 83 3 846 .615686274509804 .811764705882353 .929411764705882 81 1 847 1479
 30 216 0 829 850 844 851 81 1 751 1569 543 204 850 0 746 829 852 83 3 849 .6156
86274509804 .811764705882353 .929411764705882 81 1 850 1475 30 204 0 751 185 847
 853 83 3 852 .615686274509804 .811764705882353 .929411764705882 81 1 185 1472 3
0 166 0 0 189 850 854 82 3 853 24 4 2 81 1 189 1470 30 187 0 0 193 185 855 82 3
 854 24 7 0 81 1 193 1468 30 191 0 0 195 189 856 82 3 855 24 3 0 82 3 856 24 1 0
 82 3 851 24 0 2 82 3 848 24 3 2 82 3 845 24 5 2 81 1 42 1529 30 1 0 857 839 40
 858 82 3 842 24 2 2 81 1 857 1539 859 1 42 14 0 0 860 82 3 858 6 0 3 80 1 859 8
61 862 8038 0 0 0 0 0 0 0 0 0 TTTTTTTTTTTTTFTFT10 81 1 14 1540 861 1 857 2 0 0 8
63 98 255 6 860 80 97 114 116 32 49 80 1 861 864 865 8017 0 0 0 0 0 0 0 0 0 TTTT
TTTTTTTTTFTFT3 84 6 863 Part 179 13 865 SDL/TYSA_NAME79 14 862 SDL/TYSA_UNAME15
 837 1488 0 234 833 0 17 234 0 837 226 251 181 44 228 0 0 +17 226 0 837 224 234
 166 205 240 0 200 -17 251 0 837 234 224 41 866 248 0 0 +17 44 0 34 36 35 41 234
 228 0 45 -17 35 0 34 44 28 181 201 208 0 205 +17 45 0 834 866 217 41 36 46 0 25
1 +15 834 1484 0 45 830 0 17 866 0 834 218 45 187 251 248 0 224 -17 217 0 834 45
 218 29 214 212 0 0 +17 218 0 834 217 866 191 190 221 0 0 -17 190 0 219 186 194
 187 218 221 0 866 +17 224 0 837 251 226 187 186 225 0 0 -17 205 0 199 201 200 1
81 226 240 0 234 +17 151 0 777 147 867 148 177 258 0 263 -17 147 0 777 161 151 1
30 868 328 0 869 +17 867 0 777 151 161 174 293 290 0 870 -17 177 0 749 173 263 1
74 151 258 0 867 +17 263 0 749 177 871 148 520 260 0 868 +15 749 1322 0 871 743
 0 17 871 0 749 263 872 157 257 254 0 520 -17 520 0 519 297 332 157 263 260 0 0
 -17 868 0 551 518 321 148 147 328 0 332 -15 551 961 0 321 547 0 17 518 0 551 51
5 868 134 332 329 0 313 -17 321 0 551 868 336 130 128 318 0 0 +17 336 0 551 321
 515 125 513 333 0 0 +17 128 0 506 508 869 125 321 318 0 317 -17 869 0 506 128 8
73 130 161 275 0 321 -17 317 0 512 513 340 125 508 298 0 336 +17 873 0 506 869 2
83 158 52 278 0 0 -17 161 0 777 867 147 158 869 275 0 293 +17 293 0 737 52 870 1
58 867 290 0 873 +15 737 1314 0 52 729 0 17 52 0 737 874 293 47 873 278 0 289 +1
7 870 0 737 293 874 174 173 264 0 0 -17 874 0 737 870 52 170 289 286 0 270 -17 1
73 0 749 872 177 170 870 264 0 874 +17 872 0 749 871 173 152 270 267 0 0 -17 270
 0 744 289 169 170 872 267 0 0 +15 744 1318 0 875 736 0 17 289 0 744 875 270 47
 874 286 0 283 +17 169 0 744 270 875 152 156 271 0 257 -17 875 0 744 169 289 153
 283 259 0 274 -17 156 0 730 165 257 153 169 271 0 875 +17 257 0 730 156 180 152
 871 254 0 872 +15 730 1306 0 165 725 0 17 180 0 730 257 165 157 297 294 0 871 -
17 165 0 730 180 156 162 274 211 0 297 -17 283 0 506 873 274 47 875 259 0 0 +17
 515 0 551 336 518 138 137 307 0 0 -83 3 775 .615686274509804 .811764705882353 .
929411764705882 83 3 752 .615686274509804 .811764705882353 .929411764705882 83 3
 747 .615686274509804 .811764705882353 .929411764705882 83 3 740 .61568627450980
4 .811764705882353 .929411764705882 83 3 733 .615686274509804 .811764705882353 .
929411764705882 83 3 714 .615686274509804 .811764705882353 .929411764705882 83 3
 711 .615686274509804 .811764705882353 .929411764705882 15 709 481 0 405 473 876
 17 405 0 709 405 405 0 877 402 0 0 +15 876 475 0 401 473 878 17 401 0 876 401 4
01 0 879 398 0 0 +15 878 469 0 397 473 880 17 397 0 878 397 397 0 881 394 0 0 +1
5 880 463 0 393 473 471 17 393 0 880 393 393 0 695 390 0 0 +17 695 0 679 695 695
 0 393 390 0 0 -17 881 0 675 881 881 0 397 394 0 0 -15 675 542 0 881 668 882 15
 882 543 0 883 668 0 17 883 0 882 883 883 0 413 410 0 0 -17 413 0 649 413 413 0
 883 410 0 0 +15 649 493 0 413 641 819 17 879 0 669 879 879 0 401 398 0 0 -15 66
9 528 0 879 661 884 15 884 529 0 885 661 0 17 885 0 884 885 885 0 409 406 0 0 -1
7 409 0 642 409 409 0 885 406 0 0 +15 642 487 0 409 632 818 17 877 0 662 877 877
 0 405 402 0 0 -15 662 514 0 877 648 886 15 886 515 0 887 648 0 17 887 0 886 887
 887 0 389 357 0 0 -17 389 0 634 389 389 0 887 357 0 0 +15 634 457 0 389 628 817
 83 3 706 .615686274509804 .811764705882353 .929411764705882 81 1 353 1086 30 35
1 0 0 349 370 888 82 3 702 19 7 1 81 1 349 1085 30 346 0 0 365 353 889 82 3 888
 19 6 1 81 1 365 1084 30 362 0 0 24 349 890 82 3 889 19 5 1 81 1 24 1083 30 11 0
 0 464 365 891 82 3 890 19 4 1 81 1 464 1082 30 462 0 0 469 24 892 82 3 891 19 3
 1 82 3 892 19 2 1 15 696 557 0 893 556 0 17 893 0 696 893 893 0 417 414 0 0 -17
 417 0 655 417 417 0 893 414 0 0 +15 655 499 0 417 633 816 83 3 677 .61568627450
9804 .811764705882353 .929411764705882 83 3 672 .615686274509804 .81176470588235
3 .929411764705882 83 3 665 .615686274509804 .811764705882353 .929411764705882 8
3 3 658 .615686274509804 .811764705882353 .929411764705882 83 3 652 .61568627450
9804 .811764705882353 .929411764705882 83 3 645 .615686274509804 .81176470588235
3 .929411764705882 83 3 638 .615686274509804 .811764705882353 .929411764705882 8
3 3 618 .615686274509804 .811764705882353 .929411764705882 83 3 606 .61568627450
9804 .811764705882353 .929411764705882 83 3 590 .615686274509804 .81176470588235
3 .929411764705882 83 3 585 .615686274509804 .811764705882353 .929411764705882 8
3 3 578 .615686274509804 .811764705882353 .929411764705882 83 3 559 .61568627450
9804 .811764705882353 .929411764705882 83 3 554 .615686274509804 .81176470588235
3 .929411764705882 83 3 546 .615686274509804 .811764705882353 .929411764705882 7
9 9 526 BTI/DetId17 107 0 506 447 79 104 491 347 0 484 +17 79 0 506 107 361 76 9
1 459 0 493 +17 361 0 506 79 115 88 497 358 0 0 +17 497 0 496 425 451 112 361 35
8 0 0 -17 499 0 501 123 111 112 425 422 0 497 -82 3 470 19 1 1 81 1 252 1434 30
 212 0 0 210 250 894 81 1 210 1426 30 202 0 0 231 252 895 81 1 250 1442 30 248 0
 0 252 220 896 82 3 894 24 0 1 81 1 220 1445 30 215 0 0 250 238 897 82 3 896 24
 1 1 81 1 238 1448 30 221 0 0 220 197 898 82 3 897 24 5 1 81 1 197 1451 30 225 0
 0 238 195 899 82 3 898 24 7 1 82 3 899 24 11 1 81 1 231 1418 30 240 0 0 227 210
 900 82 3 895 24 2 1 82 3 900 24 3 1 17 37 0 209 214 39 29 28 38 0 217 +82 3 232
 24 9 1 82 3 198 24 5 0 81 1 31 1531 30 41 0 0 40 27 901 82 3 901 25 1 0 82 3 43
 25 0 0 82 3 33 25 2 0 19 18 138 0 1 0 10 6 0 S0 74 4 CI16 index_map_offset0 0 1
 dCCZ20 16 6 0 0 806 19 857 14 2 838 0 0 0 0 0 0 0 0 0 0 0 0 0 0 80 1 13 543 902
 8040 0 0 0 0 3 5 0 0 0 TTTFFFFFFFFFFFFFF2 83 3 15 .615686274509804 .81176470588
2353 .929411764705882 79 17 902 SDL/TYSA_COLOUR_21 0 
