<svg xmlns="http://www.w3.org/2000/svg" width="16" height="16" fill="none" viewBox="0 0 16 16"><path fill="#087e8b" d="M2.063 8v1c2.757 0 5 2.243 5 5h1c0-3.308-2.692-6-6-6"/><path fill="#087e8b" d="M2.063 4.375v1c4.755 0 8.625 3.87 8.625 8.625h1a9.56 9.56 0 0 0-2.82-6.806 9.56 9.56 0 0 0-6.805-2.819"/><path fill="#087e8b" d="M14.271 8.842a13.2 13.2 0 0 0-2.84-4.211A13.2 13.2 0 0 0 2.064.75v1c6.754 0 12.25 5.495 12.25 12.25h1a13.2 13.2 0 0 0-1.042-5.158M2.813 11.25a2 2 0 1 0 0 4 2 2 0 0 0 0-4m0 3a1 1 0 1 1 0-2 1 1 0 0 1 0 2"/></svg>
