<svg xmlns="http://www.w3.org/2000/svg" width="16" height="16" fill="none" viewBox="0 0 16 16"><path fill="#087e8b" d="M15.5 8.5v-1h-7V6h1.75a.75.75 0 0 0 .75-.75v-4a.75.75 0 0 0-.75-.75h-4.5a.75.75 0 0 0-.75.75v4a.75.75 0 0 0 .75.75H7.5v1.5h-7v1H3V10H1.293a.75.75 0 0 0-.75.75v4a.75.75 0 0 0 .75.75H5.75a.75.75 0 0 0 .75-.75v-4a.75.75 0 0 0-.75-.75H4V8.5h8V10h-1.75a.75.75 0 0 0-.75.75v4a.75.75 0 0 0 .75.75h4.5a.75.75 0 0 0 .75-.75v-4a.75.75 0 0 0-.75-.75H13V8.5zM6 1.5h4V5H6zm-.5 13H1.543V11H5.5zm9 0h-4V11h4z"/></svg>
