<svg width="16" height="16" viewBox="0 0 16 16" fill="none" xmlns="http://www.w3.org/2000/svg">
<path d="M15.7433 3.88296C13.4738 2.29397 10.7704 1.44165 8 1.44165C5.22956 1.44165 2.52618 2.29397 0.256719 3.88296L0.25 3.88752V4.74496L7.43056 15H8.56944L15.7502 4.74508V3.88752L15.7433 3.88296ZM5.93344 11.1184L9.85909 5.11446C10.3059 5.19846 10.7463 5.31312 11.1773 5.45762L6.6865 12.1938L5.93344 11.1184ZM5.31563 10.2361L4.48897 9.05549L7.28656 4.96665C7.5231 4.94998 7.76092 4.94165 8 4.94165C8.25417 4.94165 8.50704 4.95121 8.75863 4.97033L5.31563 10.2361ZM3.87613 8.18024L2.68088 6.4733C3.68242 5.84205 4.7887 5.39483 5.94756 5.15274L3.87613 8.18024ZM7.30216 13.0732L12.1293 5.83255C12.5399 6.01916 12.9374 6.23328 13.3191 6.47346L8 14.0698L7.30216 13.0732ZM13.8931 5.65358C12.131 4.53534 10.087 3.94154 8 3.94154C5.91299 3.94154 3.86905 4.53534 2.10691 5.65358L1.2455 4.42337C3.26069 3.12941 5.60515 2.44153 8 2.44153C10.3949 2.44153 12.7393 3.12941 14.7545 4.42337L13.8931 5.65358Z" fill="#087E8B"/>
</svg>
