<svg xmlns="http://www.w3.org/2000/svg" width="16" height="16" fill="none" viewBox="0 0 16 16"><path fill="#087e8b" d="M15.743 3.883a13.5 13.5 0 0 0-15.486 0l-.007.005v.857L7.43 15h1.14l7.18-10.255v-.857zm-3.139-.565-5.917 8.876-.753-1.075 5.406-8.226q.643.178 1.264.425m-3.654-.84a13 13 0 0 1 1.351.175l-4.984 7.585-.83-1.185zM3.874 8.176 3.16 7.159l3.062-4.592q.766-.11 1.541-.123zm.96-5.33L2.547 6.28l-1.3-1.857a12.4 12.4 0 0 1 3.589-1.577M8 14.07l-.698-.997 6.229-9.343q.631.313 1.223.693z"/></svg>