<svg width="16" height="16" viewBox="0 0 16 16" fill="none" xmlns="http://www.w3.org/2000/svg">
<path d="M7.43056 15H8.56944L15.75 4.74509V3.88752L15.7433 3.88284C13.4738 2.29385 10.7704 1.44153 8 1.44153C5.22956 1.44153 2.52618 2.29385 0.256719 3.88284L0.25 3.88752V4.74496L7.43056 15ZM5.58959 10.6274C6.32637 10.216 7.15616 10 8 10C8.84384 10 9.67363 10.216 10.4104 10.6274L8 14.0698L5.58959 10.6274ZM8 2.44152C10.3954 2.43769 12.7409 3.12589 14.7545 4.42337L10.9863 9.80496C10.0794 9.27774 9.04903 9.00001 8 9.00001C6.95097 9.00001 5.92064 9.27774 5.01372 9.80496L1.2455 4.42337C3.25908 3.12589 5.6046 2.43769 8 2.44152Z" fill="#087E8B"/>
</svg>
